<svg xmlns="http://www.w3.org/2000/svg" viewBox="0 0 490.5 490.5"><defs><style>.cls-1{fill:#fff;}</style></defs><g id="Layer_2" data-name="Layer 2"><g id="Layer_1-2" data-name="Layer 1"><path class="cls-1" d="M245.25,0C109.8,0,0,109.8,0,245.25S109.8,490.5,245.25,490.5,490.5,380.7,490.5,245.25,380.7,0,245.25,0Zm90.93,110.21c23.86,0,43.19,18.4,43.19,41.09a40.32,40.32,0,0,1-16.14,32,45,45,0,0,1-49.47,3.09A61.76,61.76,0,0,0,311,179a63.35,63.35,0,0,0-14.37-20.27q-1.65-1.58-3.4-3a39.63,39.63,0,0,1-.24-4.38C293,128.61,312.33,110.21,336.18,110.21Zm-87,41.06c25.24,0,46.52,16.11,53.11,38.11a50,50,0,0,1,2.12,14.44,51.55,51.55,0,0,1-20.65,41,56.31,56.31,0,0,1-26.69,11,58.92,58.92,0,0,1-15.77,0,56.38,56.38,0,0,1-26.7-11,51.56,51.56,0,0,1-20.64-41,50.33,50.33,0,0,1,2.11-14.44C202.72,167.38,224,151.27,249.23,151.27Zm-86.95-41.06c23.85,0,43.19,18.4,43.19,41.09a39.63,39.63,0,0,1-.24,4.38c-1.17,1-2.3,2-3.41,3A63.48,63.48,0,0,0,187.46,179a61.76,61.76,0,0,0-2.75,7.45,45,45,0,0,1-49.47-3.09,40.32,40.32,0,0,1-16.14-32C119.1,128.61,138.43,110.21,162.28,110.21ZM85.89,240.46c3.85-26.06,17.93-46.09,39.42-53.66a52.11,52.11,0,0,0,16.57,10.52,55.17,55.17,0,0,0,40.65,0A61.06,61.06,0,0,0,189,231.86a63.44,63.44,0,0,0,5.58,8.9,79.74,79.74,0,0,0-23.39,14.71,90.47,90.47,0,0,0-19,25.07A29,29,0,0,0,150,285.2H78.33Zm56,136.74,9.66-57.47A104.31,104.31,0,0,1,162,286.55l.17-.33c8.88-16.7,22.45-29.25,39.79-35.38,0,0,0-.09,0-.09,1.2,1.13,2.43,2.22,3.71,3.25l.45.37.53.42c.19.15.38.3.58.44s.4.32.61.47l.62.45a67.68,67.68,0,0,0,14.49,8l.2.08a66.08,66.08,0,0,0,7.46,2.52l.58.15.59.16.31.08.32.07.67.17s.1.11.16.12a44.82,44.82,0,0,0,10.06,1.67h0c2,0,3.93.14,5.92.14s4-.13,5.93-.3l0,0a70.1,70.1,0,0,0,8.34-1.22h0c.63-.13,1.26-.27,1.88-.42s1.27-.31,1.91-.48l1.08-.3.27-.08q1.5-.43,3-.93l1.84-.65c.61-.23,1.22-.46,1.82-.71a67,67,0,0,0,21.19-13.56h0c17.45,6.17,31.08,18.69,40,35.55,5.09,9.66,8.61,21.39,10.41,33.51l9.66,57.47Zm206.71-92a38.73,38.73,0,0,0-2.29-5c-9.69-18.4-24.27-32.07-42.31-39.42a63.81,63.81,0,0,0,5.47-8.86,61.61,61.61,0,0,0,6.47-34.62,55,55,0,0,0,40.65-.06,52.65,52.65,0,0,0,16.57-10.61c21.48,7.57,35.56,27.76,39.42,53.82l7.56,44.74Z"/></g></g></svg>