<svg xmlns="http://www.w3.org/2000/svg" viewBox="0 0 97.13 109.55"><defs><style>.cls-1{fill:#fff;}</style></defs><g id="Layer_2" data-name="Layer 2"><g id="Layer_1-2" data-name="Layer 1"><path class="cls-1" d="M2,46.57a9,9,0,0,0-2,5.65v48.11a9,9,0,0,0,9,9h1.22l.22.22.22-.22H86.47l.22.22.22-.22h1.22a9,9,0,0,0,9-9V52.22a9,9,0,0,0-2-5.65,2.47,2.47,0,0,0-.7-1.73L50.26.67a2.49,2.49,0,0,0-3.39,0L2.7,44.84A2.39,2.39,0,0,0,2,46.57Zm12.66,58.76L37.23,82.76l9.64,9.64a2.4,2.4,0,0,0,3.39,0l9.64-9.64,22.57,22.57ZM21.9,62V45.22H76v16L48.56,88.68Zm71.23-9.8v48.11a5,5,0,0,1-4,4.9L63.28,79.38,92.61,50.05A5,5,0,0,1,93.13,52.22ZM48.56,5.75,89.35,46.54,78.9,57V43.78a1.43,1.43,0,0,0-1.44-1.43h-57A1.43,1.43,0,0,0,19,43.78v14L7.78,46.54ZM4,52.22a5,5,0,0,1,.52-2.17L33.85,79.38,8,105.23a5,5,0,0,1-4-4.9Z"/></g></g></svg>