<?xml version="1.0" encoding="utf-8"?>
<!-- Generator: Adobe Illustrator 25.2.1, SVG Export Plug-In . SVG Version: 6.00 Build 0)  -->
<svg version="1.1" id="Layer_1" xmlns="http://www.w3.org/2000/svg" xmlns:xlink="http://www.w3.org/1999/xlink" x="0px" y="0px"
	 viewBox="0 0 48 48" style="enable-background:new 0 0 48 48;" xml:space="preserve">
<style type="text/css">
	.st0{fill:#FFFFFF;}
</style>
<path class="st0" d="M24,19.3l-2.1-2.1l3.7-3.7h-9.1v-3h9.1l-3.7-3.7L24,4.7l7.3,7.3L24,19.3z M14.5,44c-1,0-1.8-0.4-2.6-1
	c-0.7-0.7-1.1-1.5-1.1-2.5c0-1,0.4-1.8,1.1-2.5c0.7-0.7,1.6-1.1,2.6-1.1s1.9,0.3,2.5,1s1,1.5,1,2.5s-0.4,1.8-1,2.5S15.5,44,14.5,44z
	 M34.7,44c-1,0-1.8-0.4-2.5-1c-0.7-0.7-1.1-1.5-1-2.5c0-1,0.4-1.8,1-2.5c0.7-0.7,1.5-1,2.5-1s1.8,0.4,2.5,1c0.7,0.7,1,1.5,1,2.5
	s-0.3,1.8-1,2.5C36.5,43.6,35.7,44,34.7,44z M3.1,7V4h5.8l8.5,18.2h14.4l8-14h3.3L35,23.4c-0.4,0.6-0.8,1.1-1.4,1.5
	c-0.6,0.4-1.2,0.6-1.9,0.6H16.5l-2.8,5.2h24.5v3H14.2c-1.3,0-2.2-0.5-2.9-1.5c-0.7-1-0.7-2-0.1-3l3.2-5.9L7,7H3.1z"/>
</svg>
