<svg xmlns="http://www.w3.org/2000/svg" viewBox="0 0 69.2 70.83"><defs><style>.cls-1{fill:#c4c3c3;}.cls-2{fill:#dfdbdb;}.cls-3{fill:#d8dddd;}.cls-4{fill:#ebe9e9;}.cls-5{fill:#e2e4e4;}.cls-6{fill:#acaeae;}.cls-7{fill:#737676;}.cls-8{fill:#eae9e9;}.cls-9{fill:#939393;}.cls-10{fill:#afabab;}.cls-11{fill:#a3a1a1;}.cls-12{fill:#b4b0b0;}.cls-13{fill:#aca7a7;}.cls-14{fill:#7c7e7e;}.cls-15{fill:#d4d8d8;}.cls-16{fill:#ececec;}.cls-17{fill:#767979;}.cls-18{fill:#b7b6b6;}.cls-19{fill:#dfe5e5;}.cls-20{fill:#c0c4c4;}.cls-21{fill:#c2c5c5;}.cls-22{fill:#949595;}.cls-23{fill:#bab9b9;}.cls-24{fill:#918b8b;}.cls-25{fill:#d9d7d7;}.cls-26{fill:#dde1e1;}.cls-27{fill:#868787;}.cls-28{fill:#b1baba;}.cls-29{fill:#7f8181;}.cls-30{fill:#dce9e9;}.cls-31{fill:#8e8d8d;}.cls-32{fill:#908b8b;}.cls-33{fill:#e2e6e6;}.cls-34{fill:#adaaaa;}.cls-35{fill:#a6a1a1;}.cls-36{fill:#d3d5d5;}.cls-37{fill:#cccdcd;}.cls-38{fill:#6e6b6b;}.cls-39{fill:#636565;}.cls-40{fill:#e8ecec;}.cls-41{fill:#cdd1d1;}.cls-42{fill:#d9dcdc;}.cls-43{fill:#949292;}.cls-44{fill:#818282;}.cls-45{fill:#e7e9e9;}.cls-46{fill:#c9c4c4;}.cls-47{fill:#c2bfbf;}.cls-48{fill:#707171;}.cls-49{fill:#cdcccc;}.cls-50{fill:#dedcdc;}.cls-51{fill:#6e6e6e;}.cls-52{fill:#696161;}.cls-53{fill:#a2a1a1;}.cls-54{fill:#595555;}.cls-55{fill:#595858;}.cls-56{fill:#9e9d9d;}.cls-57{fill:#d2d1d1;}.cls-58{fill:#c6c5c5;}.cls-59{fill:#7d7979;}.cls-60{fill:#6d7676;}.cls-61{fill:#aba3a3;}.cls-62{fill:#b9b3b3;}.cls-63{fill:#938c8c;}.cls-64{fill:#727676;}.cls-65{fill:#767878;}.cls-66{fill:#918989;}.cls-67{fill:#817878;}.cls-68{fill:#8d8c8c;}.cls-69{fill:#c3c0c0;}.cls-70{fill:#a79999;}.cls-71{fill:#939090;}.cls-72{fill:#989f9f;}.cls-73{fill:#aca5a5;}.cls-74{fill:#747676;}.cls-75{fill:#c3c6c6;}.cls-76{fill:#d8d7d7;}.cls-77{fill:#736a6a;}.cls-78{fill:#e4e5e5;}.cls-79{fill:#626161;}.cls-80{fill:#c5cece;}.cls-81{fill:#716f6f;}.cls-82{fill:#716b6b;}.cls-83{fill:#d4cccc;}.cls-84{fill:#ada5a5;}.cls-85{fill:#878383;}.cls-86{fill:#7d8181;}.cls-87{fill:#798080;}.cls-88{fill:#5b5858;}.cls-89{fill:#4e4d4d;}.cls-90{fill:#716c6c;}.cls-91{fill:#9e9f9f;}.cls-92{fill:#999c9c;}.cls-93{fill:#514f4f;}.cls-94{fill:#a1a9a9;}.cls-95{fill:#9a9595;}.cls-96{fill:#736e6e;}.cls-97{fill:#857d7d;}.cls-98{fill:#999797;}.cls-99{fill:#b7c1c1;}.cls-100{fill:#5c5b5b;}.cls-101{fill:#828a8a;}.cls-102{fill:#505c5c;}.cls-103{fill:#828080;}.cls-104{fill:#cbc8c8;}.cls-105{fill:#4f4b4b;}.cls-106{fill:#a6a8a8;}.cls-107{fill:#b6bdbd;}.cls-108{fill:#4f4d4d;}.cls-109{fill:#525454;}.cls-110{fill:#555353;}.cls-111{fill:#777070;}.cls-112{fill:#becccc;}.cls-113{fill:#1c1d1d;}.cls-114{fill:#414242;}.cls-115{fill:#d3d1d1;}.cls-116{fill:#595959;}.cls-117{fill:#1d1c1c;}.cls-118{fill:#463838;}.cls-119{fill:#423e3e;}.cls-120{fill:#eaeaea;}.cls-121{fill:#878686;}.cls-122{fill:#c9cccc;}.cls-123{fill:#797474;}.cls-124{fill:#c5c3c3;}.cls-125{fill:#7f7d7d;}.cls-126{fill:#272424;}.cls-127{fill:#404141;}.cls-128{fill:#6b6a6a;}.cls-129{fill:#666363;}.cls-130{fill:#312d2d;}.cls-131{fill:#3a3c3c;}.cls-132{fill:#5c5f5f;}.cls-133{fill:#fefefe;}.cls-134{fill:#676363;}.cls-135{fill:#e2e3e3;}.cls-136{fill:#d5dede;}.cls-137{fill:#453f3f;}.cls-138{fill:#d6d8d8;}.cls-139{fill:#999d9d;}.cls-140{fill:#636262;}.cls-141{fill:#717474;}.cls-142{fill:#7d7f7f;}.cls-143{fill:#cbe3e3;}.cls-144{fill:#222121;}.cls-145{fill:#232424;}.cls-146{fill:#909494;}.cls-147{fill:#5c6363;}.cls-148{fill:#eceeee;}.cls-149{fill:#464848;}.cls-150{fill:#363737;}.cls-151{fill:#bbb;}.cls-152{fill:#c1caca;}.cls-153{fill:#b6bcbc;}.cls-154{fill:#504646;}.cls-155{fill:#9c9f9f;}.cls-156{fill:#403b3b;}.cls-157{fill:#4f4f4f;}.cls-158{fill:#696666;}.cls-159{fill:#1c1717;}.cls-160{fill:#8f9999;}.cls-161{fill:#6e6d6d;}.cls-162{fill:#484545;}.cls-163{fill:#5d5b5b;}.cls-164{fill:#bcc4c4;}.cls-165{fill:#aeb5b5;}.cls-166{fill:#6c6464;}.cls-167{fill:#4a4949;}.cls-168{fill:#464545;}.cls-169{fill:#7f8080;}.cls-170{fill:#afb4b4;}.cls-171{fill:#474343;}.cls-172{fill:#3b3131;}.cls-173{fill:#c5cfcf;}.cls-174{fill:#706c6c;}.cls-175{fill:#6a6666;}.cls-176{fill:#b8b9b9;}.cls-177{fill:#757878;}.cls-178{fill:#383434;}.cls-179{fill:#bfcfcf;}.cls-180{fill:#999;}.cls-181{fill:#5e5c5c;}.cls-182{fill:#bcc2c2;}.cls-183{fill:#9ba4a4;}.cls-184{fill:#8c8c8c;}.cls-185{fill:#4a5252;}.cls-186{fill:#787f7f;}.cls-187{fill:#dae9e9;}.cls-188{fill:#333131;}.cls-189{fill:#474141;}.cls-190{fill:#a5a6a6;}.cls-191{fill:#272626;}.cls-192{fill:#575656;}.cls-193{fill:#323030;}.cls-194{fill:#818181;}.cls-195{fill:#1c1c1c;}.cls-196{fill:#322f2f;}.cls-197{fill:#494d4d;}.cls-198{fill:#343535;}.cls-199{fill:#413d3d;}.cls-200{fill:#443f3f;}.cls-201{fill:#5d6060;}.cls-202{fill:#898b8b;}.cls-203{fill:#4c5e5e;}.cls-204{fill:#b8d1d1;}.cls-205{fill:#1d1d1d;}.cls-206{fill:#3d3b3b;}.cls-207{fill:#626060;}.cls-208{fill:#babdbd;}.cls-209{fill:#454545;}.cls-210{fill:#a2a9a9;}.cls-211{fill:#3b3e3e;}.cls-212{fill:#697979;}.cls-213{fill:#292121;}.cls-214{fill:#a9a9a9;}.cls-215{fill:#6c6e6e;}.cls-216{fill:#434242;}.cls-217{fill:#b3bfbf;}.cls-218{fill:#101010;}.cls-219{fill:#0c0c0c;}.cls-220{fill:#111010;}.cls-221{fill:#363636;}.cls-222{fill:#4d5151;}.cls-223{fill:#5e6363;}.cls-224{fill:#202222;}.cls-225{fill:#474a4a;}.cls-226{fill:#565f5f;}.cls-227{fill:#333737;}.cls-228{fill:#606060;}.cls-229{fill:#575959;}.cls-230{fill:#626363;}.cls-231{fill:#697d7d;}.cls-232{fill:#4c4848;}.cls-233{fill:#9da3a3;}.cls-234{fill:#808d8d;}.cls-235{fill:#535050;}.cls-236{fill:#9a9f9f;}.cls-237{fill:#919090;}.cls-238{fill:#555a5a;}.cls-239{fill:#303333;}.cls-240{fill:#747a7a;}.cls-241{fill:#4f5959;}.cls-242{fill:#241d1d;}.cls-243{fill:#8c9191;}.cls-244{fill:#161414;}.cls-245{fill:#252222;}.cls-246{fill:#2f2c2c;}.cls-247{fill:#8e9191;}.cls-248{fill:#778686;}.cls-249{fill:#111;}.cls-250{fill:#222;}.cls-251{fill:#313232;}.cls-252{fill:#5a5b5b;}.cls-253{fill:#262323;}.cls-254{fill:#94a8a8;}.cls-255{fill:#7b7777;}.cls-256{fill:#534a4a;}.cls-257{fill:#555656;}.cls-258{fill:#7a9191;}.cls-259{fill:#2b2c2c;}.cls-260{fill:#889090;}.cls-261{fill:#738282;}.cls-262{fill:#141919;}.cls-263{fill:#566767;}.cls-264{fill:#434040;}.cls-265{fill:#100f0f;}.cls-266{fill:#7b9191;}.cls-267{fill:#262525;}.cls-268{fill:#5a5d5d;}.cls-269{fill:#9fa1a1;}.cls-270{fill:#beb9b9;}.cls-271{fill:#a4acac;}.cls-272{fill:#a3a7a7;}.cls-273{fill:#2f3030;}.cls-274{fill:#252525;}.cls-275{fill:#575d5d;}.cls-276{fill:#99b9b9;}.cls-277{fill:#7c8989;}.cls-278{fill:#e1e0e0;}.cls-279{fill:#7b8080;}.cls-280{fill:#adb7b7;}.cls-281{fill:#343636;}.cls-282{fill:#575858;}.cls-283{fill:#9d9999;}.cls-284{fill:#ecf5f5;}.cls-285{fill:#dce0e0;}.cls-286{fill:#121212;}.cls-287{fill:#0c0b0b;}.cls-288{fill:#201f1f;}.cls-289{fill:#3e3d3d;}.cls-290{fill:#121010;}.cls-291{fill:#8f9898;}.cls-292{fill:#767676;}.cls-293{fill:#a9b3b3;}.cls-294{fill:#635858;}.cls-295{fill:#727777;}.cls-296{fill:#080808;}.cls-297{fill:#242727;}.cls-298{fill:#1d1f1f;}.cls-299{fill:#3e3f3f;}.cls-300{fill:#353838;}.cls-301{fill:#3f4444;}.cls-302{fill:#333;}.cls-303{fill:#4a5050;}.cls-304{fill:#2e3131;}.cls-305{fill:#445d5d;}.cls-306{fill:#2b2929;}.cls-307{fill:#292828;}.cls-308{fill:#363a3a;}.cls-309{fill:#1f2020;}.cls-310{fill:#747e7e;}.cls-311{fill:#9ca4a4;}.cls-312{fill:#161313;}.cls-313{fill:#141212;}.cls-314{fill:#8d9c9c;}.cls-315{fill:#a1b4b4;}.cls-316{fill:#8ca5a5;}.cls-317{fill:#2d2e2e;}.cls-318{fill:#3c3c3c;}.cls-319{fill:#353939;}.cls-320{fill:#323838;}.cls-321{fill:#7a7f7f;}.cls-322{fill:#535656;}.cls-323{fill:#212121;}.cls-324{fill:#464747;}.cls-325{fill:#464a4a;}.cls-326{fill:#3b3c3c;}.cls-327{fill:#171212;}.cls-328{fill:#1b1b1b;}.cls-329{fill:#404242;}.cls-330{fill:#242121;}.cls-331{fill:#859d9d;}.cls-332{fill:#a6b0b0;}.cls-333{fill:#181818;}.cls-334{fill:#1a1e1e;}.cls-335{fill:#2d3030;}.cls-336{fill:#222525;}.cls-337{fill:#fff;}</style></defs><g id="Layer_2" data-name="Layer 2"><g id="OBJECTS"><path class="cls-1" d="M62.76,23.37c2.46.55,2.4,3.23,3.83,4.68,1,1.05-1.13,1.3-1,2.42.91.65,2,0,3,.29a1,1,0,0,1,0,1.46h0a2.18,2.18,0,0,1-2,1A4.53,4.53,0,0,0,64,32.84a2.07,2.07,0,0,1-1.32-.49,1.8,1.8,0,0,1-.21-1,8.29,8.29,0,0,0-2.64-5.66,1.78,1.78,0,0,1,.48-2C61,23.13,61.8,22.63,62.76,23.37Z"/><path class="cls-2" d="M13.08,6.38c.55-1.77,2.81-2.1,3-4,1.43.1,1.45,2,2.83,1.7l.3.34A2.49,2.49,0,0,1,19,5.78c-.07.14-.14.27-.2.41a2.92,2.92,0,0,1-.6.66,4.32,4.32,0,0,1-1.15.59,1.14,1.14,0,0,1-.76-.09.37.37,0,0,0-.24-.17c.05.05.07,0,.11.05a2.92,2.92,0,0,0,.29.47,2.44,2.44,0,0,1-.67,1.86,3.06,3.06,0,0,1-1.11.81,1.47,1.47,0,0,1-.9-.11,3.41,3.41,0,0,1-.57-.73c-.3-.53-.67-1-1-1.54a.67.67,0,0,1,.24-.8h0A5.48,5.48,0,0,0,13.08,6.38Z"/><path class="cls-3" d="M46.1,67.54l-1.71.69c-.7-.74-1.38-1-2,.09l-1.49,0a2.48,2.48,0,0,1-2.21-.78c-1-1.26-2,.44-3,0-.15-1.27.71-1.69,1.66-2A12.58,12.58,0,0,0,39,65a4.11,4.11,0,0,1,1.58-.53,10.66,10.66,0,0,0,1.6.08,12.27,12.27,0,0,0,1.18-.35,5.3,5.3,0,0,1,.86-.19,4.06,4.06,0,0,1,1.83.16,1.43,1.43,0,0,1,.68.63,3.47,3.47,0,0,1,0,.64A2.51,2.51,0,0,1,46.1,67.54Z"/><path class="cls-4" d="M8,9.38c.66-1.81,1.66-2.8,3.6-1.54l.34.35c.37,2.31-1.81,3.33-2.51,5.11-.6,1-1.22,2-2.56,2.16l-.42-.28c-1.06-.85-1.56-1.81-.49-3,.64-.72,1.32-1.4,2-2.1.31,0,.44-.2.35-.5A.27.27,0,0,0,8,9.38Z"/><path class="cls-5" d="M4,51.1c-1.38.11-.92-1.58-1.84-1.92-.55-1,.15-1.53.72-2.12,0-.31.07-.63.1-1A5.09,5.09,0,0,1,5.38,46a1.76,1.76,0,0,1,1,.93,6.79,6.79,0,0,0,1.09,2c.37.49.7,1,1,1.51a4.08,4.08,0,0,1,.65,1.26A1.62,1.62,0,0,1,8.86,53c-.78.49-1.52-.85-2.32-.05-.73-.68-1.26-1.63-2.39-1.75l.08-.29Z"/><path class="cls-6" d="M64.3,44c0,1.63.39,3.4-1.5,4.37h0c1,.81.95,1.67-.14,2.22-.62.31-1.39.34-1.93.89-.74-.26-.89-1-1.35-1.55a4.35,4.35,0,0,1-.49-.72,1.75,1.75,0,0,1,0-.88,3.42,3.42,0,0,1,.46-.76c.19-.24.38-.46.58-.68.61-.68.67-1.68,1.33-2.33C62.25,44.37,63.18,43.65,64.3,44Z"/><path class="cls-4" d="M2.38,25.5c-.64-.27-1-.8-.68-1.4a10.61,10.61,0,0,0,1.89-6.7c-.13-1.49,1.63-1.85,2.9-2.22a3.4,3.4,0,0,0,.3.23c1.82,1.85-1,2.61-.93,4-1.17,1.4-.74,3.29-1.45,4.83C3.86,24.89,3,25,2.38,25.5Z"/><path class="cls-7" d="M17,59.72c-1.74,1.52-2.51-.74-3.8-1-.39-.23-.84-.39-1-.85s-.29-.85-.4-1.28a15.85,15.85,0,0,0-.26-1.68,8,8,0,0,0-.9-1.41,4,4,0,0,1-.35-1.32,5.2,5.2,0,0,1,.09-1.42,2.7,2.7,0,0,1,.4-.86,1.47,1.47,0,0,1,.88-.31,2.8,2.8,0,0,1,1.64.88,1.85,1.85,0,0,1,.16.9,4,4,0,0,0,.74,2.09c.4.85.06,1.82.39,2.68a8.78,8.78,0,0,0,1.08,1.53c.35.44.72.87,1.11,1.28A1,1,0,0,1,17,59.72Z"/><path class="cls-8" d="M59.1,10.09c.92,1.09,2.87,2,.77,3.7a.65.65,0,0,1-.76.24,3.56,3.56,0,0,1-.68-.55,8.21,8.21,0,0,0-2.1-1.5c-.87-.53-2.07-.78-1.9-2.22a4.41,4.41,0,0,0,.3-1.9c.63-.83,1.23-.53,1.78.08.4.44.75.93,1.13,1.4l.41.06A2.38,2.38,0,0,1,59.1,10.09Z"/><path class="cls-9" d="M3.66,24.14c.17-.16.52-.4.5-.46-.91-1.88.19-3.27,1.1-4.7,1.19-.11,1.7.77,2.27,1.55.43,1.06-.43,1.64-.83,2.39.07.6.6.95.8,1.48a1.7,1.7,0,0,1-.43,1.31,3.71,3.71,0,0,1-1.13.88,2.17,2.17,0,0,1-.94.16,1.11,1.11,0,0,1-.74-.54l-.62-.68A.93.93,0,0,1,3.66,24.14Z"/><path class="cls-10" d="M30,3.46c.34-2.3.44-2.46,2.09-1.4,1,.61,1.54,0,2.29,0a3.52,3.52,0,0,1,1.08,3.3c-.64,1.11-1.81.57-2.7.88A2.86,2.86,0,0,1,31.21,6C30.41,5.34,29.43,4.78,30,3.46Z"/><path class="cls-11" d="M64.3,44c-.87.94-1.78,1.69-3.09.74-.58.09-.8-.22-.83-.75a5.06,5.06,0,0,1,2-2.3,3,3,0,0,1,1.52-.21,2,2,0,0,0,.65-.27,2,2,0,0,1,1-.47.39.39,0,0,1,.38.51C67.16,43.73,67.16,43.73,64.3,44Z"/><path class="cls-12" d="M27.72,2.78c.58,0,1.18,0,1.58.53a5.19,5.19,0,0,1-.45,2.43,2.15,2.15,0,0,1-1.13.91c-1.07,0-1.94-.93-3.07-.61a3.3,3.3,0,0,1-.83,0c-1-.7-.15.93-.82.7-1.15.33-2,.13-2.18-1.26.55-2.27,2.65-1.3,4-1.94A8.26,8.26,0,0,0,27.72,2.78Z"/><path class="cls-13" d="M2.93,28.61l.62-.87a4.33,4.33,0,0,1,1.34.13A2.07,2.07,0,0,1,6,28.61a1.63,1.63,0,0,1,.1.85c-.05.28-.12.56-.19.84a8.59,8.59,0,0,1-.21.84c-.07.28-.16.56-.26.84-.17.57-.28,1.15-.46,1.72a2,2,0,0,1-.5.75,1.07,1.07,0,0,1-.84.11,1.52,1.52,0,0,1-.45-1.12c-.23-.27.69-.42.06-.73a.52.52,0,0,1-.42.51A.55.55,0,0,1,2.17,33a2.36,2.36,0,0,1,.52-2c.27-.28,1.09-.06.83-.71-.1-.22-.86-.16-1.31-.23C1.78,29.19,2.35,28.9,2.93,28.61Z"/><path class="cls-14" d="M38,66c-1.1,0-1.68.78-2.32,1.5-.91,0-1.89-.67-2.7.28a1.37,1.37,0,0,1-.69-1.21,2.29,2.29,0,0,1,.47-1.33c.3-.34.62-.66.94-1a3.32,3.32,0,0,1,.67-.57,2,2,0,0,1,.83-.22,2.35,2.35,0,0,1,.82.24,5.75,5.75,0,0,0,1.56.58l.4.18a1.38,1.38,0,0,1,.38.77A1.14,1.14,0,0,1,38,66Z"/><path class="cls-15" d="M27.2,66c-.78.28-1.55.57-2.34.83-.62.21-1.25,1-1.91.24s0-1.32.19-2A4.14,4.14,0,0,0,23.21,64l.27-.32a2,2,0,0,1,.83-.05,6.45,6.45,0,0,0,1.7.08C27.58,63.85,27.83,64.69,27.2,66Z"/><path class="cls-16" d="M66.46,33l2.14-.77c1.16,1.57.5,2.75-.78,3.8-.82.34-1.47-.11-2.14-.47a2.76,2.76,0,0,1-.94-1c0-.16,0-.31-.07-.46a1.31,1.31,0,0,1,.46-.79A2.06,2.06,0,0,1,66.46,33Z"/><path class="cls-17" d="M27.2,66c-.19-.93.12-2.42-1.68-1.5a2.6,2.6,0,0,1-1-1.63,1.67,1.67,0,0,1,.34-.91,1.85,1.85,0,0,1,.84-.47c.83.07,1.38.71,2.07,1.06a5.61,5.61,0,0,0,1.77.34,1.59,1.59,0,0,1,1.3,1.75c-.5,1-1.54,1.08-2.39,1.49Z"/><path class="cls-18" d="M59.23,13.73c.21,0,.42,0,.64.06.82,1,1.72,2,2.44,3s.75,2.07-1,2.12C60,18,58.64,17,58.54,15.15A1.65,1.65,0,0,1,59.23,13.73Z"/><path class="cls-19" d="M23.21,64a1.55,1.55,0,0,0-1.45.77c-.67.24-1.47,0-2,.61l-1.52-.79a1.92,1.92,0,0,1-.45-.7,2.37,2.37,0,0,1,0-.84,1.86,1.86,0,0,1,.5-.65c0-.3.07-.6.11-.9a1.68,1.68,0,0,1,1.3-.33c.76.14,1.28.74,2,1,.42.15.84.3,1.25.49a1.11,1.11,0,0,1,.64,1.1Z"/><path class="cls-20" d="M11,53.6c.54.15,1.14.15,1.44.75-.77.67-.53,1.39-.11,2.12,0,.52.09,1,.13,1.56a.42.42,0,0,1-.7,0c-1.2-.77-2.46-1.45-3.08-2.85,0-.17,0-.34,0-.51C9.15,53.66,9.63,52.7,11,53.6Z"/><path class="cls-21" d="M6,47.12l-.72-.84A2.49,2.49,0,0,1,3.6,44.66l.87-1.43A1.64,1.64,0,0,1,6,42.91c1.45.64,2.75,1.39,2.31,3.36C7.75,47.14,7,47.67,6,47.12Z"/><path class="cls-22" d="M5.66,43.36l-1.19-.13-1-1.4c.07-.13.13-.26.19-.4A4.22,4.22,0,0,0,4.3,39.3a3.63,3.63,0,0,1,.58-1.84,1,1,0,0,1,.93-.14,3.53,3.53,0,0,1,1,1.13c.71,1,1.39,2,.76,3.3A3.4,3.4,0,0,1,5.66,43.36Z"/><path class="cls-23" d="M5.09,37.4l0,2.29c-.89.38-.74,1.37-1.16,2a1.66,1.66,0,0,1-.49.11c-1.19-1-.85-2.71-1.92-3.74a.65.65,0,0,1-.25-.74,3.26,3.26,0,0,1,1.47-1,2.06,2.06,0,0,1,.89,0l.43.15A2.21,2.21,0,0,1,5.09,37.4Z"/><path class="cls-2" d="M25.54,4.22c-1.58.1-3.39-.53-4.38,1.42-1.31.56-1.66-.46-2.1-1.31l-.17-.24c.62-.58,1.45-1.21,2.17-.9,1.64.7,3-.3,4.41-.49A1,1,0,0,1,25.54,4.22Z"/><path class="cls-24" d="M50.44,5.59c0,.25.06.5.1.75a1.56,1.56,0,0,1-.82,1.08,2.5,2.5,0,0,1-.9.14c-.6,0-1.2,0-1.79-.13a2.38,2.38,0,0,1-1.12-.69,4.06,4.06,0,0,1-.67-1.11,2.71,2.71,0,0,1-.1-.85c.25-.59-.67-1.42.14-1.73.31-.12,1,.72,1.5,1.12C47.68,5.49,49.58,4.16,50.44,5.59Z"/><path class="cls-25" d="M50.44,5.59c-.55-.09-1-.42-1.66-.19-1.14.42-1.7-.2-2-1.23.85-.3,2.22.76,2.51-1a.89.89,0,0,1,1.29-.78c.65.31.52.94.32,1.54S50.59,5,50.44,5.59Z"/><path class="cls-26" d="M52.54,66.14l-1.47.71a2.38,2.38,0,0,1-.75-1.14,6,6,0,0,1-.43-1.82,2.36,2.36,0,0,1,.28-.91c.9-1.09,2-.82,3.09-.43a3,3,0,0,1,.74.6l-.06.91c-.3.32-.31.78-.53,1.14A7.07,7.07,0,0,1,52.54,66.14Z"/><path class="cls-27" d="M57.6,58.11A1.42,1.42,0,0,0,57,59.5a.54.54,0,0,1,.2.52c0,.19-.08.29-.13.29a1,1,0,0,1-.88-.06,2.41,2.41,0,0,1-.63-1.2,5.74,5.74,0,0,0-.63-1.64,2.81,2.81,0,0,1-.48-1.28c.18-1.09.21-2.28,1.53-2.71a1.39,1.39,0,0,1,.75.53c.4.68.92,1.28,1.34,1.95A2.19,2.19,0,0,1,58,57.8Z"/><path class="cls-28" d="M28.46,66.12a2.12,2.12,0,0,1,2.2-1.46,2.64,2.64,0,0,1,3.26-1l.35.4-.05.76c-.19.17-.37.35-.55.53l-.84.69a.82.82,0,0,1-.63.55,8.11,8.11,0,0,0-2.16.57h-.47l-.36-.29Z"/><path class="cls-29" d="M62.76,23.37l-2.18.75a2.24,2.24,0,0,1-1.49-.5,1.16,1.16,0,0,1-.24-.72,1,1,0,0,1,.44-.58l.27-.17s-.17-.28-.18-.28a2.19,2.19,0,0,1-.45-1.05,1.75,1.75,0,0,1,.87-1.36.62.62,0,0,1,.73.24.42.42,0,0,1,.14.46,1.19,1.19,0,0,0,.78.95l-.06-.06a1.74,1.74,0,0,0,.72.84l.67.75c.26.17.34.33.25.49s-.18.24-.27.24Z"/><path class="cls-11" d="M67.17,39.56c-.88.23-.69,1.25-1.23,1.73l-.3-.26c-.67-.54-1,.08-1.48.39a2.12,2.12,0,0,1-1.36-.11,1.61,1.61,0,0,1-.45-.83,4.64,4.64,0,0,1,1.16-2.62,2.48,2.48,0,0,1,.72-.65,1.6,1.6,0,0,1,.94.14,12.31,12.31,0,0,1,2,1.32A.77.77,0,0,1,67.17,39.56Z"/><path class="cls-30" d="M1.56,37.29c0,.27,0,.54,0,.8C.18,37.24,1,35.47,0,34.45c.75-1,2.16-.51,3-1.35l-.06-.17c.26-.3.51-.29.73,0,0,.51,0,1,.07,1.54a.91.91,0,0,1,.12.83,2.12,2.12,0,0,1-1,.87A5.74,5.74,0,0,0,1.56,37.29Z"/><path class="cls-31" d="M49.64,7.17l.9-.83,1.31.19a9.09,9.09,0,0,0,1.47,1.15,1.48,1.48,0,0,1,.38.82,1.12,1.12,0,0,1-.76,1,.87.87,0,0,0-1.25.4c-.53.38-1,.65-1.62.09A3.86,3.86,0,0,1,49.64,7.17Z"/><path class="cls-32" d="M35,5.62c0-1.23-.93-2.29-.65-3.58.68-.5,1.26-.52,1.67.36.25.53.52,1.06,1.23,1.08L37.4,4C37,5.09,36.56,6.2,35,5.62Z"/><path class="cls-33" d="M61.31,58c-.55.93-1.43.8-2.29.71a1.29,1.29,0,0,1-.21-.87c.35-1.2-.2-2.45.15-3.65a1.51,1.51,0,0,1,1.65-.76,2.34,2.34,0,0,1,.75,1.25A8.08,8.08,0,0,1,61.31,58Z"/><path class="cls-34" d="M41.73,2.82C41.79,1.05,43.29,0,44.38.49c1.48.74-1.05,1.79-.56,3a.8.8,0,0,1-.73.26A2.68,2.68,0,0,1,41.73,2.82Z"/><path class="cls-35" d="M38.62.36c1.75-1,1.6.29,1.62,1.38a1.65,1.65,0,0,0,.63,1,1.13,1.13,0,0,1,.11.7,1.67,1.67,0,0,1-.89.63A2.59,2.59,0,0,1,38,3.73a.61.61,0,0,1,0-1v0C38.83,2.13,38.07,1.07,38.62.36Z"/><path class="cls-36" d="M59.12,15.26c.21,1.55,2.07,2.08,2.22,3.67l-.81,0a.72.72,0,0,1-.79.25A2.9,2.9,0,0,1,58,17.81a3.25,3.25,0,0,1-.22-.92,3.77,3.77,0,0,1,.07-1,2.31,2.31,0,0,1,.47-.82A.65.65,0,0,1,59.12,15.26Z"/><path class="cls-37" d="M6.54,52.91c.6-2.41,1.41.06,2.11-.1.78.65.5,1.41.22,2.18l-.23.18C7.37,55,7.11,53.78,6.54,52.91Z"/><path class="cls-38" d="M28.58,5.53a1.76,1.76,0,0,1,.72-2.22,1.81,1.81,0,0,1,.65.15c.49.74,1,1.48,1.46,2.21a2.07,2.07,0,0,1-1.59,1,1.54,1.54,0,0,1-.93-.27A1.29,1.29,0,0,1,28.58,5.53Z"/><path class="cls-39" d="M46.75,64.76,46,64.59c-.58-.47-1.79-.19-1.74-1.42,0-.88.68-1.17,1.4-1.37a2.66,2.66,0,0,1,1.68.32,1.56,1.56,0,0,1,.56,1c0,.56,0,1.18-.69,1.42A.69.69,0,0,0,46.75,64.76Z"/><path class="cls-40" d="M67.12,38.8c-1.18.23-2.1.06-2.18-1.42l.29-.35a5.05,5.05,0,0,1,1.67-.67,1.87,1.87,0,0,1,.88.12l.78,1.74A1.69,1.69,0,0,1,67.12,38.8Z"/><path class="cls-41" d="M61.31,58c-.2-1-.41-2-.61-3a6.25,6.25,0,0,0,.8-1,1.1,1.1,0,0,1,.77-.32C63.23,55.33,62.23,56.64,61.31,58Z"/><path class="cls-42" d="M29.85,66.92c.53-.81.92-2,2.23-1a3.16,3.16,0,0,1-.49,2.26L29.86,69a1.82,1.82,0,0,1-.42-.65,2.1,2.1,0,0,1,0-.79A1.88,1.88,0,0,1,29.85,66.92Z"/><path class="cls-43" d="M42.38,68.32c-.55-.87-.63-1.74.57-1.91s1.73.59,1.44,1.82Z"/><path class="cls-44" d="M3.6,44.66c1,.07,1.62.53,1.63,1.62-.82,1.06-1.51.31-2.21-.17A1.59,1.59,0,0,1,3.6,44.66Z"/><path class="cls-45" d="M56.83,60.27c0-.26.09-.52.14-.77l2.27.1a1.7,1.7,0,0,1-.73,1.95l-1.41,1-.41-.2a2,2,0,0,1-.3-1.31A1.45,1.45,0,0,1,56.83,60.27Z"/><path class="cls-46" d="M14.58,63a1.1,1.1,0,0,1-1.11-1.12c0-.6.45-.77.93-.76a.91.91,0,0,1,.88.9A.82.82,0,0,1,14.58,63Z"/><path class="cls-47" d="M3,33.1c-.4,1.8-1.82,1.27-3,1.35C-.09,32.73,1.16,33,2.17,33Z"/><path class="cls-48" d="M46.1,67.54a1.71,1.71,0,0,1,.62-2.14,1.31,1.31,0,0,0,.55.13,1.1,1.1,0,0,1,.82.75,4.36,4.36,0,0,0,0,.52,4.52,4.52,0,0,1-.71.8Z"/><path class="cls-49" d="M32.41,69.88c.13-.55.39-.76.77-.73.66,0,1.11.36,1.06,1.09,0,.36-.2.69-.67.57S32.5,70.42,32.41,69.88Z"/><path class="cls-50" d="M11.72,58h.7l.75.71L12,59.55c-.47.33-1,.83-1.44.09-.27-.5.37-.77.69-1.08A5.85,5.85,0,0,0,11.72,58Z"/><path class="cls-51" d="M56.18,58.73c0,.5,0,1,0,1.5,0,.14,0,.28,0,.42a3.15,3.15,0,0,1-.39,1.65l-.33.28a2.18,2.18,0,0,0-.62-.22A2.05,2.05,0,0,1,54,60.52a4.3,4.3,0,0,1,.14-1.07,2.4,2.4,0,0,1,.58-.9A1.26,1.26,0,0,1,56.18,58.73Z"/><path class="cls-52" d="M19.71,61.71l-1.34-.19a3.67,3.67,0,0,1-.11-2.05l.38-.3a1.59,1.59,0,0,1,1.37.21C20.85,60.28,20.88,61.07,19.71,61.71Z"/><path class="cls-53" d="M2.93,28.61,2.21,30c-1,.09-1.77-.37-1.33-1.4S2.24,28.3,2.93,28.61Z"/><path class="cls-54" d="M5,28.48a1.89,1.89,0,0,1-1.48-.74,1.61,1.61,0,0,1,.71-1.53l.85.16c.37.23.83.35,1,.85A1.27,1.27,0,0,1,5,28.48Z"/><path class="cls-55" d="M31.59,68.21c-.27-.85-.49-1.69.49-2.26l.75,0L33,67.81C32.65,68.41,32.11,68.27,31.59,68.21Z"/><path class="cls-56" d="M2.66,42.92c.07.46,0,.79-.4.89a.78.78,0,0,1-1-.64.69.69,0,0,1,.43-.83C2.25,42.12,2.45,42.6,2.66,42.92Z"/><path class="cls-57" d="M25.83,68.06a.94.94,0,0,1,1,.83.58.58,0,0,1-.58.72.93.93,0,0,1-1-.8C25.14,68.44,25.45,68.17,25.83,68.06Z"/><path class="cls-58" d="M37.19,69.78c-.71,1.16-1.4.71-1.79-.17s.34-1.18,1.11-1.24C36.93,68.75,36.76,69.41,37.19,69.78Z"/><path class="cls-6" d="M60.58,53.61l-1.38.8a1.26,1.26,0,0,1-.41-1.36,2.63,2.63,0,0,1,.53-.86l.42-.29a.82.82,0,0,1,.89.27l1.64,1.41a1.64,1.64,0,0,0-.38,0A.83.83,0,0,1,60.58,53.61Z"/><path class="cls-59" d="M38.68,67.57a2,2,0,0,1,2.21.78C39.11,69.44,39,69.42,38.68,67.57Z"/><path class="cls-60" d="M18.26,59.47,17,59.72l-.22-.28c-.31-1.28.56-1.84,1.42-2.41a1.71,1.71,0,0,1,1.45,0,1.1,1.1,0,0,1,.35.87c-.22.93-1.19,1-1.73,1.62Z"/><path class="cls-61" d="M19.72,65.4c.18-1.92,1.09-1.33,2-.61C21.39,66.05,20.6,65.87,19.72,65.4Z"/><path class="cls-62" d="M53.28,8.66c0-.27-.05-.54-.07-.82a.52.52,0,0,1,.2-.76l1.32.78c.49.25,1.12.44,1,1.14,0,.36-.5.37-.84.35l-.38,0a1.88,1.88,0,0,1-.73-.19A3,3,0,0,1,53.28,8.66Z"/><path class="cls-63" d="M25.54,4.22c0-.51-.05-1-.07-1.52.76-.42,1.53-.72,2.25.08A2.06,2.06,0,0,1,25.54,4.22Z"/><path class="cls-64" d="M52.54,66.14c0-.59-.09-1.24.62-1.56a.63.63,0,0,1,.87.07C54.67,66,54.61,66.08,52.54,66.14Z"/><path class="cls-65" d="M4,51.1c0-.54-.39-1.17.33-1.51a.62.62,0,0,1,.56.24c.33.77-.39,1-.78,1.33Z"/><path class="cls-66" d="M67.12,38.8c.29-.67.89-.56,1.44-.58-.25,1.56-.25,1.56-1.39,1.34C67.15,39.31,67.13,39.05,67.12,38.8Z"/><path class="cls-67" d="M67.78,36.48a2.11,2.11,0,0,0-.54.22c-1.18.57-1.83.23-1.87-1.13l.27-.51a2.17,2.17,0,0,1,2.18,1A.91.91,0,0,0,67.78,36.48Z"/><path class="cls-68" d="M58.51,61.55a1.87,1.87,0,0,1,.73-1.95,2,2,0,0,1,1.24,1.15c-.5.69-1,1.33-2,.81Z"/><path class="cls-69" d="M18.18,63.85c0,.25,0,.51,0,.76-.76,0-1.38-.2-1.35-1.09s.7-1,1.41-1.1c0,.27,0,.54,0,.82-.18.12-.24.26-.19.4S18.13,63.85,18.18,63.85Z"/><path class="cls-3" d="M50.26,63.72l.78,1.8a1.53,1.53,0,0,1-2,.06c-.06-.46-.11-.93-.16-1.39l.08-.45A1.07,1.07,0,0,1,50.26,63.72Z"/><path class="cls-70" d="M57.61,64.05l0,.56c-.55.72-1,1.72-2.07.57a1.8,1.8,0,0,1,.61-1.36C56.71,63.52,57.21,63.45,57.61,64.05Z"/><path class="cls-71" d="M49.08,65.58a2.93,2.93,0,0,1,2-.06l0,1.33h0a.93.93,0,0,1-1.42,0h0A3.11,3.11,0,0,1,49,66Z"/><path class="cls-72" d="M29.88,68.3a2.89,2.89,0,0,1,0,.72c-.8.14-1.66.35-2-.69a.91.91,0,0,1,.71-1.3C29,67.44,29.44,67.87,29.88,68.3Z"/><path class="cls-73" d="M38.62.36C38.28,1.13,40,2.44,38,2.75,38,1.9,37.8,1,38.62.36Z"/><path class="cls-45" d="M55.57,65.18a2.5,2.5,0,0,0,2.07-.56C57,66.39,56.81,66.45,55.57,65.18Z"/><path class="cls-45" d="M58.47,61.56l2-.81C60.07,61.67,59.91,63.22,58.47,61.56Z"/><path class="cls-74" d="M60.63,52.17c-.24,0-.47,0-.7,0-1-1-.82-2-.07-3,1,.5.52,1.59.88,2.34A2,2,0,0,1,60.63,52.17Z"/><path class="cls-75" d="M2.92,47.06,2.2,49.18H1.85l-.34,0c-.83-1.08-.05-1.61.72-2.14A5.32,5.32,0,0,1,2.92,47.06Z"/><path class="cls-5" d="M2.23,47a3.24,3.24,0,0,0-.72,2.14C.25,47.93.63,47.26,2.23,47Z"/><path class="cls-76" d="M8,9.38c.48.06,1,.07,1.12.67a.58.58,0,0,1-.32.51c-.4.13-.65-.16-.85-.48C8,9.85,8,9.61,8,9.38Z"/><path class="cls-77" d="M53.41,7.08c-.07.26-.14.51-.2.76-1,.12-1.34-.42-1.36-1.31A1.08,1.08,0,0,1,53.41,7.08Z"/><path class="cls-78" d="M50.68,68.74a2,2,0,0,1-.31.56c-.22.19-.48.11-.52-.17a.66.66,0,0,1,.26-.54C50.24,68.52,50.49,68.68,50.68,68.74Z"/><path class="cls-79" d="M29.88,68.3c-.95.12-1.32-.39-1.33-1.27a2.23,2.23,0,0,1,.66-.22l-.05.23a1.34,1.34,0,0,1,.73.59A.82.82,0,0,1,29.88,68.3Z"/><path class="cls-45" d="M59.62,64.21c-.19.08-.39.26-.55.23a.28.28,0,0,1-.14-.51,2.16,2.16,0,0,1,.54-.3Z"/><path class="cls-45" d="M57.61,64.05l-1.43-.23c0-.22,0-.45,0-.67a.62.62,0,0,1-.24-.47c0-.19,0-.28.07-.28a.68.68,0,0,1,.78-.08,3.47,3.47,0,0,0,.29.25Z"/><path class="cls-80" d="M54.73,60.28c0,.69.09,1.38.13,2.08l-.31.1-.33,0-.43-.17a2.12,2.12,0,0,1-.32-.88,1.81,1.81,0,0,1,.47-1.31A.58.58,0,0,1,54.73,60.28Z"/><path class="cls-81" d="M3.66,24.14l0,1.39-1.26,0C2.57,24.82,2.64,24,3.66,24.14Z"/><path class="cls-82" d="M41.73,2.82a1.49,1.49,0,0,1,1.38.62l-.18.44a1.1,1.1,0,0,1-1.28.34.67.67,0,0,1-.24-.53c0-.21.05-.31.1-.31A1.05,1.05,0,0,1,41.73,2.82Z"/><path class="cls-73" d="M41.51,3.38l.15.85-.17.44a1.54,1.54,0,0,1-.75.5l-.46-.1c-.53-.47-.71-1-.17-1.58L41,3.44Z"/><path class="cls-82" d="M43.11,3.44a5.61,5.61,0,0,0,.71,0,1.87,1.87,0,0,1,0,1.52l-.37.2a.85.85,0,0,1-.67-.41A1.26,1.26,0,0,1,43,3.59Z"/><path class="cls-24" d="M43.78,5l1.36-.19.26.43c-.27,1-.91.93-1.65.62a.67.67,0,0,1,.07-.93Z"/><path class="cls-8" d="M57.64,9.34c.52-.66,1-.75,1.44.08a1,1,0,0,1-1.39,0Z"/><path class="cls-83" d="M57.69,9.4l1.39,0a3,3,0,0,1,0,.67C58.51,10.1,58,10,57.69,9.4Z"/><path class="cls-1" d="M62.76,23.37a1.29,1.29,0,0,1,0-.73c.34.09.9-.12.82.51C63.59,23.26,63.06,23.3,62.76,23.37Z"/><path class="cls-16" d="M68.6,32.22V30.76C69.39,31.25,69.36,31.74,68.6,32.22Z"/><path class="cls-27" d="M59.19,58.05c-.06.21-.12.43-.17.64a1.92,1.92,0,0,1-1.42-.58l.15-.17A1,1,0,0,1,59.19,58.05Z"/><path class="cls-3" d="M47.21,64.52c.09-.43.19-.87.28-1.3L48,63l.39.35-.15.51A1,1,0,0,1,47.21,64.52Z"/><path class="cls-3" d="M49.65,66.87l1.42,0C50.62,67.7,50.14,67.66,49.65,66.87Z"/><path class="cls-84" d="M37.19,69.78a1.35,1.35,0,0,1-.68-1.41C37.28,68.58,37.29,69.15,37.19,69.78Z"/><path class="cls-4" d="M13.08,6.38c-.22.26-.43.53-.64.8C12.65,6.91,12.86,6.64,13.08,6.38Z"/><path class="cls-4" d="M12.44,7.19c0,.22,0,.43,0,.65a.4.4,0,0,1-.6.18l-.16-.18Z"/><path class="cls-85" d="M59.85,19c.23,0,.46,0,.69,0,0,.24,0,.49,0,.73h-.65a.55.55,0,0,1-.15-.47C59.77,19.07,59.8,19,59.85,19Z"/><path class="cls-85" d="M61.45,21.11a1,1,0,0,1-.78-.95A1.23,1.23,0,0,1,61.45,21.11Z"/><path class="cls-85" d="M62.11,21.89a1,1,0,0,1-.72-.84A1,1,0,0,1,62.11,21.89Z"/><path class="cls-86" d="M54,63.15l-.36,0-.37,0c-.2-.58.06-.73.58-.66a2.38,2.38,0,0,1,.37-.06C54.15,62.68,54.07,62.92,54,63.15Z"/><path class="cls-80" d="M56.22,62.49a4.85,4.85,0,0,0,0,.66l-.72-.57a1.22,1.22,0,0,1,0-.38A.65.65,0,0,1,56.22,62.49Z"/><path class="cls-87" d="M48.2,63.84l.15-.72a.57.57,0,0,1,.54.59.64.64,0,0,1,0,.47Z"/><path class="cls-86" d="M54,64.65l-.87-.07.78-.52A5.58,5.58,0,0,1,54,64.65Z"/><path class="cls-3" d="M48.09,66.28l-.82-.75A.81.81,0,0,1,48.09,66.28Z"/><path class="cls-3" d="M49,66l.65.84A.8.8,0,0,1,49,66Z"/><path class="cls-3" d="M47.43,67.6l.71-.8A.77.77,0,0,1,47.43,67.6Z"/><path class="cls-73" d="M40.87,2.74a1.12,1.12,0,0,1-.63-1Z"/><path class="cls-73" d="M38,2.77c0,.23,0,.46,0,.69a.85.85,0,0,1-.69.41,1,1,0,0,1,0-.39Z"/><path class="cls-88" d="M60,25.54c1.26.24,3.59-.47,2.05,2.27-.42.75.08.69.47.81,2.65.77,1.07,1.82.17,2.81a.5.5,0,0,1-.74.2c-.44-.55-1.06-.44-1.65-.47a1.17,1.17,0,0,1-.9-.85,2.2,2.2,0,0,1,0-.81,3.86,3.86,0,0,0,.19-1.11,3.4,3.4,0,0,0-.24-.7c-.17-.35-.34-.7-.48-1.06a1.82,1.82,0,0,1-.09-.8,1.06,1.06,0,0,1,.54-.6A.56.56,0,0,1,60,25.54Z"/><path class="cls-89" d="M60,25.54l-.88.07,0,0c0,.23,0,.46,0,.69a1.25,1.25,0,0,1,.09,1.55c-1.73.11-2.12-1.31-2.76-2.45a2.23,2.23,0,0,1,.52-2.2,1.75,1.75,0,0,1,2.19.11,1.64,1.64,0,0,1,1.41.78Z"/><path class="cls-90" d="M62.77,32.23l1.41.11c.59.26,1.19.51.78,1.35h0a6.31,6.31,0,0,0-.52.62,2.43,2.43,0,0,1-1.21,1.07,1.23,1.23,0,0,1-.79-.21A13.13,13.13,0,0,0,61,34.29a2.27,2.27,0,0,1-.66-.57,1.74,1.74,0,0,1-.14-.87,1.19,1.19,0,0,1,.88-.89C61.66,31.94,62.19,32.29,62.77,32.23Z"/><path class="cls-91" d="M65,33.69l-.78-1.35c.92-.38,2.07-1.54,2.28.65A1.71,1.71,0,0,1,65,33.69Z"/><path class="cls-92" d="M62.77,32.23c-.44.7-.91.91-1.4,0a.82.82,0,0,1,.68-.79,1.56,1.56,0,0,1,.68-.05C62.75,31.7,62.76,32,62.77,32.23Z"/><path class="cls-93" d="M14.49,10.05l.75-.74a.79.79,0,0,1,.83-.12c.3.52,0,1.18.41,1.67A4,4,0,0,1,17,12.48a1.09,1.09,0,0,1-.58.91c-.28-.11-.4,0-.35.3a.25.25,0,0,0,.23.22,1.05,1.05,0,0,1-.46.92,4.07,4.07,0,0,1-.66.33,2,2,0,0,0-.86.61,6.29,6.29,0,0,0-.07,1.15c-.24,1.13-1.62,1.19-2,2.21a5.28,5.28,0,0,1-.38.84,2.17,2.17,0,0,1-1.13.85A1.52,1.52,0,0,1,9.07,20a4.59,4.59,0,0,1-.28-1,4.68,4.68,0,0,1,0-1,2.89,2.89,0,0,1,1.63-2.24c1.54-.07-.2-.92.28-1.23a3.35,3.35,0,0,1,.66-1.2l.53-.75.24-.41A3.86,3.86,0,0,1,14.49,10.05Z"/><path class="cls-94" d="M12.46,13.12l-.79.66c-1.23.9-2-.29-2.87-.71.62-1.91,2.45-3.09,3-5.05l.6-.18c1,.06,1.6.49,1.54,1.58-.23.15-.29.28-.21.41s.16.18.25.18a2.19,2.19,0,0,1,.51,0l-2,3.06-.42-.43A1.68,1.68,0,0,0,12.46,13.12Z"/><path class="cls-95" d="M19.06,4.33l2.1,1.32c.71,1,1.45,1,2.24.1l0,0c.21,0,.43,0,.64,0,.9.74,1.41,1.53.4,2.57a2.63,2.63,0,0,1-1.37.31A19.06,19.06,0,0,0,21,8.22a1.49,1.49,0,0,1-.76-.3c-.37-.4-.68-.86-1.06-1.25s-.51-.64-.79-.94Z"/><path class="cls-96" d="M16.08,9.44l-.84-.13c.38-.67,1-1.23.86-2.12h0l.54-.12c.5-.31,1.22-.14,1.59-.74h0c1-.25,1.16.43,1.18,1.2A2.82,2.82,0,0,1,18,9.05C17.39,9.39,16.81,9.78,16.08,9.44Z"/><path class="cls-97" d="M19,7.9a1.67,1.67,0,0,0-.81-1.57,1.06,1.06,0,0,1,.18-.6,1.44,1.44,0,0,1,1.39.76c.34.37.28,1,.67,1.3l0,.26a1.22,1.22,0,0,1-.28,1.27l-.37.28a1.3,1.3,0,0,1-.89-.08,1.58,1.58,0,0,1-.35-.83A1.27,1.27,0,0,1,19,7.9Z"/><path class="cls-98" d="M15.38,6.5c-.42.07-.83.47-1.25.12a.63.63,0,0,1,0-.61c.62-.46,1-.19,1.3.47Z"/><path class="cls-97" d="M18.22,6.34c-.3.75-.91.8-1.59.74C17,6.44,17.59,6.38,18.22,6.34Z"/><path class="cls-4" d="M15.41,6.48l.68.72h0l-.72-.69Z"/><path class="cls-99" d="M14,10c-.33,0-.46-.15-.34-.4,0-.09.2-.13.3-.19A2.93,2.93,0,0,0,14,10Z"/><path class="cls-100" d="M40.73,64.79l-1.08.79-.42-.08a2.21,2.21,0,0,1-1-.75l-.33-.12c-.3-.23-.7-.33-.88-.71a1.35,1.35,0,0,1,0-.77,5,5,0,0,1,.62-1,5.19,5.19,0,0,0,.47-1.08,3,3,0,0,1,.35-.77A1.05,1.05,0,0,1,39.2,60a5.68,5.68,0,0,1,2.33,1.31,1.42,1.42,0,0,1,.38.75c-.1,1.23.92.29,1.29.66.79.45,1.33,1,.57,1.89a.5.5,0,0,1-.5.23l-.42-.09a6.45,6.45,0,0,0-1.7,0Z"/><path class="cls-101" d="M41.53,62.36c0-.2.07-.4.1-.6a3,3,0,0,1,4.19-1,1.25,1.25,0,0,1,.27,1.61c-1.83.69-1.84.71-.09,2.26l-2.23,0c0-1.09-.64-1.46-1.55-1.6A1.09,1.09,0,0,1,41.53,62.36Z"/><path class="cls-102" d="M42.35,65.17a1.3,1.3,0,0,1-1.62-.38l.38-.29a1.45,1.45,0,0,1,1.22,0,.47.47,0,0,1,.17.48Q42.43,65.17,42.35,65.17Z"/><path class="cls-102" d="M38,66a3.55,3.55,0,0,1,.08-.73.92.92,0,0,1,1.17,0l.4.29C39.28,66.39,38.66,66.3,38,66Z"/><path class="cls-100" d="M42.35,65.17c0-.19,0-.38,0-.56l.44-.16.49.39Z"/><path class="cls-103" d="M8.8,13.07c1.26-1,1.78,1,2.87.71l-.69.76a.6.6,0,0,1-.53.38c-.43-.11.13-.4-.21-.05-.17.18,0,.35.26.34a1.68,1.68,0,0,1,.53.89c-.59.66-1.63,1-1.55,2.14-.22.27-.56.29-.84.42A.9.9,0,0,1,9.5,19v.74a2.23,2.23,0,0,1-1.85.82H7.23c-1.06,0-1.32-1-2-1.52A1.25,1.25,0,0,1,6,17.5a1.41,1.41,0,0,0,.76-2.09A4.89,4.89,0,0,0,8.8,13.07Z"/><path class="cls-104" d="M6.84,12.84c.08,0,.19,0,.22,0a.37.37,0,0,1,.06.28c-.14.29-.29.28-.37,0C6.73,13,6.81,12.93,6.84,12.84Z"/><path class="cls-105" d="M6,47.12l1.89-.94a1.77,1.77,0,0,1,1.32-.42,3.55,3.55,0,0,1,1.31.6,2.34,2.34,0,0,1,.62.74,1,1,0,0,1-.24.9,3.33,3.33,0,0,1-.86.44c-.94.2-1.74.78-2.68,1C6.11,49.1,5.43,48.47,6,47.12Z"/><path class="cls-106" d="M8.87,55c-.07-.73-.15-1.45-.22-2.18,0-.45,0-.89.08-1.34a1.35,1.35,0,0,1,.94-1,.84.84,0,0,1,.82.35c.11.46.07,1,.46,1.33V53.6C9.88,53.47,9.58,54.55,8.87,55Z"/><path class="cls-107" d="M7.31,49.42c.38-1.46,1.41-1.84,2.76-1.66a.94.94,0,0,1,.56.75,1.86,1.86,0,0,1-1,1.6,1.19,1.19,0,0,0-1.74.6A1.13,1.13,0,0,1,7.31,49.42Z"/><path class="cls-108" d="M7.88,50.71c0-1.12.38-1.76,1.62-1.37.53.2.83.52.65,1.14l-1.42,1Z"/><path class="cls-109" d="M60.71,44.1l.5.68c-.34.95.82,2.71-1.41,2.64-1.06-.21-1.44-1-1.67-1.94a1.63,1.63,0,0,1,.22-1.06C59.06,43.69,59.8,43.25,60.71,44.1Z"/><path class="cls-74" d="M58.46,45.44c.81.41.84,1.36,1.35,2a3.37,3.37,0,0,1,0,.44,2.11,2.11,0,0,0-.63.52l-.08.83c.65.71.24,1.57.33,2.37a1,1,0,0,1-.51.78,1.66,1.66,0,0,1-1.21-.79,4.14,4.14,0,0,1-.3-3.42,6.28,6.28,0,0,1,.63-2.4Z"/><path class="cls-110" d="M59.2,52.06c0-1-.05-1.9-.07-2.85l.73,0c0,1,0,2,.07,3h0C59.61,52.46,59.37,52.43,59.2,52.06Z"/><path class="cls-111" d="M62.81,48.42c-.1.52.07,1.19-.71,1.32-.08,0-.27-.1-.27-.16-.06-.71.47-.92,1-1.17Z"/><path class="cls-112" d="M59.21,48.38c0-.39.18-.64.63-.52Z"/><path class="cls-113" d="M13.18,51.4a3.85,3.85,0,0,0-.1-.68,2.14,2.14,0,0,1,.53-2.39c.71-1.21,2.68.17,3.11-1.56a2.74,2.74,0,0,0-2.63.37,7.38,7.38,0,0,0-1.32,1.24,1.08,1.08,0,0,1-.82.25c-.7-.3-.62-1-.68-1.54a2,2,0,0,1,0-.92,13,13,0,0,1,.47-1.32,2.85,2.85,0,0,1,.8-1.14A4,4,0,0,1,15,43c1.2,0-.25-.53.1-.72a1.39,1.39,0,0,1,.5-.75c3.77.36,5.88,4.78,4.36,9,.6.52.9-.27,1.35-.31,1.29-3.62,1.63-3.67,5.15-.78a3.22,3.22,0,0,1-.36,1.88,8.62,8.62,0,0,1-.91,1.91l-.26.27c.43.23-.22-.08.29-.08a1.47,1.47,0,0,1,.8.6,12.17,12.17,0,0,0,1,1.29,4,4,0,0,1,.51.71,2.7,2.7,0,0,1,.36,2.21,2,2,0,0,1-1.08.92,1.69,1.69,0,0,1-1.38-.24,1.56,1.56,0,0,1-.27-1.32c0-.31.53-.36.47-.41-.28-.26-.63,0-1,0a3.2,3.2,0,0,1-1.3-.24c-.79-.41-1.46-1-2.26-1.38A14.29,14.29,0,0,0,19.47,55a3.91,3.91,0,0,1-.79-.4,4.83,4.83,0,0,0-1.76-1.16,8.27,8.27,0,0,1-.83-.19,8.33,8.33,0,0,1-1.18-.53,8,8,0,0,1-1.15-.63l-.35-.28C13.34,51.65,13.26,51.53,13.18,51.4Z"/><path class="cls-114" d="M13.15,46.94c1.32-.92,2.57-2.3,4.32-.76-.38,1.94-2.55,1-3.42,2.22-.32.77-.65,1.54-1,2.32a1.88,1.88,0,0,1-1.46-.7,2,2,0,0,1,.61-1.66l.23.07C12.88,48,12.72,47.34,13.15,46.94Z"/><path class="cls-115" d="M15.35,58.1a2.68,2.68,0,0,1-1.43-1.49c0-.14,0-.27,0-.4a3.07,3.07,0,0,1,.43-.69,3.83,3.83,0,0,0,.29-.28,2.65,2.65,0,0,1,.72-.43l.42,0,.4.17.3.33a5,5,0,0,1,.63,1.21,2.76,2.76,0,0,1,.07,1C16.84,58.38,16.26,58.73,15.35,58.1Z"/><path class="cls-116" d="M15.35,58.1a1.43,1.43,0,0,0,1.48-1.55,1,1,0,0,1,1.27.35c.06.15.11.3.16.46-.5.69-1,1.39-1.51,2.08C15.78,59.53,15.36,59,15.35,58.1Z"/><path class="cls-117" d="M12.23,48.36A1.38,1.38,0,0,1,11.62,50a2.31,2.31,0,0,1-.62-.18c-.48-.31-.44-.79-.4-1.27a1.33,1.33,0,0,1,.29-.88,5.81,5.81,0,0,0,0-.72l.39-.28.37.31A1.47,1.47,0,0,0,12.23,48.36Z"/><path class="cls-118" d="M13.9,53.59a7.71,7.71,0,0,1-1.35-1c-.74-.85-.26-1.15.63-1.17l0,0c.28.32.7.43,1,.74a1.39,1.39,0,0,1,.2.8c0,.13-.08.26-.13.4Z"/><path class="cls-119" d="M13.92,56.61c-1.26-1,.07-2,0-3l0,0,.3-.33a1.07,1.07,0,0,1,.76.42A1.52,1.52,0,0,1,15,55a1.75,1.75,0,0,1-.36.81h0c-.25.24-.56.42-.7.77Z"/><path class="cls-120" d="M12.29,56.47c-1.55-1.33-1.55-1.39.11-2.12Z"/><path class="cls-121" d="M10.8,48.61c.07.41.13.82.2,1.23l-.06.85a.5.5,0,0,1-.66.21c0-.14-.09-.28-.13-.42L9.5,49.34l.71-.87C10.49,48.17,10.69,48.21,10.8,48.61Z"/><path class="cls-122" d="M10.28,50.9a.68.68,0,0,1,.66-.21v1.44C10.38,51.91,10.28,51.43,10.28,50.9Z"/><path class="cls-123" d="M53.28,8.66a5.42,5.42,0,0,1,.7.14,1.21,1.21,0,0,1,.64.62l.31-.07c-.1.61-.22,1.22.65,1.36a1.84,1.84,0,0,1,1.48.85,1.18,1.18,0,0,1-.34,1.73,1.29,1.29,0,0,1-1.26-.15c-.36-.12.23-.74-.31-.7s.21-.13-.06.28a.85.85,0,0,1-.46.61,1.56,1.56,0,0,1-.83-.08,2.53,2.53,0,0,1-.9-.94,9.28,9.28,0,0,1-.6-1.7c0-.14,0-.29-.08-.44s0-.3,0-.46l.29-.34Z"/><path class="cls-124" d="M56.18,13a1.94,1.94,0,0,0,.88-1.48c.64.56,1.68.63,2,1.62a2.6,2.6,0,0,0-.62,2.2c0,.27-.08.54-.13.82a1.36,1.36,0,0,1-.81.24,2.48,2.48,0,0,1-.82-.31,2.51,2.51,0,0,1-.86-1,2.41,2.41,0,0,1-.11-1.33A1.87,1.87,0,0,1,56.18,13Z"/><path class="cls-125" d="M58.41,15.38c-1.11-1.11-1.18-1.92.62-2.2.07.18.14.36.2.55,0,.51-.07,1-.11,1.53A1.93,1.93,0,0,0,58.41,15.38Z"/><path class="cls-126" d="M7.6,24.87c-.18-1.33-1.91-.64-2.25-1.76.68-1.5,1.87-.78,2.92-.7a4.69,4.69,0,0,0,2.15.65,3.85,3.85,0,0,1,1.75.57,1.54,1.54,0,0,1,.58.73c.14,1.81-1.32,1.42-2.29,1.71a4.3,4.3,0,0,1-1,0A2.37,2.37,0,0,1,7.6,24.87Z"/><path class="cls-127" d="M7.6,24.87l2,.83c.56.74.24,1.54.15,2.33s.05,1.62-.11,2.42C6,31.72,7.36,28.33,6.49,27c0-.16-.1-.33-.16-.49a.91.91,0,0,1,.26-.91Z"/><path class="cls-103" d="M8.76,23.44a3.26,3.26,0,0,0-3.42-.33c0-.51.14-.95.68-1.1A1.42,1.42,0,0,0,7.23,20.5l.21-.13a3.06,3.06,0,0,1,3,2c0,.57-.44.84-.81,1.16A.72.72,0,0,1,8.76,23.44Z"/><path class="cls-128" d="M6.59,25.61c0,.26,0,.52-.08.78l-.36.2-.31-.26Z"/><path class="cls-128" d="M5.76,27.1l-.65-.73.73,0,0,0A.46.46,0,0,1,5.76,27.1Z"/><path class="cls-129" d="M37.27,3.87,38,3.46l2.15,0a1.45,1.45,0,0,0,.69,1.39c.91.74,1.5,1.52.4,2.57a2.69,2.69,0,0,1-1,.14,7.25,7.25,0,0,0-3.64.21c-.28.07-.57.11-.86.16a4.18,4.18,0,0,0-1.18.43A4.24,4.24,0,0,1,33.41,9a2,2,0,0,1-.9,0,1.71,1.71,0,0,1-.67-.61A1.69,1.69,0,0,1,31.89,7c.3-.49.89-.81.87-1.49.77-.88,1.49,0,2.23.07A6.83,6.83,0,0,0,37.27,3.87Z"/><path class="cls-130" d="M32.76,5.55c1.24,1.19.5,1.55-.69,1.72-.47.43-.22,1.19-.73,1.6a4.71,4.71,0,0,1-1.21.65c-.73.27-1.42.62-2.15.91a3.31,3.31,0,0,1-.94.16,1.91,1.91,0,0,1-.88-.37L26,9.76V9.27a5.64,5.64,0,0,1,.67-1.85,2.83,2.83,0,0,1,2.68-.77l2.08-1Z"/><path class="cls-131" d="M60.71,44.1a4.16,4.16,0,0,0-2.32.67.6.6,0,0,1-.64.29c-.77-.59-.51.32-.75.52a.9.9,0,0,1-.84-.09,1.87,1.87,0,0,1-.24-2.24,4.68,4.68,0,0,1,2.82-1.7c.24,0,.66.2.72-.18s-.41-.35-.68-.48a7,7,0,0,1-2.42-2.3,1.22,1.22,0,0,1-.13-1.42,3.3,3.3,0,0,1,2.86-.72,2.59,2.59,0,0,1,.8,1.18c.21.83.87,1.14,1.59,1.39a2,2,0,0,1,1.19,1.39,5.06,5.06,0,0,0,.17.67c.22.16.29.32.23.49s-.14.25-.21.25C62.54,43,61.3,43.22,60.71,44.1Z"/><path class="cls-132" d="M64.12,41.09c.06-.55,0-1.28.75-1.31s.72.69.77,1.25l-.69.84a.69.69,0,0,1-.83.05A.68.68,0,0,1,64.12,41.09Z"/><path class="cls-6" d="M64.12,41.09a.53.53,0,0,1,.12.58.6.6,0,0,1,.22.53c0,.19-.07.29-.12.29l-1.48-.67c0-.25,0-.49,0-.74Z"/><path class="cls-133" d="M64.34,42.49c0-.27-.07-.54-.1-.82l.71.2Z"/><path class="cls-134" d="M29.33,6.65c-.65.7-1.88.17-2.39,1.16-.34.47-.23,1.14-.66,1.57h0c-1.42.62-2.63.9-2.22-1.42.88-.76-.16-1.52,0-2.28,1.53-1.5,2.62-.18,3.79.61a1.13,1.13,0,0,1,1.3.09Z"/><path class="cls-135" d="M29.15,6.37l-1.3-.09.73-.75C28.9,5.72,29.22,5.91,29.15,6.37Z"/><path class="cls-136" d="M23.4,5.75l-.34-.36.36.33Z"/><path class="cls-137" d="M5.18,30.72a2.22,2.22,0,0,1,0-.63c.21-.28.44-.54.65-.82h0a.85.85,0,0,1,.9-.17,2.4,2.4,0,0,1,1,1.66,1.65,1.65,0,0,1-.19.95,2,2,0,0,1-1.19.77.94.94,0,0,1-.78-.42C5.43,31.6,5.5,31.11,5.18,30.72Z"/><path class="cls-138" d="M4.4,33.75c0-.79-.15-1.63.62-2.19.52,0,.57.41.75.73h0A1.13,1.13,0,0,1,6,33.82,1.24,1.24,0,0,1,4.4,33.75Z"/><path class="cls-139" d="M6.57,29.23a4.46,4.46,0,0,0-.73,0L5,28.48c.25-.46.49-.92.73-1.38l.12-.73.63,0h0A2.46,2.46,0,0,1,6.57,29.23Z"/><path class="cls-140" d="M3.57,35.11a.94.94,0,0,1,.16-.59,2.21,2.21,0,0,0,.61-.21l.38.24a2.82,2.82,0,0,1,.71,1.67.92.92,0,0,1-.48.72,1.82,1.82,0,0,1-1.33-.21l0,0A1.42,1.42,0,0,1,3.57,35.11Z"/><path class="cls-141" d="M5.77,32.29,5,31.56c.06-.28.11-.56.16-.84A1.58,1.58,0,0,1,5.77,32.29Z"/><path class="cls-142" d="M3.66,33l-.73,0c.09-.3.18-.86.27-.86C3.84,32.07,3.58,32.63,3.66,33Z"/><path class="cls-141" d="M4.4,33.75l1.33-.25a.73.73,0,0,1,.22.61c0,.22-.08.33-.13.33a1,1,0,0,1-1.41.06l-.07-.19A2.09,2.09,0,0,0,4.4,33.75Z"/><path class="cls-53" d="M5.8,29.27l-.65.82Z"/><path class="cls-143" d="M37.23,63.67a.8.8,0,0,1,.64,1c-1,.69-1.87,1.21-2-.65A1.07,1.07,0,0,1,37.23,63.67Z"/><path class="cls-144" d="M34.94,63.82a5.12,5.12,0,0,0-.67.19l0-.11c-1-.68-1.27-1.41-.13-2.22a1,1,0,0,1,1.21.48,2.17,2.17,0,0,1,.12,1A1.24,1.24,0,0,1,34.94,63.82Z"/><path class="cls-102" d="M34.94,63.82a5.66,5.66,0,0,0,.15-.59,1.48,1.48,0,0,1,2.15-.08c0,.17,0,.35,0,.52L35.84,64Z"/><path class="cls-145" d="M39.25,65.29H38.08a.88.88,0,0,1,.12-.55C38.65,64.74,39.1,64.71,39.25,65.29Z"/><path class="cls-133" d="M33.67,65.3c.19-.17.37-.35.55-.53C34.25,65.18,34,65.28,33.67,65.3Z"/><path class="cls-146" d="M23.52,63.82l-.9-.65a1.82,1.82,0,0,1-.47-1.87,2.11,2.11,0,0,1,1-1.15,1.9,1.9,0,0,1,1-.16,1.93,1.93,0,0,1,1.07,1,1.54,1.54,0,0,1-.28,1.39l0,.29c-.37.36-.19,1-.75,1.29Z"/><path class="cls-147" d="M24.08,64c.1-.52,0-1.15.75-1.29a2.7,2.7,0,0,1,.69,1.83C24.84,64.84,24.4,64.56,24.08,64Z"/><path class="cls-148" d="M64.91,34.41l.73.65.09.22c-.82.44-1.4.29-1.68-.67C64.26,34.19,64.55,34.13,64.91,34.41Z"/><path class="cls-91" d="M64.91,34.41h-.68a.43.43,0,0,1-.18-.48c.06-.16.11-.24.17-.24H65A1.55,1.55,0,0,1,64.91,34.41Z"/><path class="cls-149" d="M34.38,61.86a1.52,1.52,0,0,0-.06,2c-1.35-.36-2.34,1-3.66.76a2.78,2.78,0,0,0-1.5-1.44,2.23,2.23,0,0,1-1.64-1.67,1.29,1.29,0,0,1,.89-1.06c.77-.17,1.52-.37,1.78-1.27a1.7,1.7,0,0,1,.57-.72c1.4-.43,1.91.61,2.49,1.53.3.49.67.95,1,1.41Z"/><path class="cls-150" d="M28.52,60.91A1.25,1.25,0,0,0,27.9,62c.22.47.25.88-.33,1.1-1.21.28-1.21-1-1.84-1.46A.63.63,0,0,1,25.2,61a4.23,4.23,0,0,1,.37-2.25H27a4.14,4.14,0,0,1,1.65,1.37A.68.68,0,0,1,28.52,60.91Z"/><path class="cls-151" d="M27.57,63.09,27.9,62c.69.13,1,.69,1.26,1.23C28.56,64.07,28,63.89,27.57,63.09Z"/><path class="cls-152" d="M25.53,61a2,2,0,0,0,.2.61c-.17.39-.39.72-.87.74V61A.39.39,0,0,1,25.53,61Z"/><path class="cls-153" d="M23.32,60.35l-.82.78c-.58.58-.67,1.47-1.28,2l-1.51-1.45a1.53,1.53,0,0,0-.05-2.15,1.34,1.34,0,0,1,.83-1.05,3.3,3.3,0,0,1,2.21.63,2.16,2.16,0,0,1,.58.73C23.3,60,23.31,60.19,23.32,60.35Z"/><path class="cls-154" d="M21.22,63.16c-.2-1.08-.28-2.08,1.28-2l.12,2Z"/><path class="cls-155" d="M18.18,63.85c-.28-.07-.38-.24-.24-.45s.18-.11.28-.16A1.4,1.4,0,0,1,18.18,63.85Z"/><path class="cls-156" d="M12.44,45.51l-.81.73A4.27,4.27,0,0,1,11,47h0a5.4,5.4,0,0,1-.7,0,9.72,9.72,0,0,0-.77-.67l-1.63-.1c.34-1.77-1.48-1.86-2.18-2.82a1.59,1.59,0,0,1,1.67-1.52l.36,0a1,1,0,0,0,.63-.31A5.86,5.86,0,0,0,9,40.65a2,2,0,0,1,.56-.56,1.75,1.75,0,0,1,.82,0,4,4,0,0,1,1.13.57,1.3,1.3,0,0,1,.44.7,1.76,1.76,0,0,1-1.21,1.53.38.38,0,0,0-.47.25c.19,0,.39-.15.59,0A.86.86,0,0,1,11,44.23a1.75,1.75,0,0,1-.67.14,5.73,5.73,0,0,0,.74.11A3.35,3.35,0,0,1,12.44,45.51Z"/><path class="cls-157" d="M7.33,41.84c.24-1.36-.73-2.12-1.45-3,.48-.41.72-1,1.19-1.43a2.17,2.17,0,0,1,.85-.34,16.15,16.15,0,0,1,1.84,0,1.42,1.42,0,0,1,.94,1,2.35,2.35,0,0,1,0,.95c-.23.91-1.29.79-1.74,1.43-.13.28-.26.55-.38.83a2.87,2.87,0,0,1-.51.74.64.64,0,0,1-.77-.25Z"/><path class="cls-158" d="M4,41.72a2,2,0,0,1-.1-2.33c.27-.36.84.13,1.26.3C5.12,40.6,5.25,41.57,4,41.72Z"/><path class="cls-159" d="M7.25,37.43c0,1-.33,1.52-1.37,1.41,0-.49,0-1,0-1.46l.22-.26A1,1,0,0,1,6.73,37l.33.13Z"/><path class="cls-160" d="M3.62,36.73l1.47-.15c.68-.12,1,.15.8.84l-.06,0-.74,0C4.53,37.34,4,37.33,3.62,36.73Z"/><path class="cls-161" d="M1.56,37.29c-.27-1.17.27-1.58,1.37-1.47a.65.65,0,0,1,.28.59c0,.23-.07.34-.13.34A1.43,1.43,0,0,1,1.56,37.29Z"/><path class="cls-160" d="M3.08,36.75l-.15-.93.64-.71c0,.53,0,1.07,0,1.6A2.92,2.92,0,0,0,3.08,36.75Z"/><path class="cls-162" d="M50.41,10.16l1.37-.75.37.09q.18.33.39.66l0-.05c.77.72.09,1.5.1,2.26,0,.32,0,.65,0,1a8.23,8.23,0,0,1-.2,1.48,4.54,4.54,0,0,1-.36.95c-.58.8-2.07,1.79-2.14,1-.25-2.74-2.87-2.42-4-3.86a3,3,0,0,0-2-1.12c-.93-.18-2-.14-2.54-1.12a1.37,1.37,0,0,1,.15-.93c.88-1.28,1.52-2.77,3-3.47a.91.91,0,0,1,.8.11,4.3,4.3,0,0,1,.6,1,4.14,4.14,0,0,1,.29.55,2.19,2.19,0,0,1,.27,0,.6.6,0,0,1-.11-.56l.22-.22c.77-.29,1.56-1,2.29.07C50.4,7.75,49.52,9.38,50.41,10.16Z"/><path class="cls-163" d="M45.28,6.43c-1.36.92-2,2.46-3,3.66a9.44,9.44,0,0,1-1.13-1.24,1.84,1.84,0,0,1-.43-1.59c1-.77-.08-1.59.07-2.38h0a3.53,3.53,0,0,0,.81-.63l0,0L43,3.59,43.08,5c-.12.52.46.37.6.64a1.75,1.75,0,0,0,1.72-.38C46,5.43,46,6,46,6.44l-.37.27Z"/><path class="cls-164" d="M50.41,10.16c-.43.31-1.26,1-1.06-.12S49,8.16,49,7.22a2,2,0,0,0,.64,0C50.84,7.92,50.2,9.15,50.41,10.16Z"/><path class="cls-165" d="M46,6.44c.23.24.46.48.7.71h0a.51.51,0,0,1-.75,0,.53.53,0,0,1,0-.76Z"/><path class="cls-166" d="M53.85,62.5l-.58.66c-1,.29-1.93-.81-2.89,0a1.65,1.65,0,0,1-.45-1.58,1.82,1.82,0,0,1,.66-.93c1.46-.65,2.64-.48,3.34,1.14A.9.9,0,0,1,53.85,62.5Z"/><path class="cls-167" d="M50.36,61.69c0,.49,0,1,0,1.48a1.75,1.75,0,0,0-.12.55c-.46.09-.92.29-1.37,0l-.54-.59h-.11A.69.69,0,0,1,48,62.3a2.11,2.11,0,0,1,1.07-1A1.26,1.26,0,0,1,50.36,61.69Z"/><path class="cls-168" d="M56.15,53.74c-1,.57-.6,2-1.51,2.66A3,3,0,0,1,54,57.6l-.27.36a3.47,3.47,0,0,1-.68.59,2.8,2.8,0,0,1-1.7.39,2.1,2.1,0,0,1-.7-.52,3.2,3.2,0,0,1-.59-1.18,1.48,1.48,0,0,1,.16-.85,3.47,3.47,0,0,1,.63-.58,5.06,5.06,0,0,0,1.23-1.17c.32-.53.54-1.11.88-1.63a2.5,2.5,0,0,1,.79-.62,2.43,2.43,0,0,1,2.51.35A1,1,0,0,1,56.15,53.74Z"/><path class="cls-169" d="M59.19,58.05,57.75,58c0-.72-.06-1.43-.08-2.14-.46-.36-1-.66-1-1.37a3.82,3.82,0,0,1,.8-1.61,1.36,1.36,0,0,1,1.27-.27l.35.29c0,.52.05,1,.08,1.56C59.53,55.63,60.37,56.84,59.19,58.05Z"/><path class="cls-170" d="M53.33,57.32c.06-.85.79-.73,1.31-.92l.79.77a1.85,1.85,0,0,1-.63,1.56,4.06,4.06,0,0,0-.09.7c-.74.53-1.18,0-1.63-.48a1.1,1.1,0,0,1,0-.94h.35A.52.52,0,0,0,53.33,57.32Z"/><path class="cls-171" d="M57.67,52.88a1.37,1.37,0,0,1-.8,1.57c-.24.27-.46.26-.66-.05q0-.33-.06-.66c0-.3,0-.6,0-.91a.57.57,0,0,1,.15-.75,1.13,1.13,0,0,1,1.18.38Z"/><path class="cls-172" d="M54.8,58.73a1.29,1.29,0,0,1,.63-1.56,1.19,1.19,0,0,1,.75,1.56Z"/><path class="cls-173" d="M56.21,54.4a1.62,1.62,0,0,1,.66.05l.8,1.36C56.66,55.89,56.19,55.4,56.21,54.4Z"/><path class="cls-51" d="M56.83,60.27c.05.23.11.47.17.7-.66.31-.89,0-.85-.63l.07-.11Z"/><path class="cls-72" d="M29.89,67.63,29.16,67a1.37,1.37,0,0,1,.69-.12A1.56,1.56,0,0,1,29.89,67.63Z"/><path class="cls-174" d="M59.85,19a4.22,4.22,0,0,0,0,.71c-.24.5-.48,1-.73,1.5l-.34.23a2,2,0,0,1-.8-.08c-.4-.12-.8-.25-1.19-.4a1.38,1.38,0,0,1-.91-1.71,5.82,5.82,0,0,1,1-1.38,2.72,2.72,0,0,1,.64-.58.61.61,0,0,1,.75.2Z"/><path class="cls-175" d="M57.58,20.5l.82.68a1.27,1.27,0,0,1,.48.52,1.77,1.77,0,0,1,.21,1.05c0,.2,0,.39.08.59l-2.25.06-.23-.33a1.92,1.92,0,0,1,.05-.79c.11-.38.23-.76.37-1.14A3.63,3.63,0,0,1,57.58,20.5Z"/><path class="cls-176" d="M59.09,22.75a.94.94,0,0,1-.65-.8,2.53,2.53,0,0,1,.71-.75h0l.78.72a.49.49,0,0,1-.13.71A4.39,4.39,0,0,0,59.09,22.75Z"/><path class="cls-85" d="M59.8,22.63a3.42,3.42,0,0,0,.13-.71c.27.14.34.34.18.55A.91.91,0,0,1,59.8,22.63Z"/><path class="cls-177" d="M62.67,40.41l-1.3-.82a2.36,2.36,0,0,1-.65-2.26,2.2,2.2,0,0,1,2.22-1.79c1.1.08,2.74-.45,2,1.76l0,.08a3.15,3.15,0,0,0-.61.06c-.21.06-.31.17-.3.31s0,.26.09.26Z"/><path class="cls-178" d="M64.12,38c-.47.05-1,.1-1.12-.49a.68.68,0,0,1,.25-.59c.52-.27.84.08,1.08.51Q64.24,37.73,64.12,38Z"/><path class="cls-179" d="M51.78,9.41c.23-.47.48-.7.77,0h0a.53.53,0,0,1-.75.05Z"/><path class="cls-180" d="M60.58,53.61h1.31c.29,1.07-.19,1.44-1.19,1.32Z"/><path class="cls-174" d="M57.63,16.2a1.43,1.43,0,0,1,.65,0,2.3,2.3,0,0,1,0,.58L58,17l-.3-.14A.44.44,0,0,1,57.63,16.2Z"/><path class="cls-181" d="M57.66,16.75l.58,0a.68.68,0,0,1,.1.7c-.22,0-.44,0-.65,0l-.21-.38Z"/><path class="cls-182" d="M46.09,62.33c0-.44-.06-.88-.08-1.32l.43-.33a1.1,1.1,0,0,1,1.35.57,1.38,1.38,0,0,1-.4,1.48Z"/><path class="cls-183" d="M47.39,62.73c0-.56,0-1.11,0-1.66a.74.74,0,0,1,.94-.06,1.83,1.83,0,0,1,0,1.55,1.37,1.37,0,0,1-.09.57l-.75.09A.61.61,0,0,1,47.39,62.73Z"/><path class="cls-184" d="M64.92,37.3c-.07-1.59-1.23-1.38-2.26-1.39a.54.54,0,0,1,.2-.73l1.36-1.49c0,.24,0,.48,0,.72.19.84.84.87,1.5.87,0,1,.59,1.4,1.51,1.42C66.67,37.69,65.71,37.16,64.92,37.3Z"/><path class="cls-185" d="M56.15,60.34,57,61l-.19,1.35a.85.85,0,0,0-.59.17l-.76-.29C55.5,61.51,55.32,60.73,56.15,60.34Z"/><path class="cls-186" d="M53.38,58.73l1.33.7c0,.28,0,.57,0,.85l-.34,0-.34,0c-.89.46-1.75.65-2.38-.43C51.87,58.91,52.65,58.86,53.38,58.73Z"/><path class="cls-187" d="M20.42,58.9l-.76.66-1.42,0c0-.93.71-1.11,1.36-1.38A.73.73,0,0,1,20.42,58.9Z"/><path class="cls-74" d="M59.2,52.06a5.78,5.78,0,0,0,.7.14.9.9,0,0,1-.78.65v0c-.19-.09-.27-.21-.26-.36s.05-.25.1-.25Z"/><path class="cls-188" d="M20.42,58.9l-.82-.74.07-.8a.66.66,0,0,1-.22-.55c0-.2.05-.31.09-.31a1.73,1.73,0,0,1,.86-.39,4.62,4.62,0,0,1,2.24.71c.4.26.82.49,1.22.75a2.69,2.69,0,0,1,.89,1.14c-.1.58,1,1.7-.68,1.56l-.75.08.06-.17a2.36,2.36,0,0,0-.91-.58Z"/><path class="cls-189" d="M19.72,56.57c0,.27,0,.53,0,.79H18.26l0-.17c-.08-.83-1.39-1.32-.64-2.38a2,2,0,0,1,.94-.23c.47.16,1,.15,1.39.55A1.25,1.25,0,0,1,19.72,56.57Z"/><path class="cls-31" d="M54.62,9.42,54,8.8C54.35,8.84,54.6,9,54.62,9.42Z"/><path class="cls-190" d="M51.77,59.66c.61.76,1.48.57,2.28.63l-.12,1.51a3.58,3.58,0,0,0-3.45-.7c-.1-.11-.2-.21-.31-.31a1.58,1.58,0,0,1,.19-.85,2.08,2.08,0,0,1,.67-.55A.63.63,0,0,1,51.77,59.66Z"/><path class="cls-82" d="M41.63,4.26l-.81.63Z"/><path class="cls-133" d="M43.68,5.6c-.23-.18-1.12.27-.6-.64l.74,0A5.63,5.63,0,0,0,43.68,5.6Z"/><path class="cls-191" d="M57,25.56c1.14.3,1.16,1.8,2.26,2.14.19-.25.38-.27.56,0l.76.73c-.19.28-.38.56-.56.85h-.12a3.64,3.64,0,0,1-1.52.91A11.08,11.08,0,0,1,56.7,31a1.46,1.46,0,0,1-1-.87,7.42,7.42,0,0,1-.49-2.37A2.9,2.9,0,0,1,57,25.56Z"/><path class="cls-192" d="M62.05,31.48l-.68.79-.8.72a.68.68,0,0,1-.88,0,1.91,1.91,0,0,1-.36-1.43,1.74,1.74,0,0,1,.51-.84,5.43,5.43,0,0,0,1.24-.49c.44-.31.82-1,1.35-.38C62.81,30.37,62.21,31,62.05,31.48Z"/><path class="cls-193" d="M59.84,30.76c0,.25,0,.51,0,.76a1.38,1.38,0,0,1-1.42.32,1.89,1.89,0,0,1-1-1.1,1.55,1.55,0,0,1,.25-1.45h2.2C59.85,29.78,59.85,30.27,59.84,30.76Z"/><path class="cls-194" d="M59.78,27.7l-.28,0-.28,0-.09-1.37A1.16,1.16,0,0,1,59.78,27.7Z"/><path class="cls-192" d="M60,29.28l.56-.85Z"/><path class="cls-195" d="M57,25.56c.11,1.14-1,1.47-1.46,2.23-1.87,0-1.88-1.37-1.9-2.71a3.37,3.37,0,0,1,1.81-2,1.44,1.44,0,0,1,1.52.35h0C56.93,24.12,57,24.84,57,25.56Z"/><path class="cls-196" d="M59.14,25.64c-.33-.17-.71-.69-.54-.76.85-.38.36.48.56.73Z"/><path class="cls-197" d="M62.86,35.18c-.07.25-.13.49-.2.73a2.62,2.62,0,0,0-1.39,1.51c-.61.55-1.17,1.25-2.14.73,0-.49,0-1,0-1.48-.17-1.08-3.59-.54-1.38-2.82,1-.43,2-.08,3-.23a3.22,3.22,0,0,1,.63.15,13,13,0,0,1,1.21,1.37Z"/><path class="cls-193" d="M60.73,33.62c-.8,1.15-2,.72-3.07.8a1.44,1.44,0,0,1,.25-2.35,2.67,2.67,0,0,1,1.94.81c.24,0,.48.06.72.11A4.47,4.47,0,0,0,60.73,33.62Z"/><path class="cls-193" d="M62.57,35.14c-.86,0-1.23-.53-1.21-1.37C62.21,33.82,62.85,34.07,62.57,35.14Z"/><path class="cls-198" d="M11.67,19c-.69-.7-.64-1.29.38-1.45s1.89-.33,1.82-1.64c-.17-.15-.23-.3-.17-.44s.12-.23.18-.23l.74-.69a.42.42,0,0,0,.72,0l.69-.76c-.22-.14-.3-.29-.25-.46s.12-.26.19-.26l.82-.72.38-.23.42.08.32.29c.32.47.58,1,.94,1.41a3.64,3.64,0,0,1,.47.71,2.38,2.38,0,0,1,.12.84,2,2,0,0,1-.34.77,4.56,4.56,0,0,1-1.45.79,2.32,2.32,0,0,1-.74.06s-.33,0-.33,0-.33.05-.31.07a.49.49,0,0,0,.23.57,2.81,2.81,0,0,0,1.26.8,2.42,2.42,0,0,1,.77.42,2.84,2.84,0,0,1,.63,1.75,1.28,1.28,0,0,1-1,1,2.93,2.93,0,0,1-1,0c-1.92-.42-3-2.4-5.07-2.62Z"/><path class="cls-199" d="M10.15,22.68,7.44,20.37c.5-.79,1.29-.69,2.06-.68a1.56,1.56,0,0,0,1.43.77,1.92,1.92,0,0,1,.65.62,7,7,0,0,1,1.06,2c-.06.54-.51.72-.88,1l-1.42-.53-.42-.35C10,23,10.07,22.85,10.15,22.68Z"/><path class="cls-200" d="M16.08,9.44,17.5,8.6l.32.36A1.8,1.8,0,0,1,17,11.05a.77.77,0,0,1-.86-.18C15.26,10.41,16,9.92,16.08,9.44Z"/><path class="cls-94" d="M11,16.1l-.9-.92c-.19-.16-.24-.31-.16-.44s.15-.2.22-.2H11C11,15.06,11.82,15.55,11,16.1Z"/><path class="cls-201" d="M11,21.2l0-.74c.26-.26.51-.52.77-.77l.49-.21.39.37A1.58,1.58,0,0,1,12,21.27.9.9,0,0,1,11,21.2Z"/><path class="cls-202" d="M16.1,10.87l.71-.11a1.07,1.07,0,0,1,0,1.52l0,.06A1.43,1.43,0,0,1,16.1,10.87Z"/><path class="cls-203" d="M16,13.06a2.2,2.2,0,0,1,.06.72l-.92-.31C15.28,13.07,15.65,13.12,16,13.06Z"/><path class="cls-204" d="M9.5,19c-.36-.08-.9.18-.92-.46,0-.08.59-.17.9-.25A1,1,0,0,1,9.5,19Z"/><path class="cls-205" d="M15.34,14.54c-.23.41-.47.43-.72,0A5.77,5.77,0,0,1,15.34,14.54Z"/><path class="cls-205" d="M13.88,15.24c0,.23,0,.45,0,.67-.31-.07-.42-.24-.28-.47S13.78,15.31,13.88,15.24Z"/><path class="cls-199" d="M12.4,19.71l-.7,0,0-.69.06-.07C12.45,18.75,12.58,19.09,12.4,19.71Z"/><path class="cls-93" d="M11.59,12.25c-.14-.19-.38-.36-.4-.56s.19-.41.3-.17a2.3,2.3,0,0,1,.12.71Z"/><path class="cls-99" d="M11.61,12.23l.87.88h0l-.87-.87Z"/><path class="cls-206" d="M24.06,8c.12,1.46,1.19,1.41,2.22,1.42,0,.24,0,.48,0,.71-1.06.9.39,3.46-2.16,3.36-.3,0-.38.2-.3.53s.06.35.09.36c0,1.18-.13,2.2-1.7,1.9-.47.08.08-1-.7-.63a1.68,1.68,0,0,1-.74-.08,3.29,3.29,0,0,1-1.77-1h0c-.72-.55-.68-1.61-1.41-2.14l-.07-.14c-.36-.9.4-1.33.79-1.91A2.42,2.42,0,0,1,19,9.8a2.41,2.41,0,0,0,.76-.4h0a1.08,1.08,0,0,1,1.05-.16,2,2,0,0,0,.73-.06c.43-.41.67-.94,1.1-1.33Z"/><path class="cls-207" d="M22.61,7.86a8.56,8.56,0,0,1-.05,2c-.24.89-.78,1-1.36.2h0l-1.47-.69.72-1.36A1.7,1.7,0,0,1,22.61,7.86Z"/><path class="cls-208" d="M20.42,7.79c-.74-.17-.64-.77-.67-1.3A1.18,1.18,0,0,1,20.42,7.79Z"/><path class="cls-209" d="M19,7.9v.75a1.13,1.13,0,0,1-.73.41,1.14,1.14,0,0,1-.73-.42l0,0A1.42,1.42,0,0,1,19,7.9Z"/><path class="cls-210" d="M18.35,8.71A2.28,2.28,0,0,1,19,8.65c0,.26.05.52.07.78a.51.51,0,0,1,0,.7l0,0C17.88,10.1,17.6,9.65,18.35,8.71Z"/><path class="cls-207" d="M19,10.13a1.38,1.38,0,0,1,0-.7,3.8,3.8,0,0,1,.67,0C19.5,9.65,19.26,9.89,19,10.13Z"/><path class="cls-145" d="M46,61c-1.57-.38-2.95.3-4.38.75-1.25.11-1.85-1.23-3-1.37a2.78,2.78,0,0,1-2.18.58c-.72-.21-1.53-.34-1.39-1.41,1.68-1.44,4.15-1.45,5.2-4.35.67-1.83,3-.16,4.26,1.23.18.72.2,1.53,1.06,1.87.91.75,1.25,1.59.36,2.59Z"/><path class="cls-211" d="M37.24,63.15l-2.15.08c0-.27,0-.55,0-.82a1.92,1.92,0,0,1,1.51-.62,1.75,1.75,0,0,1,1.43.75Z"/><path class="cls-145" d="M42.78,64.45l-.44.16-1.23-.11C41.65,63.65,42.2,63.59,42.78,64.45Z"/><path class="cls-145" d="M38,62.54l-1.51-.09c-.28-.64.11-.93.61-1.16a1.36,1.36,0,0,1,1.39.43C38.37,62,38.2,62.26,38,62.54Z"/><path class="cls-212" d="M36.56,60.33l2.08.06c0,.2,0,.4,0,.6-.4.42-.91.33-1.41.33S36.38,61,36.56,60.33Z"/><path class="cls-213" d="M37.27,61l1.42,0c0,.25-.1.49-.16.74l-1.43,0C36.9,61.39,36.94,61.16,37.27,61Z"/><path class="cls-214" d="M41.53,62.36l.69.65-1-.08C41.32,62.74,41.43,62.55,41.53,62.36Z"/><path class="cls-211" d="M39.51,63.05c.25-.37.45-.27.61.08C39.89,63.38,39.68,63.37,39.51,63.05Z"/><path class="cls-102" d="M39.51,63.05a1.61,1.61,0,0,0,.62.08C39.85,63.72,39.65,63.65,39.51,63.05Z"/><path class="cls-93" d="M10.19,14.54a1.54,1.54,0,0,1-.06.64c-.34,0-.71.11-.89-.32Z"/><path class="cls-114" d="M9.47,46.28l.77.67Z"/><path class="cls-114" d="M10.8,48.61a2.31,2.31,0,0,0-.59-.14,2,2,0,0,1-.14-.71l.82-.07Z"/><path class="cls-74" d="M57,45.46c0-.25,0-.5,0-.76a.54.54,0,0,1,.73,0,2.36,2.36,0,0,1,.65,0c0,.22,0,.45.07.67l-.06.06a1,1,0,0,1-.7.39A1,1,0,0,1,57,45.46Z"/><path class="cls-215" d="M57.62,45.52l.78,0-.06,3c-1.22.21-2,1.24-3,1.74a1.35,1.35,0,0,1-1.66-.88,2.6,2.6,0,0,1,0-1C54.14,46.21,56.33,46.52,57.62,45.52Z"/><path class="cls-216" d="M55.48,50c.32-1.76,1.2-2.4,2.86-1.43a2.4,2.4,0,0,0,.06,2.87,1.2,1.2,0,0,1-.83.44,4.16,4.16,0,0,1-2.21-1A.7.7,0,0,1,55.48,50Z"/><path class="cls-217" d="M57.73,51.49a1.91,1.91,0,0,1,.67-.1l.57.87c.05.21.11.41.16.61H57.67l0,0A.87.87,0,0,1,57.73,51.49Z"/><path class="cls-218" d="M54.06,48.48c0,.21-.08.43-.14.64a1.28,1.28,0,0,1-1,.26s-.22.17-.22.17a1.19,1.19,0,0,0,.1.28c.55.74.91,1.44-.18,2-1-.2-1.89-.1-2.1,1.19a3,3,0,0,1-.8.54c-1.3.69-2.84.37-4.15,1a1,1,0,0,0-.12,1,2.41,2.41,0,0,1,.22,1.18,1.45,1.45,0,0,1-.41.72l-.42.08-.37-.22a17.16,17.16,0,0,0-1.38-1.15c-2.16-1.45-2.25-1.47-3,1a2.31,2.31,0,0,1-2.56,1.91c-.78,0-1.61.43-2.47.4l-.3-.36a1.06,1.06,0,0,1,.4-1.19,2.6,2.6,0,0,1,1.12-.48.93.93,0,0,1-.2-.09l-.19.14a3.36,3.36,0,0,0-.94.6,1.54,1.54,0,0,1-.77.37c-.58,0-1.15-.1-1.73-.12-.56.28-1.37-.59-1.76.42l-.09.7c-1.23,1-1.69-.08-2.26-.87a3.5,3.5,0,0,1-.23-.9,3.07,3.07,0,0,0-1.1-1.9h0c-.46-.7-.18-1.74-1-2.25a3.75,3.75,0,0,1-.45-2.17,1.53,1.53,0,0,1,.73-1.47,2.6,2.6,0,0,1,.95.23l.43.23a3.84,3.84,0,0,0,3.92.64,1.47,1.47,0,0,1,.83.4A3.39,3.39,0,0,1,33,53.31a2.43,2.43,0,0,1,.3,0s0-.3,0-.33c.78-1.24,1.66-1.4,2.68-.32.36.5,0,1.13.28,1.67-.07.47.51-.15.06,0a2.17,2.17,0,0,1,1-2.36c.5-.25.55.36.86.47,0-.31-.31-.5-.38-.79.6-1.08,1.57-.77,2.47-.69.63.33.46-.43.75-.59.54-.5,1.39-.6,1.79-1.17,1.71-2.44,3-1.21,4.36.35.32.1.19.65.61.68l-.47-.53a2,2,0,0,1-.79-2,2.25,2.25,0,0,0,.89-1.8,1.12,1.12,0,0,0,0-1c-.49-.75-1.54-1.39-.66-2.42.71-.83,1.7-.58,2.61-.26a15.65,15.65,0,0,1,1.92.86,8.92,8.92,0,0,1,.86.47,5,5,0,0,1,2.17,2A8.06,8.06,0,0,1,54.06,48.48Z"/><path class="cls-219" d="M27,50.66c-.25-.25-.49-.5-.74-.74L22.56,47.8c-.27,1.45,1.53,1.73,1.23,3-.91.92-1.74-.42-2.62-.15a3.28,3.28,0,0,1-2.21.71c-1.15-1,.11-1.37.53-1.94.8-1.08,1.1-2.12-.09-3.16a3.05,3.05,0,0,1-1.14-2.18c-.09-1.92-1.3-2.39-3-2.26L15,41.47a1.78,1.78,0,0,1,.19-1.82.55.55,0,0,1,.55-.24c0-.22-.19-.31-.48-.24a6,6,0,0,1-1.95-.63,1.9,1.9,0,0,1-.59-.64,6.26,6.26,0,0,1-.35-.8c-.13-.26-.25-.52-.4-.78s-.17-.24-.26-.35a8.31,8.31,0,0,1-1.46-2.33A3.78,3.78,0,0,1,10,31.7a1.1,1.1,0,0,1,.76-.58c.49-.39,2.34,2.13,1.66-.79a4.19,4.19,0,0,1,.27-1,4.89,4.89,0,0,1,1.67-1.83A5.17,5.17,0,0,1,15.73,27a3.32,3.32,0,0,1,1.47-.15A1.73,1.73,0,0,1,18.15,28a9.18,9.18,0,0,1,.32,1.49c.15,1.14,1,1.93,1.47,2.9a1.49,1.49,0,0,1-.25,2c-.75.56-1.31-.21-1.94-.48s-.6-1.16-1-1.67a1.41,1.41,0,0,1-.34-1.37,4.22,4.22,0,0,0,0-.71c-.07.2-.05.41-.11.62-1,.94,0,1.16.51,1.58-1.16,1.2.31,1,.71,1.39.82,1.26,1.41,3,3.48,1.8.19-.11.48,0,.71,0,.52.1,1.14.56.88.9-2.24,3,5.26,3.27,1.72,6.57-.8.75-1.74,1.58.66,1.8C27.23,45,27.92,47.7,27,50.66Z"/><path class="cls-220" d="M14.05,48.4C14,47.56,14.32,47,15.19,47a5.42,5.42,0,0,0,2.28-.8c.63.34,1.33.73,1.19,1.55s-.85.7-1.43.7C16.17,48.44,15.11,48.41,14.05,48.4Z"/><path class="cls-221" d="M17.57,55c.27.71,1.6,1.06.71,2.16l-1.45-.64h0c-.4-.37-.2-1.13-.84-1.35h0a4.52,4.52,0,0,1-.4-1,1.57,1.57,0,0,1,.58-1.39h.63C17.74,53.28,18.25,53.92,17.57,55Z"/><path class="cls-150" d="M15.31,41.84c0,.24,0,.48,0,.72a.4.4,0,0,1,.16.48c-.06.15-.13.22-.19.22a4.41,4.41,0,0,1-2.9.76c-.06-.17-.13-.35-.19-.53.39-1.77,1.13-2.86,3.08-1.65Z"/><path class="cls-222" d="M24.07,60.27c.73-.5.11-1.12.14-1.68a2.13,2.13,0,0,0,.13-.83,1.3,1.3,0,0,1,.47-.68.61.61,0,0,1,.73.22l0,1.45a2.12,2.12,0,0,1,0,2.27L25.19,61l-.33.06Z"/><path class="cls-219" d="M15.32,43.26l0-.7a3.29,3.29,0,0,1,.71.11c.75.24,1.31.66,1.12,1.57,0,.16-.35.33-.56.37C15.59,44.77,15.45,44,15.32,43.26Z"/><path class="cls-223" d="M17,50.19c-.27.51-.87.44-1.46.32-.36-.08-.73-.32-.55-.75.28-.69.9-.7,1.5-.5C16.85,49.37,17.24,49.52,17,50.19Z"/><path class="cls-224" d="M26.29,53.63c.93-.42,1.66-.51,1.31.9A7.69,7.69,0,0,1,27,55.81a1.34,1.34,0,0,1-1.47-1.51A1.3,1.3,0,0,1,26.29,53.63Z"/><path class="cls-225" d="M22.43,57.35l-2-.86c-.27-.76.1-1.16.76-1.41a2.47,2.47,0,0,1,2.25,1.38A1,1,0,0,1,22.43,57.35Z"/><path class="cls-219" d="M26.29,53.63l-.73.67-.7-.71h0c0-.8-.14-1.66.71-2.19C26.42,51.92,26.26,52.81,26.29,53.63Z"/><path class="cls-226" d="M17.57,55l-.84-2.19c1.79-1.29,1.53,1,2.35,1.38,0,.49-.54.54-.79.83h-.36Z"/><path class="cls-227" d="M19,51.38c.55-.81,1.39-.73,2.21-.71C20.1,52.79,20.1,52.79,19,51.38Z"/><path class="cls-224" d="M27,55.81c2.25-.32,1.67,1.07,1.36,2.3l-.32.12-.31-.17A5.24,5.24,0,0,1,27,55.81Z"/><path class="cls-228" d="M27.75,58.06a3.35,3.35,0,0,0,.63,0l0,0a1.36,1.36,0,0,1,0,2.07c-1,.06-1.39-.46-1.4-1.4Z"/><path class="cls-229" d="M16.1,52.85c0,.52-.06,1-.08,1.55a3.91,3.91,0,0,0-.59.81l0,0a.65.65,0,0,1-.81-.1V53.63a1.78,1.78,0,0,1,.68-1.44Z"/><path class="cls-230" d="M21.17,55.08c-.25.47-.5.94-.76,1.41a5.4,5.4,0,0,1-.69.08c0-.53,0-1.06,0-1.59l-.06-.48A1.49,1.49,0,0,1,21.17,55.08Z"/><path class="cls-231" d="M22.43,57.35l1-.89,1.17.2c.37.05.5.25.38.61a2.7,2.7,0,0,0-.41.08c-.33.36-.84.36-1.21.64Z"/><path class="cls-232" d="M24.86,53.59c-.26.21-.49.52-.78.6s-1,.35-.95-.42c0-.34.39-.54.75-.49a8.2,8.2,0,0,1,1,.3Z"/><path class="cls-233" d="M15.28,52.19c0,.58,0,1.19-.68,1.44l0-.08a2.82,2.82,0,0,1-.73-.69,2.65,2.65,0,0,1-.16-.63.55.55,0,0,1,.17-.77C14.54,51.37,14.86,51.88,15.28,52.19Z"/><path class="cls-114" d="M12.44,45.51A1.69,1.69,0,0,1,11,44.88a1.92,1.92,0,0,1,.71-1.09.65.65,0,0,1,.76.23h0Z"/><path class="cls-7" d="M13.15,46.94c0,.6,0,1.21-.69,1.49A1.32,1.32,0,0,1,13.15,46.94Z"/><path class="cls-234" d="M19.65,54.5a1.91,1.91,0,0,0,.06.48l-1.42.07.79-.83A1.89,1.89,0,0,1,19.65,54.5Z"/><path class="cls-224" d="M25,57.27a3.87,3.87,0,0,1-.38-.61c.33.19,1.38-.7.95.64Z"/><path class="cls-114" d="M11,47l.67-.74c0,.25,0,.51.07.76Z"/><path class="cls-7" d="M13.91,51.46c-.06.26-.11.51-.17.77l-.61-.87Z"/><path class="cls-7" d="M15.94,55.21c.74.16.85.72.84,1.35A1.37,1.37,0,0,1,15.94,55.21Z"/><path class="cls-7" d="M15.43,55.21A.85.85,0,0,1,16,54.4c0,.27-.06.53-.1.8l-.24.06Z"/><path class="cls-7" d="M14.6,55.07l.81.1a.86.86,0,0,1-.79.66C14.61,55.57,14.6,55.32,14.6,55.07Z"/><path class="cls-7" d="M13.92,56.6a.78.78,0,0,1,.7-.77A.76.76,0,0,1,13.92,56.6Z"/><path class="cls-7" d="M13.9,52.86l.73.69-.77.08C13.87,53.37,13.88,53.12,13.9,52.86Z"/><path class="cls-235" d="M51.83,15.29c0-.28,0-.56,0-.83a4.52,4.52,0,0,0,.63-1A1.16,1.16,0,0,1,53.93,13l.76.14c.54.12,1.11.19,1.4.78l.12,1.36a1.62,1.62,0,0,1-.63.56,6.5,6.5,0,0,0-1.11.58c-.45.6-.55,1.39-1.1,1.93a1.39,1.39,0,0,1-1.64-.59A7.81,7.81,0,0,1,51.83,15.29Z"/><path class="cls-236" d="M53.93,13l-1.29.9c-.47-.1-.54-.61-.87-.86a1,1,0,0,1,.12-.69.94.94,0,0,1,1.41,0Z"/><path class="cls-31" d="M53.3,12.31l-1.41,0c.21-.74.41-1.48.62-2.23C53.44,10.6,53.25,11.5,53.3,12.31Z"/><path class="cls-237" d="M56.09,13.91a1.74,1.74,0,0,1-1.4-.78l.06-.78c.28-.31.5-.27.67.12l.76.57Z"/><path class="cls-238" d="M55.42,12.47a1.56,1.56,0,0,0-.67-.12c.24-.43.47-.89,1-.41C55.81,11.94,55.55,12.28,55.42,12.47Z"/><path class="cls-31" d="M51.8,9.42l.75-.05c0,.26,0,.52,0,.79A.9.9,0,0,1,51.8,9.42Z"/><path class="cls-181" d="M55.43,15.3l.78,0L57,16l-.38.3a1.45,1.45,0,0,1-.94-.13A.83.83,0,0,1,55.43,15.3Z"/><path class="cls-181" d="M57.63,16.2l0,.55,0,0c-.59.16-.8-.11-.77-.67L57,16A1.26,1.26,0,0,1,57.63,16.2Z"/><path class="cls-239" d="M16.81,27.07l-.8.67c-.86-.74-1.76.06-2.64-.06-.6-.07-1.19-.2-1.79-.25a1.88,1.88,0,0,1-.82-.32,2.43,2.43,0,0,1-.55-1.66,1,1,0,0,1,1.21-.37c.85.27,1-.27,1-.91a.77.77,0,0,1,.82-.28c.83.4,1.32,1.3,2.24,1.59C16.08,25.86,17.12,25.89,16.81,27.07Z"/><path class="cls-240" d="M10.21,25.45a1.32,1.32,0,0,1,.68,1.6,1.39,1.39,0,0,1-1.35,1.16,1,1,0,0,1-.76-.5l.83-2A2,2,0,0,0,10.21,25.45Z"/><path class="cls-199" d="M8.76,23.44l.76-.1a.45.45,0,0,1,.72.05l.1.13C9.79,24.12,9.26,24.16,8.76,23.44Z"/><path class="cls-241" d="M13.08,24.06c-.23,0-.45.06-.68.11l-.64-.11.7-.75C13,23.25,13.3,23.46,13.08,24.06Z"/><path class="cls-128" d="M5.86,34.48c0-.33-.09-.65-.13-1s0-.81.07-1.21l1.51-.8h0a4.92,4.92,0,0,0-.74-2.26c0-.95,0-1.9-.05-2.85,1.14.91,1,2.39,1.61,3.54.37.74.86.73,1.32,0l.37-.26c.7-.12,1.2.07,1.34.85-.15.49-.59.65-1,.88l0,0c-.29.43-.11.86,0,1.29s.17.59.27.88.07.3.1.45a1,1,0,0,1-.5.71,1.79,1.79,0,0,1-1.27,0c-.33-.18-.64-.41-1-.57a1.38,1.38,0,0,0-1,.33.8.8,0,0,1-.69.17Z"/><path class="cls-242" d="M8.78,27.71q.36.08.72.12c1.26.72,1.13,1.43,0,2.13h0C8.58,29.41,8.77,28.53,8.78,27.71Z"/><path class="cls-243" d="M10.24,23.39l-.36,0-.36-.09.63-.66A.92.92,0,0,1,10.24,23.39Z"/><path class="cls-244" d="M32.1,8.59l.74.18c.7.31,1.62.21,2,1.09.57,1.12,1.42.94,2.33.52a4,4,0,0,1,2.33-.11,2.14,2.14,0,0,1,.76.48,1.5,1.5,0,0,1,.13.83,3.53,3.53,0,0,1-.33.71c-.23.49.44.92.14,1.43a1.68,1.68,0,0,1-2.08.46c-.39-.66-.75-.49-1.08.06-1.93,1-3.81,1.49-5.46-.5a2,2,0,0,1-.44-.85c0-.89.8-1.65.5-2.62a2.58,2.58,0,0,1,.11-1.35Z"/><path class="cls-245" d="M40.17,11.6c0-.24,0-.49,0-.74A3.28,3.28,0,0,1,39,8.92,2.72,2.72,0,0,1,39.07,8a2,2,0,0,1,.63-.69l.46-.11a2.32,2.32,0,0,0,.58.08c.3.47.59.94.89,1.4a1,1,0,0,1,0,1.45c.75,1.1,1.9.58,2.89.74a1.18,1.18,0,0,1,.38,1.26,3.56,3.56,0,0,1-.71,1.22,4.22,4.22,0,0,1-.72.62,2.38,2.38,0,0,1-.9.29,1.76,1.76,0,0,1-1.52-1C40.83,12.66,40.39,12.19,40.17,11.6Z"/><path class="cls-246" d="M35.75,7.22c1.47-.06,2.93-1.68,4.41,0l0,0A3.32,3.32,0,0,0,38.7,8.43a2.25,2.25,0,0,1-1.36.76C36.14,9.08,35,9,35.75,7.22Z"/><path class="cls-244" d="M35.75,7.22c.17,1.51,1.24,1.45,2.32,1.36A.63.63,0,0,1,39,8.8c.27,1.18-.28,1.66-1.39,1.66s-2.17.67-2.87-.67a2.75,2.75,0,0,1,.35-2.61A1,1,0,0,1,35.75,7.22Z"/><path class="cls-130" d="M35.05,7.18l0,2.92a.44.44,0,0,1-.72,0L32.84,8.77l.8-.19A6.72,6.72,0,0,0,34.22,8,1.16,1.16,0,0,1,35.05,7.18Z"/><path class="cls-247" d="M31.41,8.62c0-.57-.09-1.16.66-1.35l0,1.32,0,.1-.39.24Z"/><path class="cls-248" d="M34.22,8a.53.53,0,0,1-.58.61C33.83,8.38,34,8.17,34.22,8Z"/><path class="cls-244" d="M21.18,15.27l.67,0,0,0c1.33.57,1.34.57,1.5-1.54a.89.89,0,0,1,0-1.38c1.56.37,1.69.32,1.29-.66-.86-2,.71-1.49,1.62-1.66l.69,0a1,1,0,0,0,1,.18,6.36,6.36,0,0,1,.66-.19c.32-.11.62-.27.93-.39l.24-.2-.12-.29a.94.94,0,0,1,.3-.59l1.47,0h0a1.55,1.55,0,0,1,.34,1.21,6.2,6.2,0,0,1,.05.86,4.29,4.29,0,0,1-.45,1.19c-.14.37-.35.74,0,1.11l0,.08c.37.77-.08,1.22-.62,1.63-1.29.56-1.92-1.47-3.23-.83-1.14.64-2.38,1.15-2.87,2.53a2.63,2.63,0,0,1-.68.73,7,7,0,0,1-2.85.83,3.39,3.39,0,0,1-2.27-1A.74.74,0,0,1,19,16c0-.24,0-.48.05-.72A1.68,1.68,0,0,1,21.18,15.27Z"/><path class="cls-206" d="M29.92,10.09l-1.45.76a2.37,2.37,0,0,0-.65-.43c-.05-.12-.09-.24-.14-.37a6.67,6.67,0,0,1,2.26-1.41c0,.24,0,.48,0,.72a.47.47,0,0,1,.14.49Q30,10.09,29.92,10.09Z"/><path class="cls-206" d="M26.28,9.38a1.91,1.91,0,0,1,.66-1.57A1.44,1.44,0,0,1,26.28,9.38Z"/><path class="cls-206" d="M27.78,10.82l-.82-.7a5.85,5.85,0,0,0,.72-.07l.11.12a.42.42,0,0,1,.13.43C27.88,10.74,27.83,10.82,27.78,10.82Z"/><path class="cls-249" d="M56.25,37.43l.65.74c.73,2.64-1.21,1.79-2.43,1.89C56,42,55.12,43.14,53.27,44a2.12,2.12,0,0,1-1.43.06l0,0C49,41.36,49,41.36,51.7,38.44c.65-.69.86-1.78,1.92-2.09C54.62,36.38,56,35.49,56.25,37.43Z"/><path class="cls-205" d="M56.25,37.43c-.39-1.3-1.71.11-2.24-.78-.67-.34-1.09-.79-.76-1.61.24-.49,1.56-.43.64-1.53-.73-.86-.4-1.83.2-2.7a3.29,3.29,0,0,1,1.15-1,.9.9,0,0,1,.93.16l.86.71c.19-.32.38-.3.57,0l.83.84a.39.39,0,0,1-.12.66c-.76.58-.62,1.43-.65,2.22-.4,1.22.63.67,1,.79.93.29,1.23.68.46,1.46A5.08,5.08,0,0,1,56.25,37.43Z"/><path class="cls-250" d="M51.84,44c1.25-.94,3.88-1,2.23-3.76-.43-.74.45-.63.8-.65,1,0,2-.08,2-1.45,1,.47,1.06,1.87,2.2,2.17a.92.92,0,0,1,0,1.43c-1,.48-1.56,1.64-2.84,1.54-.38.38-.56.92-1,1.28a8.7,8.7,0,0,1-.92.79l-.38.14C53.24,45,52.32,44.84,51.84,44Z"/><path class="cls-251" d="M54.72,44.05l1.5-.74c0,.81-.16,1.7.8,2.15l.6.06c0,.77-.27,1.54-1.1,1.43-1.33-.18-1.72.9-2.46,1.53-.83-1,0-2-.12-3l.15-.07C54.49,45.07,54.32,44.43,54.72,44.05Z"/><path class="cls-252" d="M59.06,41.77c0-.48,0-1,0-1.43.75.1,1.84-.31,1.93.89a1.57,1.57,0,0,1-1.29,1.49C59.17,42.85,59.14,42.21,59.06,41.77Z"/><path class="cls-253" d="M59.13,38.15a4.46,4.46,0,0,1,2.15-.73l.09,2.17C60.3,39.63,59.22,39.67,59.13,38.15Z"/><path class="cls-254" d="M57.74,44.75l-.73,0C57.32,43.8,57.53,44.26,57.74,44.75Z"/><path class="cls-255" d="M5.89,37.42l-.8-.84L5.18,36a1.51,1.51,0,0,1,.57-.7c.57-.16,1.11-.62,1.74-.18a1.51,1.51,0,0,1,.16,1.34,2.33,2.33,0,0,1-1.11.8Z"/><path class="cls-256" d="M5.79,35.92a2.51,2.51,0,0,0-.61.1,1.46,1.46,0,0,1-.77-1.52l1.45,0H6A1,1,0,0,1,5.79,35.92Z"/><path class="cls-257" d="M37.27,61c-.06.22-.12.44-.17.66l-.57.78-1.43,0-.72-.56-.21-.3a1.13,1.13,0,0,1-.82-1c.31-.79.66-1.51,1.71-1.06v0c.3.62.9.72,1.49.84Z"/><path class="cls-145" d="M35.06,59.47l-1.54,1.38c-.22.36-.45.38-.68,0-.59-.82-.75-2.1-2.14-2.08-.45-.25-.83-.68-.65-1.13.48-1.21.76.26,1.19.14l1.67-.44c.34.44.55,1.11,1.32.73l.82,0h0C35.05,58.51,35.05,59,35.06,59.47Z"/><path class="cls-145" d="M28.39,60.15c0-.69,0-1.38,0-2.07.84.3,1.08,1.57,2.21,1.4.5,2.06.5,2.06-2.09,1.43C28.48,60.66,28.44,60.4,28.39,60.15Z"/><path class="cls-258" d="M32.84,60.86a3.09,3.09,0,0,0,.68,0l.66.7C33.53,61.72,33,61.69,32.84,60.86Z"/><path class="cls-222" d="M22.47,59.6a1,1,0,0,1,.91.58A.87.87,0,0,1,22.47,59.6Z"/><path class="cls-113" d="M12.42,44l-.82.07c-.3.28-.5.2-.6-.19l-.73-.67a.41.41,0,0,1-.18-.43c.05-.15.1-.23.16-.23a3.55,3.55,0,0,0,1.6-1.49,2.25,2.25,0,0,1,.26-1.22c.31-.61.43-1.34,1.06-1.76.8,0,1.66-.09,2.2.73-.08.11-.16.21-.23.32s-.43,0-.63.08l.62.08.24.32-.06,2.21C13.57,41.52,13,42.72,12.42,44Z"/><path class="cls-259" d="M12.46,40.36l-.61.72h-.16c-.37-.39-.93-.36-1.34-.65l-.78-.08a1,1,0,0,1-1.49,0c.39-1,1.77-.61,2.23-1.53.84-.26,1.69-.6,2.41.25A1.61,1.61,0,0,1,12.46,40.36Z"/><path class="cls-260" d="M7.27,41.8l.83-.09a.39.39,0,0,1,.62.16c0,.54.17,1.29-.68,1.25S7.37,42.34,7.27,41.8Z"/><path class="cls-261" d="M11,43.9a1.32,1.32,0,0,0,.6.19l-.65.79c-.32-.18-.95,0-.82-.66C10.17,44.06,10.7,44,11,43.9Z"/><path class="cls-262" d="M8.08,40.36l1.49,0-.09.73a.89.89,0,0,1-1.37,0A1.7,1.7,0,0,1,8.08,40.36Z"/><path class="cls-263" d="M10.35,40.42c.57-.06,1.13-.07,1.34.65C11.13,41.07,10.61,41,10.35,40.42Z"/><path class="cls-113" d="M8.11,41.07H9.48l-.76.8a2.18,2.18,0,0,1-.62-.16A2.74,2.74,0,0,1,8.11,41.07Z"/><path class="cls-259" d="M10.25,42.57a4.85,4.85,0,0,0,0,.66C9.71,43,9.73,42.81,10.25,42.57Z"/><path class="cls-259" d="M10.24,34.48c.08-.27.15-.54.22-.81l.5,0L12.39,36a3.07,3.07,0,0,1-.24,1.3,2.43,2.43,0,0,1-.55.69,1.25,1.25,0,0,1-1.24.24,1.28,1.28,0,0,0-1-.68.58.58,0,0,1-.76-.08,1,1,0,0,1,0-.81,4.58,4.58,0,0,0,.72-1.43A4.15,4.15,0,0,1,10.24,34.48Z"/><path class="cls-264" d="M8.71,36.75c0,.19,0,.38.07.57-.19.36-.42.37-.7.09l-.82,0h0a.56.56,0,0,1-.18-.55c0-.19.1-.29.16-.29,0-.47,0-1,0-1.43a.78.78,0,0,1,.16-.9,1,1,0,0,1,1.36.18l1.47,0-.78.77A2.51,2.51,0,0,0,8.71,36.75Z"/><path class="cls-265" d="M10.36,38.18l1.24-.66c.74.16,1.17.51.82,1.34a1.71,1.71,0,0,1-2.11,0A2.81,2.81,0,0,1,10.36,38.18Z"/><path class="cls-266" d="M8.08,37.41c.24,0,.47,0,.7-.09a3,3,0,0,0,.58.18C8.88,38.27,8.45,38.28,8.08,37.41Z"/><path class="cls-157" d="M7.27,36.59c0,.28,0,.56,0,.84l-.75-.15Z"/><path class="cls-267" d="M51.83,15.29a1.94,1.94,0,0,1,0,2.19,2.05,2.05,0,0,1-.63.68,3.35,3.35,0,0,1-1.79.54,3.62,3.62,0,0,1-.92-.21c-.86-1.14-4.1.61-3.19-2.67,0-.21.27-.44,0-.62,0,.24-.18.36-.48.35-.89-.25-1.93-.37-1.74-1.73l.13-.1a2.64,2.64,0,0,1,.69-.35,4.07,4.07,0,0,0,.56-.54,6,6,0,0,1,.87-.8.63.63,0,0,1,.67.27c1.4,0,2,1.75,3.78,1.45,1.1-.19.3,1.69.31,2.59C51.16,16.62,51.15,15.43,51.83,15.29Z"/><path class="cls-268" d="M46,12.3c-.23,0-.45,0-.68.06l-.38.27-.37-.3,0-1.48C45.46,10.86,46,11.28,46,12.3Z"/><path class="cls-24" d="M46.09,7.07l.62.09c.1.7,1.35,1.44-.06,2.11a3.45,3.45,0,0,1-.52-.56l-.21-.79-.26-.49Z"/><path class="cls-269" d="M41.62,10.11c0-.48,0-1,0-1.45.69.25.74.81.67,1.43l-.34,0Z"/><path class="cls-270" d="M51.77,13l.87.86a.78.78,0,0,1-.77.57C51.83,14,51.8,13.51,51.77,13Z"/><path class="cls-24" d="M46,6.45a3.2,3.2,0,0,0,.09.62l-.21.2-.34.1-.27-.22c0-.24,0-.48,0-.72Z"/><path class="cls-163" d="M45.27,7.15a3.14,3.14,0,0,1,.61.12,2,2,0,0,1,0,.65C45.7,7.66,45.49,7.4,45.27,7.15Z"/><path class="cls-271" d="M46.13,8.71l.52.56C46.25,9.3,46.05,9.15,46.13,8.71Z"/><path class="cls-272" d="M50.36,61.69l-1.45.06a.89.89,0,0,1-.36-.7,1.09,1.09,0,0,1,.13-.79,1,1,0,0,1,.76-.23,1.43,1.43,0,0,1,.85.85l.19.22A1.48,1.48,0,0,0,50.36,61.69Z"/><path class="cls-87" d="M48.9,61v.78l-.58.81c-.08-.46-.17-.93-.25-1.39A.51.51,0,0,1,48.9,61Z"/><path class="cls-145" d="M44.51,54.29c.41-.72,1-1.6,1.83-1.16,1.25.65,2.21-.3,3.32-.24.57.64,1.36-.08,2,.32a1.79,1.79,0,0,1,.63.56,2.55,2.55,0,0,1,.31.79c0,.14,0,.28.08.42a3,3,0,0,1-1.49,1.57c-.32-.19-.67-.6-.89.1,0,.22.07.43.1.65a.62.62,0,0,1,.24.54c0,.2,0,.3-.09.3a1.75,1.75,0,0,1-.87.35,9.55,9.55,0,0,1-1.84-.3c-.46,0-.92-.11-1.37-.2a1.79,1.79,0,0,1-1.18-.71V55.81A2.07,2.07,0,0,1,44.51,54.29Z"/><path class="cls-273" d="M52.58,51.41c.52-.45.25-.81-.15-1.14s-1.06-.51-1.28-1.13c.39-.39,1-.23,1.39-.68l1.38.66a1.58,1.58,0,0,0,1.56.83l0,.74a1.41,1.41,0,0,1,.47.5,1.51,1.51,0,0,1,.21.66v.35c0,.21,0,.42,0,.63l-2.86.08-.46-.19C52.5,52.35,52.25,51.94,52.58,51.41Z"/><path class="cls-273" d="M51.94,53.64c-.82-.07-1.72.11-2.28-.75l.69,0a2.29,2.29,0,0,1,2.93,0l0,0c0,.22,0,.45,0,.67A.86.86,0,0,1,51.94,53.64Z"/><path class="cls-274" d="M51.77,59.66a1.43,1.43,0,0,0-.63-.18l-.24-.26,0-.35.35,0a2.62,2.62,0,0,1,1.8-.83l.29.72A1.94,1.94,0,0,1,51.77,59.66Z"/><path class="cls-275" d="M50.27,56.65c-.39-.35-1.34-.76-.63-1.24s1.2.47,1.52,1.14Z"/><path class="cls-276" d="M51.94,53.64l1.35-.06c.16.64-.23,1-.64,1.4l0,0a2.16,2.16,0,0,1-.72-.78A2.35,2.35,0,0,1,51.94,53.64Z"/><path class="cls-277" d="M49.72,58.18a3.06,3.06,0,0,1,.55-.26.53.53,0,0,1,.79.17l.23.75-.24-.08a1,1,0,0,1-1.3.23c-.09-.13-.19-.26-.28-.4Z"/><path class="cls-275" d="M51.06,58.09l-.79-.17c0-.21.07-.42.1-.62A1,1,0,0,1,51.06,58.09Z"/><path class="cls-278" d="M53.33,57.32a3.72,3.72,0,0,1,.34.47s-.15.15-.23.23A.71.71,0,0,1,53.33,57.32Z"/><path class="cls-279" d="M55.5,51.36a3.75,3.75,0,0,1,0-.67c.89-.15,1.52.43,2.23.8,0,.46,0,.91-.08,1.37l-1.48-.67,0,0A3.57,3.57,0,0,0,55.5,51.36Z"/><path class="cls-93" d="M56.93,23.4l-1.46.05c-1.84,0-2-1.89-3-2.79-.87-2.77,1.53-1.48,2.46-2a2.84,2.84,0,0,1,.92,0l.38.26a1.39,1.39,0,0,0,1.34,1.57,2.83,2.83,0,0,1,0,.71c-.42.4-.84.79-.66,1.46Z"/><path class="cls-235" d="M56.86,16.11l.77.67c0,.24,0,.48.06.73s0,.53,0,.8a.88.88,0,0,1-.8.11c-.68-.24-1.45-.23-2-.76a1.27,1.27,0,0,1-.3-.81,1.55,1.55,0,0,1,.52-.71l.42-.13Z"/><path class="cls-280" d="M56.87,18l.77.34c-.28.63-.83.65-1.4.62l0,0C56,18.3,56.26,18,56.87,18Z"/><path class="cls-85" d="M59.15,21.2l-.71.75c0-.25,0-.51,0-.77Z"/><path class="cls-281" d="M57,22.67c-.51-.15-1.36-.09-1.11-.91s1.13-.52,1.77-.55A1.43,1.43,0,0,1,57,22.67Z"/><path class="cls-282" d="M49.72,58.18a3.17,3.17,0,0,1-.16.66c-.2.52-.64,1-.51,1.59a1,1,0,0,1-.15.54l-.82.2a2.18,2.18,0,0,0-.67-.1L46,60.9c.08-1.1,0-2.12-1.42-2.22a.56.56,0,0,1-.24-.67c.27-.32.68-.42,1-.72h0l1.49,0a.9.9,0,0,0,1.37,0Z"/><path class="cls-283" d="M23.35,58c.21-.59.69-.64,1.21-.64.27.52.23,1-.35,1.24Z"/><path class="cls-284" d="M51.14,59.48c-.15.36-.34.69-.78.73l-.09-.51a.61.61,0,0,1,.86-.23Z"/><path class="cls-285" d="M50.29,60.88l-.66-.64L50,60l.39.26,0,0A1.38,1.38,0,0,1,50.29,60.88Z"/><path class="cls-286" d="M54.76,30.75c-.16.82-1.43,1.71-.12,2.43.55.3,1.57-.06,1.4,1s-1.23.9-2,1c-.24,0-.48,0-.72,0-1.59-.44-4.07-.34-1.83-3.1,0,0-.09-.21-.18-.29a1.27,1.27,0,0,0-.33-.16,1.7,1.7,0,0,1-.26-1.26,2.5,2.5,0,0,1,.46-.81c1.08-1.25.74-2.71.6-4.13a3,3,0,0,1-.23-.93,1.57,1.57,0,0,1,.41-.86c1.31-.69,2.18-.58,2.1,1.2a3.85,3.85,0,0,0,1.47,2.95c.83.54.7,1.39.67,2.2l-.7,0a2.15,2.15,0,0,1-.46.33l-.23-.14-.09.26Z"/><path class="cls-192" d="M57.6,30.7H57a1.22,1.22,0,0,1,.63-1.41Z"/><path class="cls-282" d="M58.31,32.2q.07-.33.12-.66l1.43,0c0,.45,0,.91,0,1.36A1.33,1.33,0,0,1,58.31,32.2Z"/><path class="cls-253" d="M54,24.84c-.44-1.16-1.2-1.3-2.2-.72-2.16-1.34-.86-2.41.26-3.49l.46-.19c2,0,1.66,2.3,2.92,3A2.47,2.47,0,0,1,54,24.84Z"/><path class="cls-205" d="M13.08,24.06l-.62-.75c-.51-.69-1.63-.95-1.5-2.11a3.48,3.48,0,0,0,.72,0c.6-.6,1.33-.37,2-.32a2.3,2.3,0,0,1-1.3-1.13h0l-.67-.78c1.11-1.34,2.18-.42,3,.24a13.6,13.6,0,0,0,2.79,2c.77.83,1.16,2,2.34,2.47.84.77,2.55,1.23,1.93,2.68-.73,1.74-2.29.62-3.53.43s-2.24-1.78-3.65-.5C13.76,25.81,13.61,24.8,13.08,24.06Z"/><path class="cls-287" d="M19.71,24.13c-2.29.21-2.25-1.33-2.16-2.92.23,0,.45,0,.68,0,1.39,1,2.65-.14,4-.24a4.63,4.63,0,0,1,2.22,1.14,1.63,1.63,0,0,1,.27,2.54c-.63.77-1.41,1.51-2.4.52A3.87,3.87,0,0,0,19.71,24.13Z"/><path class="cls-205" d="M21.9,21.17c-1.84,2-2.33,2-3.67.06l.73-.77.4-.25a3.53,3.53,0,0,1,2.25.59Z"/><path class="cls-207" d="M18.35,8.71c-.06.62,0,1.18.66,1.45.12,1.16-1,1.38-1.51,2.1l-.73,0c0-.51,0-1,0-1.52a3.59,3.59,0,0,0,.72-2.12Z"/><path class="cls-244" d="M18.21,19h-.65c-1.5.34-.57-1.07-1-1.47,0-.16,0-.31,0-.47l.3-.35.82,0a.61.61,0,0,1,.8,0c.43.58,1.58.42,1.54,1.5a1.82,1.82,0,0,1-.89,1.07A.85.85,0,0,1,18.21,19Z"/><path class="cls-288" d="M17.57,12.4c1.55,0,1.28,1.19,1.41,2.14C17.52,14.49,17.49,13.48,17.57,12.4Z"/><path class="cls-205" d="M16.8,17.49c.81.21-.09,1.32.76,1.52-1.37.61-1.37.61-1.5-1.51l.36-.32Z"/><path class="cls-288" d="M21.18,15.27,19,15.3c0-.25,0-.51,0-.76C19.79,14.58,20.65,14.41,21.18,15.27Z"/><path class="cls-205" d="M16.06,17.5c-.51-.11-1.32-.05-1.13-.81.14-.56.73,0,1.12,0l.33.37-.31.39Z"/><path class="cls-93" d="M18.22,16.77a3,3,0,0,1-.6-.1A1.3,1.3,0,0,1,19,16a2.49,2.49,0,0,1,0,.72A.49.49,0,0,1,18.22,16.77Z"/><path class="cls-205" d="M18.21,19,19,19a1,1,0,0,1,0,1.46l0,0A1.71,1.71,0,0,1,18.21,19Z"/><path class="cls-205" d="M16.05,16.73c.25-.41.5-.42.75,0v0a.44.44,0,0,1-.73,0Z"/><path class="cls-289" d="M12.41,19.71c1.18.7,2.9.87,2.81,3.16-1.43-.15-1.91-2.39-3.54-1.71Z"/><path class="cls-290" d="M23.36,12.41c0,.46,0,.92,0,1.38-.55-.08-1.3,0-1.16-.88C22.3,12.4,22.88,12.35,23.36,12.41Z"/><polygon class="cls-291" points="19.87 12.71 20.13 12.61 20.11 12.85 19.87 12.71"/><path class="cls-292" d="M21.85,15.31l.38-.35-.36.37Z"/><path class="cls-293" d="M21.2,10.1l.38-.38c0,.09,0,.21-.06.25a1.24,1.24,0,0,1-.32.12Z"/><path class="cls-294" d="M44.54,58c0,.22,0,.45,0,.67-.47.08-1.05.08-1.15-.42-.15-.8.59-.81,1.12-.95h0c.19.15.26.3.2.45S44.6,58,44.54,58Z"/><polygon class="cls-295" points="41.28 56.02 41.38 56.24 41.14 56.21 41.28 56.02"/><path class="cls-296" d="M19.71,24.13c1.28-.77,2.58-2,3.2.71.14.62.78,0,1.07-.28.51-.52,1.07-1.33.14-1.7a10.83,10.83,0,0,1-2.22-1.69h0c-.34-.88.21-1.29.84-1.66a1.37,1.37,0,0,1,1,.16c.46-.1,1,1.45,1.11.29.13-1.95,1.1-2,2.45-1.85l.9.27c1.76-.07,2.91-4.17,5.29-.83.24.35,1.15-.61,1.78-.92,3.83-1.87,7.43-1.06,9.35,2.73.85,1.68,2.76,2.37,3.11,4.31.19,1.05.88.51,1.37.29a1.92,1.92,0,0,1,2.76.89h0c.38,1.81-1.72,3.26-.73,5.16h0c-.43.49-.82,1,0,1.47.24,0,.48-.06.72-.07.51,0,1.27-.65,1.36.42.06.76-.47,1-1.19.84a1,1,0,0,0-1.13.39l2.43,2.11L54,36.65c-1.74,1-1.32,4.07-4.26,3.77.49,1.67,2.29,2.06,2.07,3.59-1.65.11-2.84-1.8-4.59-1.22-.39,1.35.69,1.09,1.19,1.41s1.13.69.88,1.38c-.3.85-1.17.58-1.84.65-.41.42-.17,1.17-.75,1.5a4.82,4.82,0,0,1,.75,2.2h0c-.82-.06-1.77.15-2.13-1-.18-.56-.66-.95-.85-.24-.52,1.95-2.57,1.56-3.59,2.67h0c-.76,1.1-2.23-.65-2.92.75h0c-1.11.66-1.09,2-1.82,3-.68-.72-.25-1.56-.38-2.3-.18-3.09-2.54-.71-3.64-1.48h0c-1.31-3-3.38-.66-5.1-.73h0c-.18-2.66-.18-2.66-1.78-5.38-1.15,0-1.51,1.6-2.94,1.38-.58-1.13,1.5-2.3,0-3.52-.54-.45-.13-1.15.7-1.06.56.07,1.32.56,1.48-.26a1.86,1.86,0,0,0-1.18-2,1.58,1.58,0,0,0-1.05,0A1.19,1.19,0,0,1,20.6,39a1.27,1.27,0,0,1,.61-1.55c.39-.24.84-.45.92-1a3.36,3.36,0,0,0-3.71,1.12.82.82,0,0,1-1.26.14A1,1,0,0,1,17,36.31c.54-.81,1.2-1.57.49-2.61.66-.13,1.45.69,1.93,0s-.19-1.26-.81-1.64a2.78,2.78,0,0,1-1.12-2.79c.61-.5.56-1,0-1.47l-.72-.73c-.52-.84-1.37-.73-2.17-.78.09-.78.26-1.42,1.29-1.1,1.74.54,3.48,1,5.4,1.61C21.57,25.15,19.72,25.24,19.71,24.13Z"/><path class="cls-219" d="M27,50.66c2.24-.12.92-2.48,1.92-3.4,2.17,1.93,3,3,3.18,4.13C30.12,53.31,28.55,52.08,27,50.66Z"/><path class="cls-219" d="M32.13,51.39c.79-.19,1.17-1.24,2.11-1.1s1.93-.8,2.49.46c.41.94-.82,1.32-1,2.12-1.62-.81-2.1,0-2.16,1.51h0C32.28,53.81,32.05,52.68,32.13,51.39Z"/><path class="cls-297" d="M47.46,49.93a9.57,9.57,0,0,1,1.32.39.64.64,0,0,1,.39.85c-.14.26-.58.61-.76.55-.61-.22-1.46,0-1.76-.74-.09-.2.52-.69.81-1Z"/><path class="cls-298" d="M53.28,52.86l-2.93,0c-.3-2.12,1.06-1.62,2.23-1.43Z"/><path class="cls-145" d="M38,56.56c.78.75.55,1.28-.42,1.42A17.21,17.21,0,0,1,35,58h0a2,2,0,0,1,1.57-1.41A.85.85,0,0,0,38,56.56Z"/><path class="cls-299" d="M44.51,54.29a1.51,1.51,0,0,1,.75,1.52C44.18,55.72,43.5,55.44,44.51,54.29Z"/><path class="cls-300" d="M33.61,54.38c.55.08,1.19,0,1.1.91a.37.37,0,0,1-.24.23c-.85.06-.78-.6-.85-1.15Z"/><path class="cls-301" d="M34.23,58.08c-1.12,1-1.27.23-1.32-.73Z"/><path class="cls-302" d="M40.89,51.41c.45,0,1,0,1.17.49,0,.1-.19.44-.26.43-.52-.07-.75-.47-.91-.93Z"/><path class="cls-297" d="M46.71,47.73a1.44,1.44,0,0,1,.75-1.5C47.85,47.06,48,47.75,46.71,47.73Z"/><path class="cls-303" d="M52.54,48.46a1.34,1.34,0,0,1-1.39.68C51.38,48.42,52,48.42,52.54,48.46Z"/><path class="cls-304" d="M38,52.15c.33.16.72.67.53.74-.86.36-.34-.48-.53-.75Z"/><path class="cls-305" d="M38,56.56c-.4.85-.85.85-1.33.06Z"/><path class="cls-145" d="M44.54,58c0-.23,0-.46,0-.69l.73,0Z"/><path class="cls-306" d="M10.18,31.43l.63-.75c.59-.78,1.21-1.43,2.26-.71a17,17,0,0,0,.24,2.15A5.08,5.08,0,0,0,14,33.36C11.89,34.22,11.83,31.24,10.18,31.43Z"/><path class="cls-127" d="M13.07,30l-2.26.71c-.26-.59-.81-.63-1.34-.72a1.73,1.73,0,0,0,0-2.13l1.39-.78.28.07.68.57c.47.5,1.65.41,1.29,1.58A4.05,4.05,0,0,1,13.07,30Z"/><path class="cls-239" d="M13.14,29.27a1,1,0,0,0-1.19-.5c-.91.22-.95-.37-.94-1a2.71,2.71,0,0,1,2.13-.31c.55,0,1.12-.07,1.54.43A3,3,0,0,1,13.14,29.27Z"/><path class="cls-307" d="M12.42,38.86l-.82-1.34.12-.17a1,1,0,0,1,1.38,0c0,.27.05.53.07.79-.05.82.1,1.69-.71,2.26C12.44,39.86,12.43,39.36,12.42,38.86Z"/><path class="cls-308" d="M16.79,30.78c0,.47,0,.94,0,1.41h0c-.56,0-1.37.27-1.63-.27s.39-1,.93-1.25C16.36,30.38,16.6,30.43,16.79,30.78Z"/><path class="cls-309" d="M17.53,27.8c.66.08,1.61.09,1.59.89,0,1-1,.42-1.59.58Z"/><path class="cls-296" d="M16.77,32.19a1.62,1.62,0,0,1,.76,1.51c-.53-.1-1.28.29-1.52-.39-.09-.24.5-.73.77-1.11Z"/><path class="cls-306" d="M11,33.7l-.5,0h-.32a9.89,9.89,0,0,0-.64-.81c.07-.54.08-1.12.66-1.41A4.56,4.56,0,0,1,11,33.7Z"/><path class="cls-127" d="M14.68,27.87l-1.6-.08c-.21-.17-.27-.33-.19-.49s.15-.23.22-.23c1,.11,2.12-.35,2.9.67Z"/><path class="cls-113" d="M15.37,38.83c.54.09,1.14-.11,1.57.41-.43.51-1,.31-1.57.39l-.06-.06c-.22-.15-.29-.3-.22-.45s.15-.23.22-.23Z"/><path class="cls-310" d="M13.1,37.31l-1.38,0c-.13-.64,0-1.16.67-1.4h0a5.42,5.42,0,0,1,.71.8A1.37,1.37,0,0,1,13.1,37.31Z"/><path class="cls-296" d="M16.79,30.78a2.44,2.44,0,0,1-.71-.1c.06-.53-.19-1.14.41-1.53C16.93,29.63,16.74,30.23,16.79,30.78Z"/><path class="cls-259" d="M13.1,36.74l-.71-.8A.93.93,0,0,1,13.1,36.74Z"/><path class="cls-253" d="M55.48,19a1.41,1.41,0,0,1-1.87.57c-.83-.26-1.06.19-1.06.91l-.11.07c-1.69-.42-1.6-1.68-1.38-3l.79,0,1.45.72C54.27,17.73,55.25,17.24,55.48,19Z"/><path class="cls-181" d="M55.48,19c-.53-.82-1.43-.59-2.18-.76.11-1-.37-2.17.75-2.91a1.94,1.94,0,0,1,.68,1.44c.4,1,1.6.53,2.14,1.24a1.19,1.19,0,0,0-.67,1h-.72Z"/><path class="cls-311" d="M54.73,16.73c-.67-.27-.74-.82-.68-1.44h1.38a1.23,1.23,0,0,1,0,.71h0a8.5,8.5,0,0,0-.75.72Z"/><path class="cls-312" d="M13.11,27.07a4.34,4.34,0,0,1,0,.72l-2.07,0a1.55,1.55,0,0,1,.16-.63C11.8,26.43,12.46,26.67,13.11,27.07Z"/><path class="cls-313" d="M8.77,34.44H7.34L7,34.16A1.53,1.53,0,0,1,7.27,33C8.47,32.73,8.74,33.46,8.77,34.44Z"/><path class="cls-314" d="M7.34,34.43l-.09.73-1.46.76L6,34.47a1.62,1.62,0,0,0,.62,0c.24-.33.48-.35.73,0Z"/><path class="cls-264" d="M7.32,34.41H6.59A1.33,1.33,0,0,1,7.27,33C7.29,33.44,7.31,33.93,7.32,34.41Z"/><path class="cls-315" d="M7.31,31.49l.36.31c-.07,0-.16,0-.2,0a1.2,1.2,0,0,1-.16-.27Z"/><path class="cls-316" d="M9.5,32.87a.71.71,0,0,1,.64.81Z"/><path class="cls-287" d="M51.06,17.51c.73.88.51,2.19,1.38,3,.25,1.29-2.16,2.11-.61,3.61v.74c-1.19-.83-2.21-.45-3.33.29-1.36.91-2,.49-1.91-1.19,0-.4.76-1.11,0-1.16-2.14-.14-2-2.09-2.74-3.27A8.82,8.82,0,0,0,39,16.1c-1.29-.43-3.45,1.24-5,2.31-1.38,1-1.26,1.18-1.71-.26-.13-.42.28-1-.46-1.35-1.58.3-1.76,2.12-2.83,3s-1.12-.15-1.29-.84h0c-.56-.19-1.1-.56-1.72-.18-.27.17-.78.57-.47.72,1.92.91,1.5,1.71-.11,2.3-2,.73-1.51-1.26-2.08-2.09h0a2.54,2.54,0,0,0-1.46,1.48,4.75,4.75,0,0,1-2.9-.76c0-.48,0-1,0-1.46l.7-.72c.85.45,1.08-.41,1.55-.76a4.62,4.62,0,0,1,2.87-.73c.11,0,.16.19.3.15-.45-.18.15,0-.31-.15-.41-2.87,2.07-2.83,3.65-3.68.84.65,1.54,1.5,2.4,2.09,1.28.89,0-.72.52-.62l.74-1.46c2.35,1.25,2.35,1.25,5.82.73a.45.45,0,0,1,.73,0c.8,0,1.64.13,2.22-.65a.93.93,0,0,1,1.44-.06,1.54,1.54,0,0,0,1.44.74,4.94,4.94,0,0,0,2.24,1.43.44.44,0,0,1,.7.1c.4.52-1.44,2.48,1.08,1.64,1-.34,1.44.49,1.84,1.23s-.42.94-.4,1.48c.93-.05.55-1.14,1.15-1.46Z"/><path class="cls-317" d="M34.35,10.11h.72c.73.27,1.44-.82,2.17,0,.42.27.42.53,0,.8C35.13,12.47,35,12.44,34.35,10.11Z"/><path class="cls-221" d="M31.37,13a1.32,1.32,0,0,1-.65-1.41l.66-.76,0-.71c.23-.37.47-.35.71,0C33.8,11.59,32,12.14,31.37,13Z"/><path class="cls-318" d="M37.24,10.88v-.8c.92,0,1.49-.3,1.4-1.34.23-.37.49-.38.78-.09a4.37,4.37,0,0,1,.73,2.21Z"/><path class="cls-319" d="M41.61,13.08l-1.44.06c-.24-.27-1.39.29-.74-.81.23-.25.5-.47.73-.73h0A1.32,1.32,0,0,1,41.61,13.08Z"/><path class="cls-130" d="M32.12,10.12h-.71c0-.5,0-1,0-1.49l.75.06Z"/><path class="cls-245" d="M40.16,11.6l-.73.73Z"/><path class="cls-320" d="M38,13.79l-.37,0h-.36C37.46,13.28,37.7,13.24,38,13.79Z"/><path class="cls-129" d="M38.59,7.82c.35-.66,1-.66,1.59-.66l-.65.76C39.17,8.28,38.86,8.25,38.59,7.82Z"/><path class="cls-321" d="M38.59,7.82l.94.1a2,2,0,0,1-.11.73l-.78.08a2.18,2.18,0,0,0-.57-.15C38,8.18,38.3,8,38.59,7.82Z"/><path class="cls-322" d="M44.53,13.06a.81.81,0,0,1-.69.63q-.31-.18-.24-.42c0-.16.11-.24.17-.24a1,1,0,0,1,.77-.7h0a.45.45,0,0,1,.18.5C44.65,13,44.59,13.06,44.53,13.06Z"/><path class="cls-162" d="M43.77,13c0,.22,0,.45.07.67l-.33,0-.33,0Z"/><path class="cls-323" d="M30.66,14.54l1.64,1.3c-2.54.57-3.8-.7-4.56-2.77.37-.52.73-.31,1.1,0Z"/><path class="cls-324" d="M21.23,17.48c0,1.38-.68,1.24-1.55.76l-1.46-1.47.8,0Z"/><path class="cls-130" d="M29.92,10.09c0-.25,0-.49,0-.73.28.12.38.31.25.54S30,10,29.92,10.09Z"/><path class="cls-74" d="M27.78,10.82a2,2,0,0,1,0-.65.78.78,0,0,1,.68.68l-.34,0Z"/><path class="cls-130" d="M31.38,10.83l-.66.76Z"/><path class="cls-191" d="M54.76,30h.71l-.71.72h0a.49.49,0,0,1-.14-.48Q54.68,30,54.76,30Z"/><path class="cls-325" d="M54.72,44.05a1.36,1.36,0,0,1-.63,1.4A1.2,1.2,0,0,1,54.72,44.05Z"/><path class="cls-326" d="M15.31,38.89c0,.23,0,.45,0,.68-.36,0-.91,0-.91-.34S15,38.9,15.31,38.89Z"/><path class="cls-327" d="M8.71,36.75c-1-1.13-.37-1.45.75-1.5C10.06,36.18,9.81,36.69,8.71,36.75Z"/><path class="cls-328" d="M49.66,18.24c.06.83.13,1.66.22,2.7-1.41.25-2.73-.08-3-1.54s1.79.05,2-1.18Z"/><path class="cls-162" d="M44.53,13.06c0-.25,0-.49,0-.74l.75,0Z"/><path class="cls-329" d="M46,15.35l-.7-.1C45.61,14.67,45.82,14.86,46,15.35Z"/><path class="cls-330" d="M49.05,60.43c-.43-.12-1.12-.13-1.08-.65.06-.92.84-1,1.59-.94l.21-.09a1.17,1.17,0,0,1-.13,1.49h0A1.33,1.33,0,0,0,49.05,60.43Z"/><path class="cls-331" d="M48.12,57.35c-.47.9-.93.75-1.37,0Z"/><path class="cls-168" d="M51.89,54.23l.72.78A.77.77,0,0,1,51.89,54.23Z"/><path class="cls-171" d="M55.5,51.36l.64.8Z"/><path class="cls-332" d="M49.64,60.24c0-.5.09-1,.13-1.49h1.28a1.24,1.24,0,0,1,.08.71.87.87,0,0,0-.73.78Z"/><path class="cls-181" d="M54.73,16.73l.75-.72Z"/><path class="cls-287" d="M51.1,30a3.48,3.48,0,0,1-1.42-3.43c.24-1.33,2.32-.07,2.15-1.73,2.26.61.17,2.36.92,3.57C53.76,30.06,52.09,29.91,51.1,30Z"/><path class="cls-287" d="M51.1,31.49a4.48,4.48,0,0,1-1,0c-.3-.08-.79-.26-.83-.46-.14-.77.56-.43.9-.58l1-.38Z"/><path class="cls-205" d="M54.76,30c0,.24,0,.48,0,.72C54.25,30.51,54.24,30.27,54.76,30Z"/><path class="cls-287" d="M16.07,16.75h.73v.74h-.73Z"/><path class="cls-287" d="M39.43,19c1,.1,2.14-.34,2.91.72,0,.62-2.44,0-.72,1.49C39.8,21.45,39,20,38,19A1,1,0,0,1,39.43,19Z"/><path class="cls-333" d="M41.62,21.17c-.29-.37-.89-.86-.8-1.09.25-.67,1-.29,1.52-.4a1.56,1.56,0,0,1,.73,1.49c-.24.31-.48.31-.73,0Z"/><path class="cls-334" d="M39.43,19H38c0-.46.09-1,.57-1.12C39.33,17.7,39.32,18.42,39.43,19Z"/><path class="cls-287" d="M42.34,21.18h.73c.36.24.87.65.33.92S42.58,21.64,42.34,21.18Z"/><path class="cls-218" d="M43.28,48c0,.1-.07.26-.1.26a.91.91,0,0,1-.31-.09c0-.09.06-.26.1-.26A1.34,1.34,0,0,1,43.28,48Z"/><path class="cls-244" d="M24.09,16.75l.9-.55c.54-.35,1-1.12,1.74-.33a.83.83,0,0,1,.16.65c-.21.89-.91.95-1.64.92a1.5,1.5,0,0,1-1.15-.69Z"/><path class="cls-335" d="M27.75,19,28,18c.69.54.06.73-.27,1Z"/><path class="cls-336" d="M23.36,19.7c.1-.33.19-.65.28-1,.68.55,0,.72-.27,1Z"/><path class="cls-337" d="M30.76,53.08h7.29V34.83h5.09l.54-6.11H38.05V25.23c0-1.44.29-2,1.69-2h3.94V16.88h-5c-5.42,0-7.87,2.39-7.87,7v4.88H27V34.9h3.79Z"/></g></g></svg>