<svg xmlns="http://www.w3.org/2000/svg" viewBox="0 0 97.23 93.99"><defs><style>.cls-1{fill:#fff;}</style></defs><g id="Layer_2" data-name="Layer 2"><g id="OBJECTS"><path d="M76.76,35.49c0,1.11-.62,2.82-.21,3.8a8.16,8.16,0,0,0,1.11,1.64c1.38,1.9,1.79,4.3,2.16,6.62s-2.09,3-1.21,5.5c.92,2.68,1.46,3.14,0,6-.62,1.17-.66,2.42-1.64,3.41s-1.37,1-1.77,2.09.82,2.78-1.49,3.11c-1.74.25-2.5-.89-3.57.5-.36.47-.18,2.13-.63,2.7-.26.31-.72.29-1.58-.48C66.32,69,66.26,69,65,70.46a2.2,2.2,0,0,1-2.3,1.05,3.41,3.41,0,0,0-3.29,1.39c-.88,1.06-1.9,2-3.37.76a1,1,0,0,0-.95,0c-.73.19,0,1.38-.76,1.26-.46-.07-.72-.86-1.44-.76a4.3,4.3,0,0,0-1.72.93c-.85.53-1.74.83-2-.68-.17-1-.78-1.16-1.62-.61a6.6,6.6,0,0,1-1.51.84,2.85,2.85,0,0,1-3.8-1.74c-.66-1.56-.66-1.57-2.33-1.08a6,6,0,0,0-1.17.42c-1.6.84-1.61.86-2.6-.68a1.58,1.58,0,0,0-1.93-.68C33.4,71,33,71.91,32,72.07c-.52-1.25.56-1.79.82-2.62.5-1.58.47-1.8-1.09-2.4-1-.36-1.93-.46-2.09-2-.13-1.21-2.39-2.25-4.13-2.26.82-2.22-.51-4-1.25-5.85-2.62-1.14-3.4-4-5.6-5.82,2.34-1.61,2.84-4,2.88-6.51,0-.34,0-.71.42-.82,1.58-.44,1.61-1.75,1.64-3A3.35,3.35,0,0,1,25,38.07c.68-.51,1.42-1,1.05-2,0-.06,0-.17.08-.23.61-.88.94-2,1.91-2.58a5.06,5.06,0,0,1-.85-2.95c0-.34,0-.72.36-.82,2.87-.74,3.95-3.37,5.61-5.35A2.36,2.36,0,0,1,35.52,23c3,.37,5.62-1.28,8.28-2.36.81-.32,1.66-.68,2.48-1.07A2.39,2.39,0,0,1,49,20a4.74,4.74,0,0,0,3.36,1.38,3.8,3.8,0,0,0,2.31-.67c1.76-1.31,2.42-1.15,3.6.66a6.45,6.45,0,0,0,1.88,2.28c1.69,1,3.16.65,4.52-.72.54,2.14,1,1.3,2.29,2,.86.43.7-.34,1.59.55.42.42.54,1.68.91,2.24,1.63,2.49,4.86,3.14,6.75,5.32,2,2.35.71,5.29,2,7.81,1.11,2.13,4,3.25,2.2,6-.78,1.19-2.57,1.64-2.9,3a8.72,8.72,0,0,0,0,1.45,3.06,3.06,0,0,1-1,2.16"/><path d="M29.73,74.16c1.26-1.06,1.23-1,2,.48.41.8,1.12,1.46,1.2,2.42.11,1.31-.46,1.75-1.68,1.28-.3-.11-.63-.17-.93-.3C28,77.07,27.8,75.77,29.73,74.16Z"/><path d="M90.25,53.23c-2.12-.68-4.51.32-6.5-1.22C85,50.91,86.27,51.12,90.25,53.23Z"/><path d="M20.3,26.38a3.89,3.89,0,0,1-2.3-.86,1.4,1.4,0,0,1-.69-1.26c0-.33.27-.4.5-.43.63-.07,1.23.06,1.38.76S19.93,25.68,20.3,26.38Z"/><path d="M14.35,40.69c-.92,1.29-2.16.78-3.4.78C12.2,39.76,12.38,39.73,14.35,40.69Z"/><path d="M25,23.66a1,1,0,0,1,1.36.18.9.9,0,0,1,.08,1.33c-.45.43-1,.14-1.36-.16A.93.93,0,0,1,25,23.66Z"/><path d="M50.67,92.46c.38-1.3.6-2.54-.45-3.66C52.1,90.68,52.14,91,50.67,92.46Z"/><path d="M88.06,82c-.16.18-.22.29-.28.29-1,.06-1.85-.11-2-1.31a.46.46,0,0,1,.44-.51C87.31,80.49,87.72,81.23,88.06,82Z"/><path d="M72.88,92.36c-.94.31-1.5-.28-2.11-.59a.57.57,0,0,1-.16-.85.64.64,0,0,1,.87-.16A2.61,2.61,0,0,1,72.88,92.36Z"/><path d="M97.23,34.21c-.44.78-.7,1.27-1,1.74s-.52.67-1,.33-.23-.6-.12-.9C95.34,34.83,95.36,34.84,97.23,34.21Z"/><path d="M14.36,83.8a.73.73,0,0,1,1.08-.13.92.92,0,0,1,.17,1.3.65.65,0,0,1-1,.09A.87.87,0,0,1,14.36,83.8Z"/><path d="M92.1,39.31a2.68,2.68,0,0,1-2.39.68C90.29,38.88,91,38.84,92.1,39.31Z"/><path d="M68.79,89.83c.22.26.42.64,0,1a.82.82,0,0,1-1.09,0,.69.69,0,0,1-.07-1.06C68,89.39,68.39,89.45,68.79,89.83Z"/><path d="M52,6.46c.53-.4,1-.06,1.53.21.23.13.37.45.22.61a1,1,0,0,1-1.52,0C52,7.12,51.69,6.88,52,6.46Z"/><path d="M32.64,0c1,.57,1,1.36,1.31,2.27A2.1,2.1,0,0,1,32.64,0Z"/><path d="M59.75,83.62c.2.16.29.2.31.26A4.36,4.36,0,0,1,60.33,85c0,.21-.37.31-.58.12-.37-.32-.17-.74-.14-1.13A2.76,2.76,0,0,1,59.75,83.62Z"/><path d="M9.69,74.94c.18.16.36.38.06.53s-.44-.06-.63-.17S9,75,9,74.9A.43.43,0,0,1,9.69,74.94Z"/><path d="M19.09,80.28c.16-.15.36-.12.54.1a.51.51,0,0,1,.1.64c-.19.26-.42.11-.58-.06A.47.47,0,0,1,19.09,80.28Z"/><path d="M27.4,82.78c.82.42,1,.82.84,1.37,0,.21-.16.27-.36.18C27.17,84,27.34,83.46,27.4,82.78Z"/><path d="M39.2,89.6a.58.58,0,0,1-.08-.91.67.67,0,0,1,.64-.09.55.55,0,0,1,.06.86C39.69,89.59,39.38,89.56,39.2,89.6Z"/><path d="M42.62,81.63c.18-.22.41-.31.61-.1a.6.6,0,0,1,0,.87.52.52,0,0,1-.46.06C42.39,82.29,42.48,82,42.62,81.63Z"/><path d="M.28,32.76c.18,0,.47,0,.58.16a.48.48,0,0,1-.1.79.69.69,0,0,1-.63-.08C-.09,33.38,0,33.06.28,32.76Z"/><path d="M85.43,54.14c.25-.18.48-.36.63,0s0,.62-.26.87-.43.38-.58.18C84.91,54.75,85.22,54.41,85.43,54.14Z"/><path d="M26.09,14.51a.68.68,0,0,1,.79.42c.1.22,0,.31-.21.33s-.65,0-.8-.37C25.79,14.7,25.89,14.56,26.09,14.51Z"/><path d="M78.69,74.29c0,.44.1.73,0,.86a.43.43,0,0,1-.75-.07.65.65,0,0,1,.06-.62C78.13,74.32,78.42,74.35,78.69,74.29Z"/><path d="M41.12,18l-.24-.41a1.24,1.24,0,0,1,.28.22,2,2,0,0,1,.14.34Z"/><path d="M48.62,85.27c-.23-.33-.54-.67-.19-1.07a.33.33,0,0,1,.58.07,1.11,1.11,0,0,1,.14.92C49,85.64,48.81,85.31,48.62,85.27Z"/><path d="M49.24,93.25a.5.5,0,0,1-.07.66.28.28,0,0,1-.48-.23,2.48,2.48,0,0,1,.16-.68Z"/><path d="M91,68.36a.48.48,0,0,1-.14-.63c.16-.27.42-.19.59,0a.51.51,0,0,1,.12.44C91.48,68.44,91.25,68.47,91,68.36Z"/><path d="M22.72,23.41c0-.2-.11-.48,0-.64.19-.33.37-.07.43.13a3.14,3.14,0,0,1,0,.69Z"/><path d="M13.36,48.72c.14,0,.31-.09.4,0s.11.25,0,.35a.29.29,0,0,1-.22,0C13.29,49,13.25,48.89,13.36,48.72Z"/><path d="M36.28,89.45c.12.22.39.49.15.79s-.41.08-.57-.08-.47-.47-.18-.78S36.08,89.15,36.28,89.45Z"/><path d="M15.24,81.28a.4.4,0,0,1,.59.14c.05.08-.06.31-.16.4s-.45.15-.55-.13C15.08,81.58,15.19,81.42,15.24,81.28Z"/><path d="M12.68,81.45c.14,0,.32-.12.4-.07a.34.34,0,0,1,.12.55.47.47,0,0,1-.41.08C12.53,81.9,12.54,81.67,12.68,81.45Z"/><path d="M80,9.43a.49.49,0,0,1-.35.54c-.12,0-.28-.06-.42-.1.14-.18.27-.38.42-.54S80,9.21,80,9.43Z"/><path d="M78.23,10.9l.41.18a4.94,4.94,0,0,1-.42.57c-.16.15-.32.07-.33-.16A.53.53,0,0,1,78.23,10.9Z"/><path d="M27,37.5c-.8-1.21.06-2.07.62-3"/><path d="M44.49,19.92l.52.55"/><path d="M38.36,23.64c1.28-1.48,3.17-1.34,4.84-1.81"/><path d="M25.66,39.41c-1.88.94-1.88.94-1.5,2.79"/><path d="M83.63,51.91c1.84-.19,3.52.65,5.29.93.43.07,1-.16,1.41.33"/><path d="M27.2,29.35l.51.54"/><path d="M50.72,92.27c1-.67.81-1.56.43-2.47-.18-.42-1.08-.55-.5-1.26"/><path d="M11.06,41.47a3.61,3.61,0,0,1,3-.8"/><path d="M70.61,91.07l2.27,1.31"/><path d="M86.17,80.53c.23,1,1.07,1.33,1.9,1.65"/><path d="M32.66.07A5.76,5.76,0,0,0,34,2.24"/><path d="M64,24.57A1.53,1.53,0,0,1,65.32,23"/><path d="M17.6,23.93a11.28,11.28,0,0,0,2.59,2.38"/><path d="M41,17c-.58.86.48.95.67,1.44"/><path d="M89.65,40c.65-.08,1-.94,1.79-.66"/><path d="M36.57,72.88l.54-.51"/><path d="M15,84.31l.69.73"/><path class="cls-1" d="M29.52,46.79a14.36,14.36,0,0,1,23.8-10.74C52.15,37.33,51,38.6,49.7,39.79c-2.51-1.52-5.52-2.68-8.44-1.65a9,9,0,1,0,6.07,17A7.9,7.9,0,0,0,52,49.7c-2.73-.05-5.46,0-8.19-.09,0-1.63,0-3.24,0-4.86,4.55,0,9.1,0,13.66,0,.28,4-.31,8.23-2.89,11.42-3.54,4.55-10.08,5.89-15.4,4.1a14.27,14.27,0,0,1-9.63-13.5"/><path class="cls-1" d="M66.3,40.65h4.06l0,4.08c1.35,0,2.72,0,4.07,0v4.06l-4.07,0c0,1.37,0,2.72,0,4.09H66.29c0-1.37,0-2.72,0-4.08l-4.08,0V44.76l4.08,0,0-4.08"/></g></g></svg>