<svg xmlns="http://www.w3.org/2000/svg" viewBox="0 0 70.33 74.43"><defs><style>.cls-1{fill:#c4c3c3;}.cls-2{fill:#dfdbdb;}.cls-3{fill:#d8dddd;}.cls-4{fill:#ebe9e9;}.cls-5{fill:#e2e4e4;}.cls-6{fill:#acaeae;}.cls-7{fill:#737676;}.cls-8{fill:#eae9e9;}.cls-9{fill:#939393;}.cls-10{fill:#afabab;}.cls-11{fill:#a3a1a1;}.cls-12{fill:#b4b0b0;}.cls-13{fill:#aca7a7;}.cls-14{fill:#7c7e7e;}.cls-15{fill:#d4d8d8;}.cls-16{fill:#ececec;}.cls-17{fill:#767979;}.cls-18{fill:#b7b6b6;}.cls-19{fill:#dfe5e5;}.cls-20{fill:#c0c4c4;}.cls-21{fill:#c2c5c5;}.cls-22{fill:#949595;}.cls-23{fill:#bab9b9;}.cls-24{fill:#918b8b;}.cls-25{fill:#d9d7d7;}.cls-26{fill:#dde1e1;}.cls-27{fill:#868787;}.cls-28{fill:#b1baba;}.cls-29{fill:#7f8181;}.cls-30{fill:#dce9e9;}.cls-31{fill:#8e8d8d;}.cls-32{fill:#908b8b;}.cls-33{fill:#e2e6e6;}.cls-34{fill:#adaaaa;}.cls-35{fill:#a6a1a1;}.cls-36{fill:#d3d5d5;}.cls-37{fill:#cccdcd;}.cls-38{fill:#6e6b6b;}.cls-39{fill:#636565;}.cls-40{fill:#e8ecec;}.cls-41{fill:#cdd1d1;}.cls-42{fill:#d9dcdc;}.cls-43{fill:#949292;}.cls-44{fill:#818282;}.cls-45{fill:#e7e9e9;}.cls-46{fill:#c9c4c4;}.cls-47{fill:#c2bfbf;}.cls-48{fill:#707171;}.cls-49{fill:#cdcccc;}.cls-50{fill:#dedcdc;}.cls-51{fill:#6e6e6e;}.cls-52{fill:#696161;}.cls-53{fill:#a2a1a1;}.cls-54{fill:#595555;}.cls-55{fill:#595858;}.cls-56{fill:#9e9d9d;}.cls-57{fill:#d2d1d1;}.cls-58{fill:#c6c5c5;}.cls-59{fill:#7d7979;}.cls-60{fill:#6d7676;}.cls-61{fill:#aba3a3;}.cls-62{fill:#b9b3b3;}.cls-63{fill:#938c8c;}.cls-64{fill:#727676;}.cls-65{fill:#767878;}.cls-66{fill:#918989;}.cls-67{fill:#817878;}.cls-68{fill:#8d8c8c;}.cls-69{fill:#c3c0c0;}.cls-70{fill:#a79999;}.cls-71{fill:#939090;}.cls-72{fill:#989f9f;}.cls-73{fill:#aca5a5;}.cls-74{fill:#747676;}.cls-75{fill:#c3c6c6;}.cls-76{fill:#d8d7d7;}.cls-77{fill:#736a6a;}.cls-78{fill:#e4e5e5;}.cls-79{fill:#626161;}.cls-80{fill:#c5cece;}.cls-81{fill:#716f6f;}.cls-82{fill:#716b6b;}.cls-83{fill:#d4cccc;}.cls-84{fill:#ada5a5;}.cls-85{fill:#878383;}.cls-86{fill:#7d8181;}.cls-87{fill:#798080;}.cls-88{fill:#5b5858;}.cls-89{fill:#4e4d4d;}.cls-90{fill:#716c6c;}.cls-91{fill:#9e9f9f;}.cls-92{fill:#999c9c;}.cls-93{fill:#514f4f;}.cls-94{fill:#a1a9a9;}.cls-95{fill:#9a9595;}.cls-96{fill:#736e6e;}.cls-97{fill:#857d7d;}.cls-98{fill:#999797;}.cls-99{fill:#b7c1c1;}.cls-100{fill:#5c5b5b;}.cls-101{fill:#828a8a;}.cls-102{fill:#505c5c;}.cls-103{fill:#828080;}.cls-104{fill:#cbc8c8;}.cls-105{fill:#4f4b4b;}.cls-106{fill:#a6a8a8;}.cls-107{fill:#b6bdbd;}.cls-108{fill:#4f4d4d;}.cls-109{fill:#525454;}.cls-110{fill:#555353;}.cls-111{fill:#777070;}.cls-112{fill:#becccc;}.cls-113{fill:#1c1d1d;}.cls-114{fill:#414242;}.cls-115{fill:#d3d1d1;}.cls-116{fill:#595959;}.cls-117{fill:#1d1c1c;}.cls-118{fill:#463838;}.cls-119{fill:#423e3e;}.cls-120{fill:#eaeaea;}.cls-121{fill:#878686;}.cls-122{fill:#c9cccc;}.cls-123{fill:#797474;}.cls-124{fill:#c5c3c3;}.cls-125{fill:#7f7d7d;}.cls-126{fill:#272424;}.cls-127{fill:#404141;}.cls-128{fill:#6b6a6a;}.cls-129{fill:#666363;}.cls-130{fill:#312d2d;}.cls-131{fill:#3a3c3c;}.cls-132{fill:#5c5f5f;}.cls-133{fill:#fefefe;}.cls-134{fill:#676363;}.cls-135{fill:#e2e3e3;}.cls-136{fill:#d5dede;}.cls-137{fill:#453f3f;}.cls-138{fill:#d6d8d8;}.cls-139{fill:#999d9d;}.cls-140{fill:#636262;}.cls-141{fill:#717474;}.cls-142{fill:#7d7f7f;}.cls-143{fill:#cbe3e3;}.cls-144{fill:#222121;}.cls-145{fill:#232424;}.cls-146{fill:#909494;}.cls-147{fill:#5c6363;}.cls-148{fill:#eceeee;}.cls-149{fill:#464848;}.cls-150{fill:#363737;}.cls-151{fill:#bbb;}.cls-152{fill:#c1caca;}.cls-153{fill:#b6bcbc;}.cls-154{fill:#504646;}.cls-155{fill:#9c9f9f;}.cls-156{fill:#403b3b;}.cls-157{fill:#4f4f4f;}.cls-158{fill:#696666;}.cls-159{fill:#1c1717;}.cls-160{fill:#8f9999;}.cls-161{fill:#6e6d6d;}.cls-162{fill:#484545;}.cls-163{fill:#5d5b5b;}.cls-164{fill:#bcc4c4;}.cls-165{fill:#aeb5b5;}.cls-166{fill:#6c6464;}.cls-167{fill:#4a4949;}.cls-168{fill:#464545;}.cls-169{fill:#7f8080;}.cls-170{fill:#afb4b4;}.cls-171{fill:#474343;}.cls-172{fill:#3b3131;}.cls-173{fill:#c5cfcf;}.cls-174{fill:#706c6c;}.cls-175{fill:#6a6666;}.cls-176{fill:#b8b9b9;}.cls-177{fill:#757878;}.cls-178{fill:#383434;}.cls-179{fill:#bfcfcf;}.cls-180{fill:#999;}.cls-181{fill:#5e5c5c;}.cls-182{fill:#bcc2c2;}.cls-183{fill:#9ba4a4;}.cls-184{fill:#8c8c8c;}.cls-185{fill:#4a5252;}.cls-186{fill:#787f7f;}.cls-187{fill:#dae9e9;}.cls-188{fill:#333131;}.cls-189{fill:#474141;}.cls-190{fill:#a5a6a6;}.cls-191{fill:#272626;}.cls-192{fill:#575656;}.cls-193{fill:#323030;}.cls-194{fill:#818181;}.cls-195{fill:#1c1c1c;}.cls-196{fill:#322f2f;}.cls-197{fill:#494d4d;}.cls-198{fill:#343535;}.cls-199{fill:#413d3d;}.cls-200{fill:#443f3f;}.cls-201{fill:#5d6060;}.cls-202{fill:#898b8b;}.cls-203{fill:#4c5e5e;}.cls-204{fill:#b8d1d1;}.cls-205{fill:#1d1d1d;}.cls-206{fill:#3d3b3b;}.cls-207{fill:#626060;}.cls-208{fill:#babdbd;}.cls-209{fill:#454545;}.cls-210{fill:#a2a9a9;}.cls-211{fill:#3b3e3e;}.cls-212{fill:#697979;}.cls-213{fill:#292121;}.cls-214{fill:#a9a9a9;}.cls-215{fill:#6c6e6e;}.cls-216{fill:#434242;}.cls-217{fill:#b3bfbf;}.cls-218{fill:#101010;}.cls-219{fill:#0c0c0c;}.cls-220{fill:#111010;}.cls-221{fill:#363636;}.cls-222{fill:#4d5151;}.cls-223{fill:#5e6363;}.cls-224{fill:#202222;}.cls-225{fill:#474a4a;}.cls-226{fill:#565f5f;}.cls-227{fill:#333737;}.cls-228{fill:#606060;}.cls-229{fill:#575959;}.cls-230{fill:#626363;}.cls-231{fill:#697d7d;}.cls-232{fill:#4c4848;}.cls-233{fill:#9da3a3;}.cls-234{fill:#808d8d;}.cls-235{fill:#535050;}.cls-236{fill:#9a9f9f;}.cls-237{fill:#919090;}.cls-238{fill:#555a5a;}.cls-239{fill:#303333;}.cls-240{fill:#747a7a;}.cls-241{fill:#4f5959;}.cls-242{fill:#241d1d;}.cls-243{fill:#8c9191;}.cls-244{fill:#161414;}.cls-245{fill:#252222;}.cls-246{fill:#2f2c2c;}.cls-247{fill:#8e9191;}.cls-248{fill:#778686;}.cls-249{fill:#111;}.cls-250{fill:#222;}.cls-251{fill:#313232;}.cls-252{fill:#5a5b5b;}.cls-253{fill:#262323;}.cls-254{fill:#94a8a8;}.cls-255{fill:#7b7777;}.cls-256{fill:#534a4a;}.cls-257{fill:#555656;}.cls-258{fill:#7a9191;}.cls-259{fill:#2b2c2c;}.cls-260{fill:#889090;}.cls-261{fill:#738282;}.cls-262{fill:#141919;}.cls-263{fill:#566767;}.cls-264{fill:#434040;}.cls-265{fill:#100f0f;}.cls-266{fill:#7b9191;}.cls-267{fill:#262525;}.cls-268{fill:#5a5d5d;}.cls-269{fill:#9fa1a1;}.cls-270{fill:#beb9b9;}.cls-271{fill:#a4acac;}.cls-272{fill:#a3a7a7;}.cls-273{fill:#2f3030;}.cls-274{fill:#252525;}.cls-275{fill:#575d5d;}.cls-276{fill:#99b9b9;}.cls-277{fill:#7c8989;}.cls-278{fill:#e1e0e0;}.cls-279{fill:#7b8080;}.cls-280{fill:#adb7b7;}.cls-281{fill:#343636;}.cls-282{fill:#575858;}.cls-283{fill:#9d9999;}.cls-284{fill:#ecf5f5;}.cls-285{fill:#dce0e0;}.cls-286{fill:#121212;}.cls-287{fill:#0c0b0b;}.cls-288{fill:#201f1f;}.cls-289{fill:#3e3d3d;}.cls-290{fill:#121010;}.cls-291{fill:#8f9898;}.cls-292{fill:#767676;}.cls-293{fill:#a9b3b3;}.cls-294{fill:#635858;}.cls-295{fill:#727777;}.cls-296{fill:#080808;}.cls-297{fill:#242727;}.cls-298{fill:#1d1f1f;}.cls-299{fill:#3e3f3f;}.cls-300{fill:#353838;}.cls-301{fill:#3f4444;}.cls-302{fill:#333;}.cls-303{fill:#4a5050;}.cls-304{fill:#2e3131;}.cls-305{fill:#445d5d;}.cls-306{fill:#2b2929;}.cls-307{fill:#292828;}.cls-308{fill:#363a3a;}.cls-309{fill:#1f2020;}.cls-310{fill:#747e7e;}.cls-311{fill:#9ca4a4;}.cls-312{fill:#161313;}.cls-313{fill:#141212;}.cls-314{fill:#8d9c9c;}.cls-315{fill:#a1b4b4;}.cls-316{fill:#8ca5a5;}.cls-317{fill:#2d2e2e;}.cls-318{fill:#3c3c3c;}.cls-319{fill:#353939;}.cls-320{fill:#323838;}.cls-321{fill:#7a7f7f;}.cls-322{fill:#535656;}.cls-323{fill:#212121;}.cls-324{fill:#464747;}.cls-325{fill:#464a4a;}.cls-326{fill:#3b3c3c;}.cls-327{fill:#171212;}.cls-328{fill:#1b1b1b;}.cls-329{fill:#404242;}.cls-330{fill:#242121;}.cls-331{fill:#859d9d;}.cls-332{fill:#a6b0b0;}.cls-333{fill:#181818;}.cls-334{fill:#1a1e1e;}.cls-335{fill:#2d3030;}.cls-336{fill:#222525;}.cls-337{fill:#fff;}</style></defs><g id="Layer_2" data-name="Layer 2"><g id="OBJECTS"><path class="cls-1" d="M9.52,22c-1-2.3,1.15-3.85,1.45-5.87.21-1.47,1.71.12,2.53-.65,0-1.12-1.17-1.65-1.58-2.6A1,1,0,0,1,13.1,12h0a2.22,2.22,0,0,1,2,1,4.49,4.49,0,0,0,1.26,2.33,2.11,2.11,0,0,1,.4,1.35,2,2,0,0,1-.64.75,8.3,8.3,0,0,0-2.95,5.5,1.77,1.77,0,0,1-1.86.8C10.37,23.52,9.51,23.21,9.52,22Z"/><path class="cls-2" d="M25.75,71.94c-1.74.62-3.36-1-5,0-.78-1.21.69-2.35-.35-3.29l.09-.45a2.57,2.57,0,0,1,1.2-.65l.45-.08a2.66,2.66,0,0,1,.89.07,4.67,4.67,0,0,1,1.16.58,1.14,1.14,0,0,1,.39.65.32.32,0,0,0,0,.3c0-.07,0-.06,0-.13a3.06,3.06,0,0,0,.21-.51,2.41,2.41,0,0,1,1.89-.57,2.87,2.87,0,0,1,1.31.4,1.41,1.41,0,0,1,.45.78,3.35,3.35,0,0,1-.24.89c-.25.56-.41,1.15-.63,1.73a.69.69,0,0,1-.78.29h0A4.36,4.36,0,0,0,25.75,71.94Z"/><path class="cls-3" d="M54.85,8.82l1.58.94c-.17,1,0,1.74,1.28,1.56l.92,1.18a2.49,2.49,0,0,1,.71,2.23c-.42,1.54,1.55,1.35,1.76,2.43-.92.88-1.78.44-2.63-.1A12.13,12.13,0,0,0,57,16a4.08,4.08,0,0,1-1.38-.94,9,9,0,0,0-.89-1.32,12.14,12.14,0,0,0-1-.74,5.26,5.26,0,0,1-.67-.58,4.24,4.24,0,0,1-1-1.55,1.49,1.49,0,0,1,.1-.93,3.24,3.24,0,0,1,.53-.35A2.45,2.45,0,0,1,54.85,8.82Z"/><path class="cls-4" d="M31.18,74.16c-1.85.57-3.24.36-3.39-2,0-.16.05-.33.07-.49,1.63-1.68,3.75-.54,5.59-1,1.18-.14,2.36-.25,3.27.75l0,.5c0,1.36-.52,2.33-2.11,2.2-1-.08-1.91-.22-2.87-.33a.35.35,0,0,0-.61,0A.26.26,0,0,0,31.18,74.16Z"/><path class="cls-5" d="M67,52.32c.91,1-.72,1.69-.43,2.63-.46,1-1.32.79-2.13.69l-.82.5A5.05,5.05,0,0,1,62,54.34,1.77,1.77,0,0,1,62.15,53a6.73,6.73,0,0,0,.93-2.06c.17-.59.38-1.16.58-1.74a4.08,4.08,0,0,1,.61-1.28,1.67,1.67,0,0,1,1.27-.54c.86.33.24,1.73,1.35,1.89-.11,1-.54,2,0,3l-.28.11Z"/><path class="cls-6" d="M25.13,8.36c1.32-1,2.49-2.35,4.4-1.42h0c0-1.32.77-1.76,1.86-1.23.62.31,1.11.91,1.87,1,.24.75-.3,1.34-.43,2a4.18,4.18,0,0,1-.28.82,1.78,1.78,0,0,1-.69.55,3.25,3.25,0,0,1-.88.09l-.89,0c-.91-.08-1.75.46-2.66.33C26.63,9.8,25.5,9.49,25.13,8.36Z"/><path class="cls-4" d="M47.47,69c.17.67,0,1.31-.72,1.38a10.67,10.67,0,0,0-6.49,2.51c-1.11,1-2.45-.19-3.51-1a2.41,2.41,0,0,0,0-.38c.39-2.56,2.67-.78,3.79-1.68,1.82.1,3.07-1.38,4.73-1.74C46.1,68.2,46.68,68.84,47.47,69Z"/><path class="cls-7" d="M66.08,36.81c2.26.47.92,2.46,1.5,3.63a2.12,2.12,0,0,1,0,1.34c-.29.34-.51.74-.79,1.09s-.84.76-1.19,1.21A8.73,8.73,0,0,0,65,45.65a3.79,3.79,0,0,1-.84,1.07,5.32,5.32,0,0,1-1.19.78,2.49,2.49,0,0,1-.93.19,1.41,1.41,0,0,1-.77-.51,2.8,2.8,0,0,1-.29-1.84,1.92,1.92,0,0,1,.63-.67,4.11,4.11,0,0,0,1.23-1.84c.44-.84,1.41-1.14,1.9-1.93a8.82,8.82,0,0,0,.58-1.78c.14-.54.27-1.1.36-1.66A1.05,1.05,0,0,1,66.08,36.81Z"/><path class="cls-8" d="M1.1,32.9c.32-1.4-.15-3.48,2.5-2.83a.62.62,0,0,1,.64.45,3.7,3.7,0,0,1,0,.88,8,8,0,0,0,0,2.58c.1,1,.63,2.12-.63,2.85a4.55,4.55,0,0,0-1.7.89c-1,0-1.16-.66-1-1.46.11-.59.29-1.16.45-1.74l-.21-.37A2.41,2.41,0,0,1,1.1,32.9Z"/><path class="cls-9" d="M45.61,68.81c-.23,0-.63-.18-.66-.12-1,1.85-2.73,1.81-4.43,1.94-.8-.88-.4-1.82-.11-2.75.58-1,1.57-.64,2.41-.77.43-.42.39-1,.69-1.53a1.71,1.71,0,0,1,1.31-.44,3.73,3.73,0,0,1,1.39.37,2.29,2.29,0,0,1,.69.66,1.1,1.1,0,0,1,0,.92l-.16.9A.94.94,0,0,1,45.61,68.81Z"/><path class="cls-10" d="M13.29,60.19c-2,1.11-2.23,1.13-2.37-.83-.09-1.12-.9-1.25-1.39-1.82a3.49,3.49,0,0,1,2-2.84c1.27-.16,1.53,1.1,2.32,1.63a2.84,2.84,0,0,1,.72,1.33C14.52,58.69,14.66,59.81,13.29,60.19Z"/><path class="cls-11" d="M25.13,8.36c1.28.13,2.43.41,2.45,2,.43.41.3.77-.1,1.11a5,5,0,0,1-3-.21,2.9,2.9,0,0,1-1.08-1.09,2.14,2.14,0,0,0-.62-.36,1.93,1.93,0,0,1-1-.53A.39.39,0,0,1,22,8.7C23.17,6.26,23.17,6.26,25.13,8.36Z"/><path class="cls-12" d="M14.08,62.38c-.32-.47-.71-.93-.52-1.58a5,5,0,0,1,2.22-1.09,2.09,2.09,0,0,1,1.4.35c.66.84.42,2.12,1.36,2.82a3.19,3.19,0,0,1,.5.66c.06,1.26.84-.44,1.05.24,1,.72,1.31,1.52.3,2.49-2.14.93-2.63-1.33-3.93-2A8.39,8.39,0,0,0,14.08,62.38Z"/><path class="cls-13" d="M49.63,66.7l-1.07,0a4.38,4.38,0,0,1-.7-1.15,2,2,0,0,1-.06-1.31,1.6,1.6,0,0,1,.62-.59c.25-.13.52-.24.79-.35A7.83,7.83,0,0,1,50,63a8.22,8.22,0,0,1,.83-.3c.56-.2,1.09-.46,1.65-.66a2.11,2.11,0,0,1,.9,0,1,1,0,0,1,.6.61,1.54,1.54,0,0,1-.63,1c-.07.34-.75-.3-.62.38a.53.53,0,0,1,.66,0,.55.55,0,0,1,.17.65,2.36,2.36,0,0,1-1.91.8c-.4,0-.71-.84-1.07-.24-.12.21.38.78.6,1.19C50.78,67.28,50.2,67,49.63,66.7Z"/><path class="cls-14" d="M58.51,16.2c.65.88,1.63.88,2.59,1,.52.75.6,1.91,1.84,2a1.33,1.33,0,0,1-.55,1.27,2.18,2.18,0,0,1-1.34.42c-.46,0-.91-.1-1.36-.15a4.27,4.27,0,0,1-.86-.19,2.19,2.19,0,0,1-.67-.54,2.31,2.31,0,0,1-.3-.79,5.58,5.58,0,0,0-.48-1.6l-.09-.43a1.39,1.39,0,0,1,.39-.76A1.11,1.11,0,0,1,58.51,16.2Z"/><path class="cls-15" d="M65,24.87c.69.45,1.39.89,2.07,1.36.53.38,1.51.43,1.33,1.39s-1,.81-1.7,1a4.78,4.78,0,0,0-.89.57l-.41,0a1.79,1.79,0,0,1-.53-.63,6.88,6.88,0,0,0-1-1.41C63,25.84,63.54,25.14,65,24.87Z"/><path class="cls-16" d="M15,13.27,13.1,12c.55-1.86,1.9-2,3.51-1.65.76.45.79,1.24.91,2a2.89,2.89,0,0,1-.25,1.36l-.33.34a1.27,1.27,0,0,1-.9.1A2,2,0,0,1,15,13.27Z"/><path class="cls-17" d="M65,24.87c-.63.7-2,1.35-.19,2.24a2.66,2.66,0,0,1-.71,1.77,1.74,1.74,0,0,1-.94.27,1.77,1.77,0,0,1-.87-.39c-.45-.71-.26-1.53-.4-2.29a5.8,5.8,0,0,0-.79-1.62,1.59,1.59,0,0,1,.61-2.09c1.09-.18,1.8.58,2.64,1Z"/><path class="cls-18" d="M3.93,30.61a4.86,4.86,0,0,0-.33-.54c.31-1.26.52-2.56.95-3.78s1.21-1.84,2.28-.49c.06,1.65.11,3.29-1.35,4.5A1.65,1.65,0,0,1,3.93,30.61Z"/><path class="cls-19" d="M65.77,29.23a1.56,1.56,0,0,0,1.49.7c.6.39.91,1.17,1.72,1.27l.27,1.69a1.83,1.83,0,0,1-.28.78,2.19,2.19,0,0,1-.68.49,1.89,1.89,0,0,1-.82,0l-.78.45a1.7,1.7,0,0,1-1-.84,9,9,0,0,1-.35-2.2,11.14,11.14,0,0,1-.35-1.29,1.09,1.09,0,0,1,.5-1.17Z"/><path class="cls-20" d="M64.8,45.29c-.21-.52-.57-1-.27-1.61,1,.22,1.43-.41,1.77-1.18l1.16-1a.42.42,0,0,1,.41.57c.11,1.41.32,2.84-.42,4.17l-.45.27C65.93,46.7,64.87,46.89,64.8,45.29Z"/><path class="cls-21" d="M62.61,53.19l-.23,1.08a2.49,2.49,0,0,1-.32,2.27l-1.67.16a1.64,1.64,0,0,1-1.19-1.05c-.36-1.55-.54-3,1.3-3.86C61.56,51.73,62.41,52,62.61,53.19Z"/><path class="cls-22" d="M59.78,55.67l.61,1-.51,1.65-.44.09a4.18,4.18,0,0,0-2.09.76,3.5,3.5,0,0,1-1.82.63.92.92,0,0,1-.67-.65,3.49,3.49,0,0,1,.3-1.49c.37-1.16.76-2.31,2.19-2.59A3.38,3.38,0,0,1,59.78,55.67Z"/><path class="cls-23" d="M55.36,59.71l1.82-1.4c.84.49,1.54-.23,2.32-.28a2,2,0,0,1,.38.32c-.05,1.53-1.66,2.31-1.84,3.78a.65.65,0,0,1-.45.65A3.19,3.19,0,0,1,56,62.17a2,2,0,0,1-.58-.68l-.14-.44A2.2,2.2,0,0,1,55.36,59.71Z"/><path class="cls-2" d="M16.54,63.26c1,1.2,1.62,3,3.77,2.65,1.23.71.63,1.6.21,2.47l-.09.28c-.83-.15-1.83-.44-2-1.2-.42-1.73-2-2.18-3-3.23C15.43,63.51,15.86,63.23,16.54,63.26Z"/><path class="cls-24" d="M2.7,42.53,3.24,42a1.56,1.56,0,0,1,1.35,0,2.64,2.64,0,0,1,.66.63c.33.5.67,1,1,1.52a2.44,2.44,0,0,1,.13,1.31,4.33,4.33,0,0,1-.49,1.2,2.85,2.85,0,0,1-.61.59c-.63.16-.75,1.39-1.48.93-.28-.18,0-1.23,0-1.88C4.27,44.79,2.07,44.07,2.7,42.53Z"/><path class="cls-25" d="M2.7,42.53C3,43,3,43.62,3.54,44c1,.65.86,1.48.22,2.33C3,45.8,3,44.07,1.42,44.93A.9.9,0,0,1,0,44.36c-.14-.71.45-1,1-1.18S2.15,42.75,2.7,42.53Z"/><path class="cls-26" d="M49.87,4.5l1.45.75a2.35,2.35,0,0,1-.46,1.29A5.67,5.67,0,0,1,49.66,8a2.28,2.28,0,0,1-.9.33c-1.41-.07-1.84-1.1-2.19-2.22a2.77,2.77,0,0,1,0-1l.76-.5c.44,0,.81-.22,1.23-.26A9,9,0,0,1,49.87,4.5Z"/><path class="cls-27" d="M40.41,5.28A1.44,1.44,0,0,0,41.9,5a.56.56,0,0,1,.3-.48c.17-.08.28-.1.31-.06a1,1,0,0,1,.47.74,2.46,2.46,0,0,1-.57,1.22,5.47,5.47,0,0,0-.94,1.48A2.75,2.75,0,0,1,40.73,9c-1,.51-1.94,1.2-3.08.4a1.45,1.45,0,0,1,0-.92c.3-.73.47-1.5.76-2.24a2.15,2.15,0,0,1,1.55-1.09Z"/><path class="cls-28" d="M64.31,23.78a2.12,2.12,0,0,1-2.49-.88,2.65,2.65,0,0,1-2.8-2c0-.17.07-.34.11-.52l.64-.41q.38.07.75.12l1.06.26a.8.8,0,0,1,.82.18,8.07,8.07,0,0,0,1.75,1.38c.1.13.18.25.27.38s0,.3,0,.46C64.38,23.1,64.34,23.44,64.31,23.78Z"/><path class="cls-29" d="M9.52,22l1.91,1.29a2.2,2.2,0,0,1,.5,1.5,1.13,1.13,0,0,1-.44.61,1,1,0,0,1-.72,0l-.3-.12s-.12.3-.12.31a2,2,0,0,1-.56,1,1.74,1.74,0,0,1-1.61.12A.62.62,0,0,1,7.93,26a.41.41,0,0,1,.28-.38,1.2,1.2,0,0,0,.3-1.19l0,.08a1.72,1.72,0,0,0,.24-1.08c.07-.33.13-.66.2-1s.06-.47.25-.49.29,0,.34.07Z"/><path class="cls-11" d="M19.83,8.75c.72.57,1.41-.19,2.12-.05l0,.4c0,.86.69.77,1.2.94a2.17,2.17,0,0,1,.73,1.16,1.52,1.52,0,0,1-.39.85,4.53,4.53,0,0,1-2.8.65,2.59,2.59,0,0,1-.95-.18,1.73,1.73,0,0,1-.45-.84,13,13,0,0,1-.16-2.41A.8.8,0,0,1,19.83,8.75Z"/><path class="cls-30" d="M57.39,62.6l.65-.47c.14,1.6-1.76,2-2,3.42-1.25,0-1.71-1.43-2.87-1.58l-.1.15c-.39,0-.54-.23-.4-.62l1.19-1a.89.89,0,0,1,.6-.59,2.15,2.15,0,0,1,1.27.24A5.58,5.58,0,0,0,57.39,62.6Z"/><path class="cls-31" d="M4.45,42.22,3.24,42,2.6,40.83a8.9,8.9,0,0,0,0-1.86,1.47,1.47,0,0,1,.43-.8,1.1,1.1,0,0,1,1.25,0,.86.86,0,0,0,1.08.75c.61.2,1.15.46,1,1.25A3.92,3.92,0,0,1,4.45,42.22Z"/><path class="cls-32" d="M12,54.87c-1,.75-1.26,2.12-2.46,2.67-.81-.25-1.18-.69-.72-1.55.28-.52.54-1.06.13-1.63l.27-.42C10.37,53.58,11.51,53.26,12,54.87Z"/><path class="cls-33" d="M38.08,2.39c1.07-.12,1.5.66,1.94,1.41a1.29,1.29,0,0,1-.57.69c-1.17.43-1.84,1.62-3,2.06a1.48,1.48,0,0,1-1.59-.86,2.3,2.3,0,0,1,.54-1.35A8,8,0,0,1,38.08,2.39Z"/><path class="cls-34" d="M5.71,51.16c-1.45,1-3.23.46-3.45-.73C2,48.8,4.32,50.2,5,49.1a.77.77,0,0,1,.64.43A2.66,2.66,0,0,1,5.71,51.16Z"/><path class="cls-35" d="M5.61,55.12c-1.86-.8-.73-1.46.13-2.12a1.67,1.67,0,0,0,.42-1.11,1.17,1.17,0,0,1,.5-.51,1.73,1.73,0,0,1,1,.33,2.62,2.62,0,0,1,1,1.92.61.61,0,0,1-.78.56h0C6.9,53.89,6.51,55.14,5.61,55.12Z"/><path class="cls-36" d="M5.22,29.78c1.11-1.1.43-2.91,1.61-4l.51.62a.73.73,0,0,1,.68.49A2.87,2.87,0,0,1,8,29.17a3.19,3.19,0,0,1-.6.72,3.85,3.85,0,0,1-.81.52,2.09,2.09,0,0,1-.93.11A.65.65,0,0,1,5.22,29.78Z"/><path class="cls-37" d="M66.89,49.24c-2.28,1-.79-1.17-1.34-1.63,0-1,.83-1.25,1.61-1.48l.29.07C68,47.35,67.25,48.26,66.89,49.24Z"/><path class="cls-38" d="M15.77,60a1.78,1.78,0,0,1-2.21.76,1.68,1.68,0,0,1-.27-.61l.9-2.49a2.06,2.06,0,0,1,1.78.65,1.47,1.47,0,0,1,.34.9A1.3,1.3,0,0,1,15.77,60Z"/><path class="cls-39" d="M52.24,10c.1.24.21.47.31.7,0,.75.93,1.55-.09,2.25-.72.5-1.34.16-1.93-.3a2.59,2.59,0,0,1-.75-1.54,1.63,1.63,0,0,1,.44-1c.49-.29,1-.7,1.56-.29A.65.65,0,0,0,52.24,10Z"/><path class="cls-40" d="M19.25,9.25c.89.81,1.31,1.64.17,2.6l-.45,0a4.84,4.84,0,0,1-1.54-.93,1.67,1.67,0,0,1-.43-.78l.92-1.66A1.68,1.68,0,0,1,19.25,9.25Z"/><path class="cls-41" d="M38.08,2.39,36,4.7a6.28,6.28,0,0,0-1.3,0A1.12,1.12,0,0,1,34,4.26C34.81,2.44,36.46,2.45,38.08,2.39Z"/><path class="cls-42" d="M64.11,22.18c-1,.06-2.13.46-2.11-1.2a3.14,3.14,0,0,1,2.1-1l1.68.9a1.58,1.58,0,0,1-.27.72,2.2,2.2,0,0,1-.62.48A1.71,1.71,0,0,1,64.11,22.18Z"/><path class="cls-43" d="M57.71,11.32c-.36,1-1,1.55-1.87.7s-.57-1.75.59-2.26Z"/><path class="cls-44" d="M62.06,56.54a1.51,1.51,0,0,1,.32-2.27c1.34,0,1.15,1,1.19,1.87A1.59,1.59,0,0,1,62.06,56.54Z"/><path class="cls-45" d="M42.6,4.6,41.9,5,40.62,3.08a1.7,1.7,0,0,1,2-.6L44.28,3c0,.15,0,.3.08.45a2,2,0,0,1-.87,1A1.44,1.44,0,0,1,42.6,4.6Z"/><path class="cls-46" d="M70.11,36.78a1.09,1.09,0,0,1-.23,1.55c-.46.4-.89.11-1.16-.28a.9.9,0,0,1,.18-1.25A.84.84,0,0,1,70.11,36.78Z"/><path class="cls-47" d="M53.18,64c1.68-.76,2.11.69,2.87,1.58-1.32,1.1-1.83-.08-2.49-.85Z"/><path class="cls-48" d="M54.85,8.82a1.72,1.72,0,0,1-2.08.79,1.17,1.17,0,0,0-.23-.52A1.09,1.09,0,0,1,52.66,8L53,7.63a4.69,4.69,0,0,1,1.06.08Z"/><path class="cls-49" d="M64.94,18.36c-.52.23-.84.14-1-.18a1,1,0,0,1,.24-1.5c.3-.19.67-.25.86.19S65.32,18,64.94,18.36Z"/><path class="cls-50" d="M67.87,42c-.13-.19-.27-.39-.41-.57l.12-1,1.34.43c.54.18,1.28.33.93,1.1-.23.52-.83.17-1.28.09C68.34,42,68.11,42,67.87,42Z"/><path class="cls-51" d="M41.76,6l1.17-.93.35-.24a3.23,3.23,0,0,1,1.56-.68l.41.1a2.72,2.72,0,0,0,.2.63,2,2,0,0,1-1,1.8,4.55,4.55,0,0,1-.94.53,2.37,2.37,0,0,1-1.06.07A1.24,1.24,0,0,1,41.76,6Z"/><path class="cls-52" d="M66,33.43l.66,1.18a3.76,3.76,0,0,1-1.58,1.32l-.47-.13A1.58,1.58,0,0,1,64,34.58C64.2,33.37,64.81,32.87,66,33.43Z"/><path class="cls-53" d="M49.63,66.7l1.55-.25c.69.77.76,1.63-.32,1.89C49.62,68.65,49.79,67.45,49.63,66.7Z"/><path class="cls-54" d="M48.26,65.1a1.92,1.92,0,0,1,.3,1.64,1.66,1.66,0,0,1-1.66.35l-.38-.78c0-.43-.21-.87.1-1.28A1.27,1.27,0,0,1,48.26,65.1Z"/><path class="cls-55" d="M64.1,20c-.52.73-1.06,1.4-2.1,1l-.42-.62,1.36-1.21C63.62,19.06,63.83,19.57,64.1,20Z"/><path class="cls-56" d="M61.24,58.34c.32-.34.64-.45.95-.22a.79.79,0,0,1,.1,1.22.68.68,0,0,1-.92.14C60.84,59.14,61.11,58.69,61.24,58.34Z"/><path class="cls-57" d="M67.44,24.72a.93.93,0,0,1,.08-1.28.59.59,0,0,1,.93,0,1,1,0,0,1,0,1.3A.72.72,0,0,1,67.44,24.72Z"/><path class="cls-58" d="M62,14.6c1.35-.13,1.4.69.93,1.53s-1.15.44-1.66-.15C61.32,15.42,62,15.16,62,14.6Z"/><path class="cls-6" d="M35,5.59l1.47.62a1.25,1.25,0,0,1-.84,1.15,2.66,2.66,0,0,1-1,.1l-.48-.17a.8.8,0,0,1-.32-.87c0-.72.09-1.44.14-2.16a3.45,3.45,0,0,0,.26.28A.82.82,0,0,1,35,5.59Z"/><path class="cls-59" d="M59.34,14.73a2,2,0,0,1-.71-2.23C60.57,13.27,60.59,13.33,59.34,14.73Z"/><path class="cls-60" d="M65.11,35.93l1,.88-.09.34c-.83,1-1.81.66-2.78.31a1.74,1.74,0,0,1-.86-1.17,1.16,1.16,0,0,1,.49-.81c.88-.37,1.55.34,2.33.42Z"/><path class="cls-61" d="M69,31.2c-1.64,1-1.72-.08-1.72-1.27C68.49,29.48,68.83,30.21,69,31.2Z"/><path class="cls-62" d="M3.45,38.41,2.84,39a.52.52,0,0,1-.73.3c-.06-.51-.11-1-.17-1.54s-.32-1.15.28-1.5c.32-.19.6.17.79.45l.25.29a1.89,1.89,0,0,1,.29.7A3.22,3.22,0,0,1,3.45,38.41Z"/><path class="cls-63" d="M16.54,63.26l-1.16,1c-.8-.36-1.5-.79-1.3-1.85A2.07,2.07,0,0,1,16.54,63.26Z"/><path class="cls-64" d="M49.87,4.5c-.49.34-.94.82-1.62.45a.64.64,0,0,1-.47-.74C48.5,2.87,48.58,2.88,49.87,4.5Z"/><path class="cls-65" d="M67,52.32c-.41.36-.7,1-1.4.65a.62.62,0,0,1-.15-.6c.42-.73,1-.26,1.53-.17Z"/><path class="cls-66" d="M19.25,9.25c-.71.17-1-.38-1.33-.8,1.4-.74,1.4-.74,1.91.3Z"/><path class="cls-67" d="M17,10.11a2.29,2.29,0,0,0,.5.3c1.16.61,1.28,1.33.22,2.18l-.58.09a2.19,2.19,0,0,1-.53-2.32A.9.9,0,0,0,17,10.11Z"/><path class="cls-68" d="M42.62,2.48a1.9,1.9,0,0,1-2,.6,2,2,0,0,1,.17-1.69c.85,0,1.68,0,1.85,1.12Z"/><path class="cls-69" d="M68.66,33.36l.59-.47c.48.59.67,1.23,0,1.73s-1.26.07-1.73-.46l.67-.46c.21.06.36,0,.44-.09S68.69,33.4,68.66,33.36Z"/><path class="cls-3" d="M49.3,7.78l1-1.7A1.53,1.53,0,0,1,51.5,7.61l-1,1-.41.2A1.09,1.09,0,0,1,49.3,7.78Z"/><path class="cls-70" d="M45.16,1.71l.43-.37c.9,0,2-.21,1.69,1.32A1.78,1.78,0,0,1,45.83,3C45.27,2.74,44.91,2.38,45.16,1.71Z"/><path class="cls-71" d="M51.5,7.61a3,3,0,0,1-1.23-1.53l1-.83h0a.93.93,0,0,1,.88,1.12h0a3,3,0,0,1-.28,1Z"/><path class="cls-72" d="M65.2,21.34a2.39,2.39,0,0,1,.58-.42c.6.55,1.28,1.11.67,2a.92.92,0,0,1-1.47.21C65,22.55,65.12,21.94,65.2,21.34Z"/><path class="cls-73" d="M5.61,55.12c.81-.19.84-2.35,2.29-.93C7.21,54.68,6.61,55.39,5.61,55.12Z"/><path class="cls-45" d="M47.28,2.66c-.28-.8-1-1-1.69-1.32C47.38.76,47.56.9,47.28,2.66Z"/><path class="cls-45" d="M42.64,2.51c-.61-.38-1.23-.75-1.85-1.12C41.78,1.16,43.11.36,42.64,2.51Z"/><path class="cls-74" d="M33.84,6.42c.14.19.29.37.44.54-.18,1.39-1.1,1.85-2.36,1.86-.21-1.11,1-1.36,1.34-2.11A2.42,2.42,0,0,1,33.84,6.42Z"/><path class="cls-75" d="M64.39,55.64,66.52,55l.21.27.18.3c-.37,1.31-1.25,1-2.14.7A4.45,4.45,0,0,1,64.39,55.64Z"/><path class="cls-5" d="M64.77,56.22a3.3,3.3,0,0,0,2.14-.7C66.68,57.26,65.92,57.36,64.77,56.22Z"/><path class="cls-76" d="M31.18,74.16c-.24-.41-.54-.84-.15-1.29a.63.63,0,0,1,.61-.06c.35.25.26.62.13,1Z"/><path class="cls-77" d="M2.11,39.26l.73-.3c.69.71.46,1.32-.24,1.87A1.07,1.07,0,0,1,2.11,39.26Z"/><path class="cls-78" d="M53.06,4.43a2,2,0,0,1,.64-.08.28.28,0,0,1,.17.51.67.67,0,0,1-.59.12C53.15,4.91,53.13,4.62,53.06,4.43Z"/><path class="cls-79" d="M65.2,21.34c.67.68.48,1.28-.22,1.82a2,2,0,0,1-.57-.4l.21-.09a1.32,1.32,0,0,1,0-.94A.78.78,0,0,1,65.2,21.34Z"/><path class="cls-45" d="M44.08,0c.17.1.43.15.51.3s0,.46-.32.42A1.91,1.91,0,0,1,43.7.47Z"/><path class="cls-45" d="M45.16,1.71,45.83,3l-.55.39a.6.6,0,0,1-.23.48c-.16.1-.25.14-.27.11a.69.69,0,0,1-.53-.58,2.43,2.43,0,0,0,0-.38Z"/><path class="cls-80" d="M43.87,6.27l1.58-1.35.27.18.18.28c0,.15.09.3.13.45a2.18,2.18,0,0,1-.52.78A1.83,1.83,0,0,1,44.18,7,.57.57,0,0,1,43.87,6.27Z"/><path class="cls-81" d="M45.61,68.81,46.74,68c.24.34.48.69.73,1C46.81,69.27,46.13,69.69,45.61,68.81Z"/><path class="cls-82" d="M5.71,51.16a1.51,1.51,0,0,1-.34-1.48l.47-.13a1.1,1.1,0,0,1,1,.82.63.63,0,0,1-.28.52c-.17.1-.27.14-.3.1A1.19,1.19,0,0,1,5.71,51.16Z"/><path class="cls-73" d="M6.29,51l.59-.63.45-.12a1.49,1.49,0,0,1,.86.3c.06.14.12.28.19.42C8.32,51.67,8,52.12,7.22,52l-.56-.66Z"/><path class="cls-82" d="M5.37,49.68a4.7,4.7,0,0,0-.4-.59,1.86,1.86,0,0,1,1.24-.87l.38.17a.88.88,0,0,1,.07.79,1.24,1.24,0,0,1-1.09.5Z"/><path class="cls-24" d="M6.21,48.22l-1-1c.06-.16.12-.32.19-.47.94-.38,1.29.17,1.48.95a.66.66,0,0,1-.79.49Z"/><path class="cls-8" d="M1.38,34.52c-.84,0-1.21-.36-.8-1.21a1,1,0,0,1,.81,1.13Z"/><path class="cls-83" d="M1.39,34.44.58,33.31a2.61,2.61,0,0,1,.52-.41A1.29,1.29,0,0,1,1.39,34.44Z"/><path class="cls-1" d="M9.52,22a1.19,1.19,0,0,1-.59.42c-.13-.32-.64-.64-.08-1C8.94,21.4,9.29,21.81,9.52,22Z"/><path class="cls-16" d="M13.1,12l-1.18.87C11.85,12,12.26,11.7,13.1,12Z"/><path class="cls-27" d="M39.41,4,40,3.8a1.92,1.92,0,0,1,.39,1.48l-.22,0A1,1,0,0,1,39.41,4Z"/><path class="cls-3" d="M51.78,9.74l-1.22.55-.47-.23c0-.17,0-.35,0-.52l.49-.19A1,1,0,0,1,51.78,9.74Z"/><path class="cls-3" d="M52.19,6.38c-.3-.37-.59-.75-.88-1.12C52.27,5.11,52.52,5.51,52.19,6.38Z"/><path class="cls-84" d="M62,14.6A1.33,1.33,0,0,1,61.27,16C61,15.25,61.43,14.89,62,14.6Z"/><path class="cls-4" d="M25.75,71.94l1,0Z"/><path class="cls-4" d="M26.79,72l.54-.36a.4.4,0,0,1,.5.37l0,.24Z"/><path class="cls-85" d="M7.77,27a5.66,5.66,0,0,0-.43-.54L7.93,26l.38.52a.51.51,0,0,1-.28.4C7.88,27,7.8,27,7.77,27Z"/><path class="cls-85" d="M8.51,24.41a1.06,1.06,0,0,1-.3,1.19A1.19,1.19,0,0,1,8.51,24.41Z"/><path class="cls-85" d="M8.73,23.41a1,1,0,0,1-.24,1.08A1,1,0,0,1,8.73,23.41Z"/><path class="cls-86" d="M46.61,5.13l.24.27.19.31c-.33.5-.62.39-.87-.07l-.27-.26Z"/><path class="cls-80" d="M44.74,3.75a4,4,0,0,0,.54-.38l0,.92a.92.92,0,0,1-.28.24A.64.64,0,0,1,44.74,3.75Z"/><path class="cls-87" d="M50.63,9.35,50,9.67a.56.56,0,0,1,.15-.78.61.61,0,0,1,.36-.31Z"/><path class="cls-86" d="M47.78,4.21c.16.24.32.49.47.74l-.88-.32A3.25,3.25,0,0,1,47.78,4.21Z"/><path class="cls-3" d="M52.66,8l-.12,1.11A.8.8,0,0,1,52.66,8Z"/><path class="cls-3" d="M51.91,7.41c.09-.34.19-.68.28-1A.78.78,0,0,1,51.91,7.41Z"/><path class="cls-3" d="M54.1,7.71,53,7.63A.77.77,0,0,1,54.1,7.71Z"/><path class="cls-73" d="M6.16,51.89A1.16,1.16,0,0,1,5.74,53Z"/><path class="cls-73" d="M7.92,54.19l.56-.41a.87.87,0,0,1,.75.31,1.06,1.06,0,0,1-.29.27Z"/><path class="cls-88" d="M12.89,22.87c-.56-1.15-2.53-2.59.59-3,.85-.12.5-.48.36-.86-1-2.58.81-2,2.15-1.83a.51.51,0,0,1,.6.48c-.17.68.29,1.11.62,1.59a1.18,1.18,0,0,1-.14,1.24,2.24,2.24,0,0,1-.66.48,3.94,3.94,0,0,0-1,.51,6,6,0,0,0-.42.61c-.17.35-.35.69-.55,1a1.86,1.86,0,0,1-.59.56,1.06,1.06,0,0,1-.8-.08A.55.55,0,0,1,12.89,22.87Z"/><path class="cls-89" d="M12.89,22.87l.59.66h0l.56-.41a1.26,1.26,0,0,1,1.19-1c1.12,1.32.23,2.49-.31,3.68a2.2,2.2,0,0,1-2.07.91,1.77,1.77,0,0,1-1.23-1.82,1.67,1.67,0,0,1-.22-1.6Z"/><path class="cls-90" d="M16.61,16.67l-.76-1.19c-.15-.62-.31-1.26.61-1.44h0a4.41,4.41,0,0,0,.81.05,2.37,2.37,0,0,1,1.58.33,1.33,1.33,0,0,1,.32.75,11.66,11.66,0,0,0,.14,1.68,2.6,2.6,0,0,1-.06.88,1.87,1.87,0,0,1-.62.63,1.19,1.19,0,0,1-1.24-.18C17,17.73,17,17.1,16.61,16.67Z"/><path class="cls-91" d="M16.46,14c-.2.48-.4,1-.61,1.44C15,15,13.37,14.75,15,13.27A1.69,1.69,0,0,1,16.46,14Z"/><path class="cls-92" d="M16.61,16.67c.82-.06,1.26.18.87,1.09a.82.82,0,0,1-1-.06,1.5,1.5,0,0,1-.45-.52Z"/><path class="cls-93" d="M27.84,68.61l-1-.17a.77.77,0,0,1-.59-.59c.23-.54.94-.7,1.08-1.33a4.22,4.22,0,0,1,1-1.37,1.08,1.08,0,0,1,1.08-.08c.08.28.24.32.45.09a.24.24,0,0,0,0-.31,1.06,1.06,0,0,1,1-.19,4.07,4.07,0,0,1,.66.33,2.08,2.08,0,0,0,1,.33,6.41,6.41,0,0,0,1-.64c1.05-.49,1.94.58,3,.26a6.54,6.54,0,0,1,.9-.2,2.18,2.18,0,0,1,1.36.4A1.51,1.51,0,0,1,39.07,67a4.29,4.29,0,0,1-.6.8,4.24,4.24,0,0,1-.8.59,2.87,2.87,0,0,1-2.77,0c-1-1.19-.61.71-1.16.52a3.38,3.38,0,0,1-1.34.19l-.93,0-.46,0A3.9,3.9,0,0,1,27.84,68.61Z"/><path class="cls-94" d="M31.52,68.38l1,.24c1.45.45.94,1.74,1.16,2.72-1.91.65-3.95-.1-5.85.63a5.86,5.86,0,0,0-.5-.37,1.38,1.38,0,0,1,.34-2.18c.25.09.4.07.45-.08a.31.31,0,0,0,0-.3,3.87,3.87,0,0,1-.27-.43l3.65-.23L31.4,69A2,2,0,0,0,31.52,68.38Z"/><path class="cls-95" d="M20.52,68.38l-.21-2.47c.39-1.17,0-1.77-1.26-1.85h0c-.13-.17-.28-.33-.42-.48,0-1.16.37-2.06,1.81-1.86a2.5,2.5,0,0,1,1.07.91,20.19,20.19,0,0,0,1,1.89,1.46,1.46,0,0,1,.21.79c-.09.53-.28,1-.36,1.6s-.21.79-.28,1.19Z"/><path class="cls-96" d="M26.4,67.7c.13.25.26.5.4.74-.76.11-1.59-.07-2.21.59h0l-.42-.36c-.55-.22-.84-.89-1.54-.82v0c-.82-.68-.35-1.18.26-1.66a2.8,2.8,0,0,1,2,.19C25.57,66.68,26.24,66.91,26.4,67.7Z"/><path class="cls-97" d="M23.43,66.29a1.66,1.66,0,0,0-.78,1.59,1,1,0,0,1-.59.22,1.44,1.44,0,0,1-.23-1.57c.1-.49.6-.79.65-1.31l.19-.18a1.2,1.2,0,0,1,1.18-.54l.44.13a1.29,1.29,0,0,1,.48.75,1.55,1.55,0,0,1-.46.78A1.19,1.19,0,0,1,23.43,66.29Z"/><path class="cls-98" d="M24.47,70c.3.3.87.38.85.93,0,.14-.37.42-.48.38-.74-.22-.78-.72-.41-1.32Z"/><path class="cls-97" d="M22.64,67.85c.77-.21,1.19.24,1.54.82C23.46,68.78,23,68.32,22.64,67.85Z"/><path class="cls-4" d="M24.43,70c.06-.33.11-.65.17-1h0l-.12,1Z"/><path class="cls-99" d="M28.11,69c.19.26.16.45-.11.5-.1,0-.22-.07-.33-.12A2.67,2.67,0,0,0,28.11,69Z"/><path class="cls-100" d="M55.88,14.76l1.28.39c.06.13.12.26.19.39a2.28,2.28,0,0,1,0,1.27l.1.34c0,.37.15.76,0,1.13a1.57,1.57,0,0,1-.61.47,5.57,5.57,0,0,1-1.15.08,5.19,5.19,0,0,0-1.15.27,3.34,3.34,0,0,1-.83.19,1.07,1.07,0,0,1-.73-.43,5.71,5.71,0,0,1-.35-2.65,1.48,1.48,0,0,1,.37-.75c1.05-.66-.31-.92-.24-1.43-.11-.9,0-1.65,1.17-1.59a.5.5,0,0,1,.48.26l.18.39a6.74,6.74,0,0,0,1,1.38Z"/><path class="cls-101" d="M53.45,15.58l-.54.28a3,3,0,0,1-3.34-2.73A1.25,1.25,0,0,1,50.7,12c1.64,1.05,1.66,1,1.85-1.29.46.59.91,1.19,1.36,1.78-.89.62-.78,1.38-.34,2.2A1.12,1.12,0,0,1,53.45,15.58Z"/><path class="cls-102" d="M55.21,13.24a1.29,1.29,0,0,1,.67,1.52l-.47-.13a1.4,1.4,0,0,1-.76-1,.46.46,0,0,1,.27-.42C55.08,13.21,55.18,13.2,55.21,13.24Z"/><path class="cls-102" d="M58.51,16.2a3.35,3.35,0,0,1-.63.37.93.93,0,0,1-.72-.93v-.49C58,15,58.32,15.51,58.51,16.2Z"/><path class="cls-100" d="M55.21,13.24l-.45.34-.38-.26c0-.21,0-.41,0-.62Z"/><path class="cls-103" d="M33.68,71.34c-1.59-.39-.25-2-1.16-2.72l1,.09a.61.61,0,0,1,.62.2c.18.41-.39.13.09.19.24,0,.29-.19.12-.4a1.65,1.65,0,0,1,.39-1c.88.07,1.76.72,2.64,0,.35,0,.57.27.84.43a.91.91,0,0,1-.28-.87l.59-.44a2.22,2.22,0,0,1,1.77,1l.24.34c.65.83,0,1.66,0,2.49a1.26,1.26,0,0,1-1.64.27,1.41,1.41,0,0,0-2.13.64A4.9,4.9,0,0,0,33.68,71.34Z"/><path class="cls-104" d="M34.67,73.05c0-.07-.13-.15-.11-.2a.38.38,0,0,1,.18-.21c.32-.07.4.06.2.32C34.89,73,34.76,73,34.67,73.05Z"/><path class="cls-105" d="M62.61,53.19l-1.88-.95a1.75,1.75,0,0,1-1.12-.81A3.22,3.22,0,0,1,59.3,50a2.24,2.24,0,0,1,.22-1,.94.94,0,0,1,.86-.34,3.5,3.5,0,0,1,.87.42c.72.63,1.67.93,2.39,1.56C64.11,51.87,64,52.79,62.61,53.19Z"/><path class="cls-106" d="M67.16,46.13l-1.61,1.48-1.12.74a1.35,1.35,0,0,1-1.38-.14.85.85,0,0,1-.22-.87c.31-.36.74-.63.79-1.16.39-.3.78-.6,1.18-.89C65.34,46.23,66.38,45.82,67.16,46.13Z"/><path class="cls-107" d="M63.64,50.72c-1.4.57-2.32,0-3-1.21a.91.91,0,0,1,.26-.9,1.89,1.89,0,0,1,1.89-.16,1.17,1.17,0,0,0,1.52,1A1.13,1.13,0,0,1,63.64,50.72Z"/><path class="cls-108" d="M64.33,49.48c-.89.68-1.63.76-2.07-.46-.16-.55-.08-1,.52-1.21l1.65.54C64.4,48.73,64.36,49.11,64.33,49.48Z"/><path class="cls-109" d="M27.33,11.2c.09-.27.17-.54.25-.81,1-.3,1.68-2.29,3-.46A2.22,2.22,0,0,1,30,12.44a1.65,1.65,0,0,1-1,.45C28,12.76,27.2,12.44,27.33,11.2Z"/><path class="cls-74" d="M29.76,12.2c-.16-.9.58-1.5.78-2.27a2.28,2.28,0,0,1,.33-.29,1.79,1.79,0,0,0,.79.18l.71-.42c.18-1,1.12-1.14,1.69-1.69A1,1,0,0,1,35,7.65a1.59,1.59,0,0,1,.09,1.44,4.13,4.13,0,0,1-2.55,2.29,6.19,6.19,0,0,1-2.3.94Z"/><path class="cls-110" d="M34.61,7.62,32.37,9.4l-.45-.58L34.28,7l0,0C34.68,7.06,34.8,7.27,34.61,7.62Z"/><path class="cls-111" d="M29.53,6.93c.47-.24.91-.78,1.48-.23a.34.34,0,0,1,0,.32c-.53.47-1,.17-1.52-.08Z"/><path class="cls-112" d="M31.66,9.82c-.33.22-.62.25-.79-.18Z"/><path class="cls-113" d="M61.7,44.83a2.84,2.84,0,0,0-.48.5,2.16,2.16,0,0,1-2.24,1c-1.38.16-1.47-2.24-3.11-1.55.2,1.08,1.06,1.47,1.88,1.89a8.3,8.3,0,0,0,1.78.31,1,1,0,0,1,.7.5c.17.74-.4,1.07-.83,1.47a2,2,0,0,1-.74.54,11.61,11.61,0,0,1-1.34.42,3,3,0,0,1-1.39.05,4.1,4.1,0,0,1-2.08-1.55c-.75-.94-.26.52-.63.35a1.39,1.39,0,0,1-.9.05c-2-3.23.3-7.57,4.62-8.91.05-.79-.76-.56-1.06-.89-3.67,1.13-3.92.89-3.72-3.66a3.34,3.34,0,0,1,1.72-.85A9.6,9.6,0,0,1,56,34.09l.38,0c-.08-.48.07.22-.24-.19a1.46,1.46,0,0,1,0-1,11,11,0,0,0,.44-1.56,4.81,4.81,0,0,1,.26-.84,2.74,2.74,0,0,1,1.56-1.62,2,2,0,0,1,1.38.32,1.68,1.68,0,0,1,.63,1.25,1.53,1.53,0,0,1-.89,1c-.26.18-.6-.2-.61-.13,0,.39.39.5.58.77a3.15,3.15,0,0,1,.6,1.18c.14.88.08,1.77.25,2.64a16.34,16.34,0,0,0,.49,1.69,3.69,3.69,0,0,1,.15.87,5,5,0,0,0,.13,2.1,6.68,6.68,0,0,1,.35.78,11.44,11.44,0,0,1,.29,1.26A9.62,9.62,0,0,1,61.89,44l0,.44C61.81,44.56,61.76,44.69,61.7,44.83Z"/><path class="cls-114" d="M58.15,47.54c-1.53-.51-3.38-.68-3.19-3,1.77-.86,2.36,1.41,3.82,1.41l2.44-.61a1.85,1.85,0,0,1,.32,1.58,2.05,2.05,0,0,1-1.71.51l-.07-.22C59.18,47.1,58.73,47.64,58.15,47.54Z"/><path class="cls-115" d="M65.76,39.08a2.67,2.67,0,0,1-.34,2l-.34.2a2.75,2.75,0,0,1-.81.07l-.4-.06A2.61,2.61,0,0,1,63.1,41l-.27-.33c0-.14-.07-.28-.11-.42s.06-.29.08-.43a5.4,5.4,0,0,1,.6-1.23,2.56,2.56,0,0,1,.72-.63C65.09,37.72,65.72,38,65.76,39.08Z"/><path class="cls-116" d="M65.76,39.08a1.43,1.43,0,0,0-2.13-.26,1,1,0,0,1-.48-1.22l.27-.41,2.57,0A1.16,1.16,0,0,1,65.76,39.08Z"/><path class="cls-117" d="M59.83,47.42a1.4,1.4,0,0,1,1.71-.51,3.1,3.1,0,0,1,.23.6c0,.57-.38.83-.78,1.08a1.29,1.29,0,0,1-.88.3c-.21.12-.41.25-.61.39l-.45-.14,0-.48A1.45,1.45,0,0,0,59.83,47.42Z"/><path class="cls-118" d="M63,43a8,8,0,0,1,0,1.69c-.24,1.1-.77.89-1.32.19v.07c.09-.41-.07-.82,0-1.23a1.36,1.36,0,0,1,.52-.64l.39-.14Z"/><path class="cls-119" d="M65.42,41.12c0,1.6-1.65,1.15-2.4,1.83h.06l-.45-.05a1.08,1.08,0,0,1-.12-.86,1.56,1.56,0,0,1,1-.83,1.72,1.72,0,0,1,.86-.19h0a2.6,2.6,0,0,0,1,.09Z"/><path class="cls-120" d="M66.3,42.5c-.14,2-.19,2.08-1.77,1.18Z"/><path class="cls-121" d="M60.9,48.41l.87-.9.71-.45a.48.48,0,0,1,.56.39l-.26.36L62.26,49,61.14,49C60.73,48.92,60.65,48.74,60.9,48.41Z"/><path class="cls-122" d="M63,47.45a.67.67,0,0,1-.56-.39l1.14-.88C63.79,46.77,63.47,47.13,63,47.45Z"/><path class="cls-123" d="M3.45,38.41a4.85,4.85,0,0,1-.31-.65,1.15,1.15,0,0,1,.11-.87L3,36.68c.54-.29,1.1-.57.69-1.33a1.87,1.87,0,0,1-.21-1.7,1.18,1.18,0,0,1,1.58-.77A1.32,1.32,0,0,1,5.73,34c.12.36-.74.25-.38.67s-.23-.09.26-.12a.82.82,0,0,1,.76,0,1.47,1.47,0,0,1,.44.71,2.59,2.59,0,0,1-.21,1.29A10.48,10.48,0,0,1,5.6,38l-.31.33c-.12.09-.25.16-.38.25l-.46,0Z"/><path class="cls-124" d="M5.21,33.47a1.89,1.89,0,0,0-1.71.18c.06-.85-.5-1.72.12-2.55a2.58,2.58,0,0,0,2.12-.83l.73-.39a1.41,1.41,0,0,1,.69.51,2.52,2.52,0,0,1,.24.84,2.56,2.56,0,0,1-.29,1.3,2.55,2.55,0,0,1-1,.89A1.91,1.91,0,0,1,5.21,33.47Z"/><path class="cls-125" d="M5.74,30.27c-.22,1.56-.82,2.1-2.12.83.1-.17.2-.33.31-.49l1.29-.83A2,2,0,0,0,5.74,30.27Z"/><path class="cls-126" d="M43.83,65.22c-1,.94.64,1.91,0,2.86-1.61.35-1.76-1-2.32-1.92A4.77,4.77,0,0,0,40.69,64a3.81,3.81,0,0,1-.6-1.73,1.7,1.7,0,0,1,.24-.91c1.37-1.2,1.93.2,2.74.81a4.72,4.72,0,0,1,.61.73A2.37,2.37,0,0,1,43.83,65.22Z"/><path class="cls-127" d="M43.83,65.22l-.54-2.11c.25-.89,1.09-1.11,1.77-1.51s1.26-1,2-1.37c3.19,2.14-.32,3.1-.85,4.59l-.3.42a.88.88,0,0,1-.88.34Z"/><path class="cls-103" d="M42,65.15a3.27,3.27,0,0,0,1.78,2.93,1,1,0,0,1-1.28.11,1.42,1.42,0,0,0-1.93,0l-.23-.09a3.07,3.07,0,0,1-.23-3.6c.46-.33.94-.14,1.41,0A.71.71,0,0,1,42,65.15Z"/><path class="cls-128" d="M45,65.58l.67-.4.37.17c0,.13,0,.27,0,.4Z"/><path class="cls-128" d="M46.72,65.35c-.07.32-.13.64-.2,1-.15-.19-.31-.37-.47-.56v-.06A.46.46,0,0,1,46.72,65.35Z"/><path class="cls-129" d="M9.23,54.09l-.75-.31L7.22,52a1.42,1.42,0,0,0,.69-1.38c0-1.17.32-2.11,1.82-1.86a2.7,2.7,0,0,1,.7.69,7.3,7.3,0,0,0,2.35,2.79c.22.18.43.39.64.59a4.3,4.3,0,0,0,1.05.68,4.47,4.47,0,0,1,1.2.54,2.13,2.13,0,0,1,.51.74,1.63,1.63,0,0,1-.09.9,1.7,1.7,0,0,1-1.1.76c-.57.06-1.18-.22-1.71.19-1.17-.08-.87-1.2-1.29-1.81A6.8,6.8,0,0,0,9.23,54.09Z"/><path class="cls-130" d="M13.28,56.68c.2-1.7.93-1.32,1.79-.47.62.12,1.08-.53,1.71-.37a4.07,4.07,0,0,1,1.25.58c.65.41,1.35.75,2,1.16a3.14,3.14,0,0,1,.7.66,1.78,1.78,0,0,1,.23.93l-.25.42c-.14.09-.27.19-.4.29a5.62,5.62,0,0,1-1.88.57,2.79,2.79,0,0,1-2.22-1.68l-2-1.07Z"/><path class="cls-131" d="M27.33,11.2c.41.8,1.24,1,1.94,1.45a.61.61,0,0,1,.62.34c0,1,.55.22.86.28a1,1,0,0,1,.43.73,1.88,1.88,0,0,1-1.65,1.54,4.75,4.75,0,0,1-3.05-1.23c-.17-.18-.24-.66-.57-.48s0,.55,0,.84A7,7,0,0,1,25.54,18c-.19.5-.46.91-1.06,1a3.32,3.32,0,0,1-2.29-1.86,2.49,2.49,0,0,1,.47-1.34,2.1,2.1,0,0,0,.15-2.11,2,2,0,0,1,.4-1.79,3.19,3.19,0,0,0,.43-.54c0-.27.09-.42.26-.47s.28,0,.32,0C25.33,10.42,26.28,11.25,27.33,11.2Z"/><path class="cls-132" d="M22.88,10.28c-.47.28-1,.78-1.5.19s.13-1,.54-1.37l1.09,0a.68.68,0,0,1,.53.64A.68.68,0,0,1,22.88,10.28Z"/><path class="cls-6" d="M22.88,10.28a.56.56,0,0,1,.4-.45.56.56,0,0,1,.29-.49c.17-.09.27-.12.3-.08.12.53.23,1.06.35,1.59l-.58.45Z"/><path class="cls-133" d="M23.87,9.26l-.59.57L23,9.14Z"/><path class="cls-134" d="M16.22,58.77c.94.1,1.26,1.41,2.36,1.22.58,0,1-.5,1.65-.41h0c1.35.77,2.3,1.57.2,2.62-1.13-.24-1.12,1-1.82,1.38-2.13-.32-1.72-2-1.79-3.4a1.12,1.12,0,0,1-.71-1.09Z"/><path class="cls-135" d="M16.1,59.09l.71,1.09-1-.14C15.73,59.68,15.69,59.31,16.1,59.09Z"/><path class="cls-136" d="M19.05,64.06l-.08.48c0-.16,0-.32.05-.48Z"/><path class="cls-137" d="M50,63.64a2.37,2.37,0,0,1-.48.41c-.35,0-.7,0-1,0l0,0a.85.85,0,0,1-.67-.62,2.41,2.41,0,0,1,.76-1.76,1.62,1.62,0,0,1,.86-.42,2,2,0,0,1,1.33.49,1,1,0,0,1,.14.88C50.52,62.91,50.08,63.15,50,63.64Z"/><path class="cls-138" d="M52.86,62.45c-.63.48-1.22,1.1-2.14.82-.34-.4,0-.71.14-1l0,0a1.12,1.12,0,0,1,1.13-1A1.23,1.23,0,0,1,52.86,62.45Z"/><path class="cls-139" d="M47.94,63.43c.14.19.29.38.45.56,0,.37-.08.74-.13,1.11l-1.54.25-.66.35a6,6,0,0,0-.36-.52h0A2.46,2.46,0,0,1,47.94,63.43Z"/><path class="cls-140" d="M54.44,62.3a.92.92,0,0,1-.57.22,2.47,2.47,0,0,0-.53-.36c0-.15,0-.3,0-.45a2.89,2.89,0,0,1,.91-1.57,1,1,0,0,1,.87,0,1.84,1.84,0,0,1,.63,1.19v0A1.46,1.46,0,0,1,54.44,62.3Z"/><path class="cls-141" d="M50.86,62.23c0,.34-.09.69-.14,1l-.76.37A1.61,1.61,0,0,1,50.86,62.23Z"/><path class="cls-142" d="M52.68,63.5l.41.62c-.3.11-.81.37-.86.3C51.84,63.91,52.45,63.78,52.68,63.5Z"/><path class="cls-141" d="M52.86,62.45l-1-.92a.73.73,0,0,1,.35-.54c.2-.1.31-.14.34-.09a1,1,0,0,1,.9,1.09l-.11.17A1.81,1.81,0,0,0,52.86,62.45Z"/><path class="cls-53" d="M48.43,64l1,0Z"/><path class="cls-143" d="M57.08,18.23a.79.79,0,0,1,.39-1.08c1.12.35,2.09.77.7,2A1.07,1.07,0,0,1,57.08,18.23Z"/><path class="cls-144" d="M58.58,20a3.64,3.64,0,0,0,.55.42l-.12,0c.09,1.24-.36,1.85-1.69,1.42A.94.94,0,0,1,57,20.61a2.1,2.1,0,0,1,.69-.67A1.18,1.18,0,0,1,58.58,20Z"/><path class="cls-102" d="M58.58,20a5.55,5.55,0,0,0-.56.24,1.48,1.48,0,0,1-1.35-1.67l.41-.31,1.09.93Z"/><path class="cls-145" d="M57.16,15.64l.72.93a.87.87,0,0,1-.51.24C57.09,16.46,56.8,16.11,57.16,15.64Z"/><path class="cls-133" d="M60.52,20.1,59.77,20C60.07,19.71,60.31,19.85,60.52,20.1Z"/><path class="cls-146" d="M65.44,29.11l0,1.11a1.87,1.87,0,0,1-1.22,1.5,2.18,2.18,0,0,1-1.49-.07A2,2,0,0,1,62,31a1.93,1.93,0,0,1,.15-1.45,1.52,1.52,0,0,1,1.28-.6l.25-.15c.5.07,1-.47,1.48-.17C65.27,28.76,65.35,28.94,65.44,29.11Z"/><path class="cls-147" d="M65.2,28.59c-.48.22-.93.68-1.48.17a2.67,2.67,0,0,1,1-1.65C65.45,27.44,65.5,28,65.2,28.59Z"/><path class="cls-148" d="M17.07,13.65c0-.32.05-.65.07-1l.13-.2c.84.39,1.07.95.47,1.74C17.28,14.3,17.06,14.11,17.07,13.65Z"/><path class="cls-91" d="M17.07,13.65l.19.28.22.27a.44.44,0,0,1-.28.43q-.24.07-.3,0L16.47,14A1.73,1.73,0,0,1,17.07,13.65Z"/><path class="cls-149" d="M57.34,21.6A1.53,1.53,0,0,0,59,20.43c.52,1.29,2.23,1.25,2.81,2.47A2.79,2.79,0,0,0,61.56,25a2.19,2.19,0,0,1-.35,2.31,1.28,1.28,0,0,1-1.38-.07c-.6-.52-1.21-1-2.08-.66a1.83,1.83,0,0,1-.93,0c-1.17-.86-.65-1.89-.26-2.91.21-.54.36-1.1.52-1.66Z"/><path class="cls-150" d="M60.1,26.85a1.23,1.23,0,0,0,1.24-.15c.24-.45.55-.72,1.08-.39.95.8-.08,1.56-.07,2.35a.63.63,0,0,1-.19.8,4.19,4.19,0,0,1-2,1.05l-.85-1.14a4.21,4.21,0,0,1,.11-2.14A.7.7,0,0,1,60.1,26.85Z"/><path class="cls-151" d="M62.42,26.31l-1.08.39A1.93,1.93,0,0,1,61.56,25C62.6,24.92,62.78,25.45,62.42,26.31Z"/><path class="cls-152" d="M62,29.18a2.14,2.14,0,0,0,.37-.52,1,1,0,0,1,1.12.25l-1.07.8C62.06,29.69,61.92,29.52,62,29.18Z"/><path class="cls-153" d="M62.77,31.35l1.12.19c.81.12,1.58-.34,2.39-.2-.08.7-.17,1.39-.25,2.09a1.51,1.51,0,0,0-1.69,1.32,1.36,1.36,0,0,1-1.34,0,3.27,3.27,0,0,1-.82-2.15,2,2,0,0,1,.24-.9Z"/><path class="cls-154" d="M66.28,31.34c-.74.81-1.49,1.47-2.39.2l1.57-1.32C65.73,30.59,66,31,66.28,31.34Z"/><path class="cls-155" d="M68.66,33.36c.11.27,0,.44-.22.47-.09,0-.2-.09-.3-.13A1.61,1.61,0,0,1,68.66,33.36Z"/><path class="cls-156" d="M57.43,49l1.07.21a4.19,4.19,0,0,1,1,.09v0c.15.19.28.38.41.58,0,.33-.07.67-.08,1l.9,1.37c-1.62.79-.6,2.29-.95,3.43a1.58,1.58,0,0,1-2.21-.42l-.2-.3a1.05,1.05,0,0,0-.62-.33,7,7,0,0,0-1.12,0,2.08,2.08,0,0,1-.79-.12,1.6,1.6,0,0,1-.51-.64,3.73,3.73,0,0,1-.23-1.24,1.21,1.21,0,0,1,.3-.77,1.73,1.73,0,0,1,2,0,.37.37,0,0,0,.48.22c-.12-.15-.35-.22-.35-.47a.87.87,0,0,1,.8-.79,1.75,1.75,0,0,1,.52.45c-.06-.25-.26-.42-.36-.65A3.49,3.49,0,0,1,57.43,49Z"/><path class="cls-157" d="M57.57,55.25c-1.23.62-1.26,1.85-1.54,3-.61-.14-1.23,0-1.85-.1a2,2,0,0,1-.78-.47,14.54,14.54,0,0,1-1.07-1.5,1.41,1.41,0,0,1,.22-1.34,2.4,2.4,0,0,1,.78-.55c.86-.36,1.41.56,2.19.53l.89-.19a3,3,0,0,1,.9,0,.65.65,0,0,1,.26.77Z"/><path class="cls-158" d="M59.5,58a2,2,0,0,1-1.8,1.47c-.46,0-.41-.75-.52-1.19C57.9,57.77,58.6,57.08,59.5,58Z"/><path class="cls-159" d="M54.08,58c.75-.62,1.42-.65,2,.25l-1.13.92-.35,0a1,1,0,0,1-.49-.48L54,58.29Z"/><path class="cls-160" d="M55.71,61.28l-1-1.09c-.5-.47-.46-.85.2-1.13v.07c.16.19.31.39.46.58C55.65,60.19,56,60.67,55.71,61.28Z"/><path class="cls-161" d="M57.39,62.6c-.78.92-1.43.73-2-.21a.66.66,0,0,1,.3-.59c.2-.11.31-.15.35-.1C56.73,61.65,57.08,62.1,57.39,62.6Z"/><path class="cls-160" d="M56.05,61.7l-.65.69-1-.09,1.27-1A2.43,2.43,0,0,0,56.05,61.7Z"/><path class="cls-162" d="M6.37,39.81,5,39.16a3.73,3.73,0,0,0-.16-.35c.11-.23.21-.47.3-.71v0c.11-1,1.14-1,1.73-1.43.25-.21.51-.42.77-.61a6.49,6.49,0,0,1,1.31-.74,4.51,4.51,0,0,1,1-.28c1,0,2.67.58,2.06,1.13-2.05,1.84-.22,3.75-.7,5.51A3.07,3.07,0,0,0,11.51,44c.42.85,1.06,1.65.62,2.7a1.36,1.36,0,0,1-.83.44c-1.55.06-3.13.45-4.6-.34a.87.87,0,0,1-.38-.71A4.64,4.64,0,0,1,6.73,45c.08-.19.18-.38.27-.56,0,0-.12-.25-.13-.24a.58.58,0,0,1-.38.42l-.3,0c-.7-.44-1.77-.62-1.32-1.87C4.45,41.26,6.28,41,6.37,39.81Z"/><path class="cls-163" d="M6.47,46.14c1.54.54,3.14.11,4.71.2A9.12,9.12,0,0,1,10.87,48a1.85,1.85,0,0,1-1,1.3c-1.23-.37-1.22,1-1.94,1.38v0a3.37,3.37,0,0,0-1-.26h0l-1.31-.68,1-.89c.49-.22,0-.59.15-.87a1.76,1.76,0,0,0-1.33-1.14c-.19-.6.25-.89.61-1.22l.43.13Z"/><path class="cls-164" d="M6.37,39.81c.5.16,1.57.39.54.91s-1.32,1.38-2,2a2.41,2.41,0,0,0-.42-.48C4.32,40.8,5.69,40.58,6.37,39.81Z"/><path class="cls-165" d="M6,45.56l.15-1h0a.5.5,0,0,1,.49.56.52.52,0,0,1-.63.43Z"/><path class="cls-166" d="M46.17,5.64l.87.07c.82.59.52,2,1.75,2.3a1.68,1.68,0,0,1-1,1.32,2,2,0,0,1-1.15,0c-1.38-.78-2-1.83-1.09-3.36A1,1,0,0,1,46.17,5.64Z"/><path class="cls-167" d="M47.62,8.92,48.79,8a1.46,1.46,0,0,0,.51-.23c.35.31.78.56.82,1.11L50,9.67l.07.08a.67.67,0,0,1-.5.71,2,2,0,0,1-1.41-.27A1.26,1.26,0,0,1,47.62,8.92Z"/><path class="cls-168" d="M37.79,9.06c1.08.5,2-.73,3-.38a3,3,0,0,1,1.33-.24h.45a2.62,2.62,0,0,1,.88.19,2.75,2.75,0,0,1,1.33,1.12,2,2,0,0,1,0,.87,3.58,3.58,0,0,1-.59,1.19,1.6,1.6,0,0,1-.77.38,4.11,4.11,0,0,1-.85-.16,5,5,0,0,0-1.68-.28c-.61.06-1.21.23-1.82.27a2.55,2.55,0,0,1-1-.26,2.4,2.4,0,0,1-1.22-2.21A.94.94,0,0,1,37.79,9.06Z"/><path class="cls-169" d="M39.41,4l.78,1.21L38.53,6.6c0,.58.07,1.2-.51,1.6a3.88,3.88,0,0,1-1.77.33,1.38,1.38,0,0,1-1-.85c0-.15,0-.31,0-.46l1.2-1C37.26,5.22,37.73,3.82,39.41,4Z"/><path class="cls-170" d="M42.34,9.16c-.71.46-1.06-.19-1.52-.48,0-.37.09-.74.14-1.1a1.83,1.83,0,0,1,1.63-.43c.21-.11.41-.22.61-.35.87.27.73.93.6,1.58a1.14,1.14,0,0,1-.76.56l-.21-.28A.51.51,0,0,0,42.34,9.16Z"/><path class="cls-171" d="M36.18,8.36a1.36,1.36,0,0,1,1.74-.3c.36,0,.48.21.35.55a5.11,5.11,0,0,0-.48.45L37,9.57a.56.56,0,0,1-.69.33,1.12,1.12,0,0,1-.4-1.17Z"/><path class="cls-172" d="M42.59,7.15A1.3,1.3,0,0,1,41,7.58,1.18,1.18,0,0,1,41.76,6Z"/><path class="cls-173" d="M38.27,8.61a1.67,1.67,0,0,1-.35-.55c.2-.49.41-1,.61-1.46A1.19,1.19,0,0,1,38.27,8.61Z"/><path class="cls-51" d="M42.6,4.6,43.06,4c.64.34.56.69,0,1l-.13,0A4.45,4.45,0,0,0,42.6,4.6Z"/><path class="cls-72" d="M64.66,21.73c0,.31,0,.62,0,.94a1.5,1.5,0,0,1-.51-.49A1.6,1.6,0,0,1,64.66,21.73Z"/><path class="cls-174" d="M7.77,27a4.69,4.69,0,0,0,.54-.46L10,26.19l.38.13a1.89,1.89,0,0,1,.42.69c.15.39.28.79.39,1.19A1.36,1.36,0,0,1,10.33,30a5.51,5.51,0,0,1-1.72,0,3,3,0,0,1-.85-.16.63.63,0,0,1-.3-.72C7.57,28.37,7.67,27.66,7.77,27Z"/><path class="cls-175" d="M10.34,27.86c0-.35,0-.71.05-1.06a1.31,1.31,0,0,1,.13-.7,1.83,1.83,0,0,1,.71-.8l.43-.41,1.39,1.76-.12.38a1.82,1.82,0,0,1-.66.44c-.37.14-.75.27-1.14.38A3,3,0,0,1,10.34,27.86Z"/><path class="cls-176" d="M11.23,25.3a.93.93,0,0,1-.24,1,2.54,2.54,0,0,1-1-.11h0c0-.36.07-.71.11-1.06a.48.48,0,0,1,.64-.32A4,4,0,0,0,11.23,25.3Z"/><path class="cls-85" d="M10.71,24.81a3.82,3.82,0,0,0-.64.32c-.05-.3.06-.47.32-.47C10.5,24.66,10.6,24.75,10.71,24.81Z"/><path class="cls-177" d="M23.21,11.84c0,.51.08,1,.13,1.54a2.37,2.37,0,0,1-1.43,1.87,2.2,2.2,0,0,1-2.76-.7c-.6-.93-2-1.92.22-2.65l.05-.05a5.92,5.92,0,0,0,.41.45c.18.13.33.15.44,0s.18-.18.15-.23Z"/><path class="cls-178" d="M20.42,12.12c.32.35.65.71.28,1.19a.65.65,0,0,1-.62.16c-.53-.26-.44-.72-.25-1.17Z"/><path class="cls-179" d="M5,39.16c-.52.1-.85,0-.5-.59h0a.52.52,0,0,1,.49.57Z"/><path class="cls-180" d="M35,5.59l-.78-1c.69-.87,1.27-.72,1.77.16Z"/><path class="cls-174" d="M6.87,30.4a1.48,1.48,0,0,1-.4-.52A2.53,2.53,0,0,1,7,29.57l.32.11.06.33A.42.42,0,0,1,6.87,30.4Z"/><path class="cls-181" d="M7.29,30.05,7,29.57a.7.7,0,0,1,.5-.5l.42.51c-.06.12-.12.25-.17.38Z"/><path class="cls-182" d="M50.7,12l-1,.86-.52-.15a1.12,1.12,0,0,1-.36-1.42,1.41,1.41,0,0,1,1.43-.57C50.38,11.1,50.54,11.52,50.7,12Z"/><path class="cls-183" d="M50.23,10.67l-1.34,1a.72.72,0,0,1-.61-.71A1.86,1.86,0,0,1,49.53,10,1.26,1.26,0,0,1,50,9.75l.52.54A.57.57,0,0,1,50.23,10.67Z"/><path class="cls-184" d="M19.37,11.9c-1.22,1-.36,1.82.25,2.65a.54.54,0,0,1-.7.28l-2-.2.58-.43c.55-.66.19-1.19-.21-1.72.85-.61.77-1.32.23-2.07C18.63,10.27,18.78,11.36,19.37,11.9Z"/><path class="cls-185" d="M43.06,5.09V4l1.19-.66a.87.87,0,0,0,.49.37c.07.26.15.52.23.78C44.39,4.91,43.87,5.52,43.06,5.09Z"/><path class="cls-186" d="M43.44,8.28,43.2,6.8l.67-.53.17.3.24.24c.91.44,1.57,1,1.09,2.15C44.49,9.38,44,8.78,43.44,8.28Z"/><path class="cls-187" d="M63.36,34.54l1,.21.83,1.15c-.73.57-1.31.1-1.91-.25A.73.73,0,0,1,63.36,34.54Z"/><path class="cls-74" d="M34.61,7.62A5.38,5.38,0,0,0,34.3,7a.89.89,0,0,1,1,.24v0c0,.21,0,.36-.14.43s-.22.11-.25.07Z"/><path class="cls-188" d="M63.36,34.54l-.1,1.11-.68.41a.68.68,0,0,1-.31.51c-.18.11-.28.15-.31.11a1.76,1.76,0,0,1-.83-.44A4.8,4.8,0,0,1,60.36,34c0-.47-.1-.94-.13-1.42a2.66,2.66,0,0,1,.38-1.4c.52-.27.75-1.83,1.66-.39l.5.55-.17,0a2.21,2.21,0,0,0,.09,1.08C62.91,33.17,63.14,33.85,63.36,34.54Z"/><path class="cls-189" d="M61.92,36.5l.66-.44.84,1.13-.15.09c-.62.56-.23,1.9-1.52,1.94a1.92,1.92,0,0,1-.74-.61c-.17-.48-.49-.9-.4-1.44A1.23,1.23,0,0,1,61.92,36.5Z"/><path class="cls-31" d="M3.25,36.89c0,.29-.07.58-.11.88A.61.61,0,0,1,3.25,36.89Z"/><path class="cls-190" d="M45.15,9c.24-.94-.43-1.53-.87-2.2L45.56,6c-.19,1.39.59,2.31,1.51,3.18L47,9.61a1.46,1.46,0,0,1-.79.35,1.86,1.86,0,0,1-.84-.2A.61.61,0,0,1,45.15,9Z"/><path class="cls-82" d="M6.92,50.37l1,.26Z"/><path class="cls-133" d="M6.76,47.92c0,.3.9.74-.15.87l-.49-.57A4.12,4.12,0,0,0,6.76,47.92Z"/><path class="cls-191" d="M14.75,25.32c-.44-1.08.76-2,.36-3.09-.31,0-.44-.14-.34-.45l.13-1c.34,0,.68,0,1-.07l.08.1a3.49,3.49,0,0,1,1.64.67,10.54,10.54,0,0,1,1.59.85,1.46,1.46,0,0,1-.07,1.36,7.68,7.68,0,0,1-1.6,1.81A2.92,2.92,0,0,1,14.75,25.32Z"/><path class="cls-192" d="M16.44,17.7l1,.07,1.05.21a.68.68,0,0,1,.57.68,1.92,1.92,0,0,1-.93,1.14,1.76,1.76,0,0,1-1,.1,5.16,5.16,0,0,0-1.13-.7c-.51-.17-1.32,0-1.11-.85C15.1,17.76,15.92,17.89,16.44,17.7Z"/><path class="cls-193" d="M17.18,19.9l.6-.48a1.41,1.41,0,0,1,1.11.95,1.85,1.85,0,0,1-.26,1.48,1.52,1.52,0,0,1-1.31.67L16,20.77Z"/><path class="cls-194" d="M14.77,21.78,15,22l.13.25-1,.89C13.91,22.47,14.27,22.09,14.77,21.78Z"/><path class="cls-192" d="M15.92,20.67l-1,.06Z"/><path class="cls-195" d="M14.75,25.32c.85-.77,1.78-.08,2.67-.16,1.11,1.5,0,2.32-1,3.14a3.37,3.37,0,0,1-2.71-.23,1.43,1.43,0,0,1-.63-1.42h0C13.62,26.21,14.19,25.77,14.75,25.32Z"/><path class="cls-196" d="M13.51,23.53c.06.37-.12,1-.28.89-.82-.45.16-.58.25-.89Z"/><path class="cls-197" d="M18.92,14.83l.7-.28a2.55,2.55,0,0,0,2,.2c.81.16,1.7.19,1.87,1.28l-1.19.89c-.76.78,1.72,3.19-1.43,2.78-.92-.51-1.26-1.54-2-2.23a3.16,3.16,0,0,1-.25-.6,13.84,13.84,0,0,1,.36-1.79Z"/><path class="cls-193" d="M18.94,17.47c1.4,0,1.78,1.17,2.49,2a1.45,1.45,0,0,1-2,1.21,2.66,2.66,0,0,1-.51-2.05c-.12-.2-.24-.42-.35-.63A4,4,0,0,0,18.94,17.47Z"/><path class="cls-193" d="M19.05,15.08a1.16,1.16,0,0,1-.36,1.79C18.21,16.16,18,15.51,19.05,15.08Z"/><path class="cls-198" d="M36.69,65.49c-.15,1-.65,1.28-1.38.56s-1.4-1.31-2.41-.47c0,.23-.1.36-.25.4s-.25,0-.29,0l-1-.19c.07-.35-.08-.54-.44-.56l-1-.1c0,.26,0,.42-.22.48s-.28.06-.32,0l-1.07-.22-.41-.16-.19-.39c0-.14,0-.29,0-.43.17-.54.42-1,.56-1.6a3.61,3.61,0,0,1,.28-.8,2.28,2.28,0,0,1,.6-.6,1.8,1.8,0,0,1,.82-.19,4.53,4.53,0,0,1,1.5.68,2.91,2.91,0,0,1,.5.56l.19.26s.24.24.24.21a.47.47,0,0,0,.32-.52,2.69,2.69,0,0,0-.11-1.49,2.16,2.16,0,0,1-.12-.87,2.77,2.77,0,0,1,1-1.56,1.28,1.28,0,0,1,1.38.17,3,3,0,0,1,.61.77c.83,1.79-.09,3.88.95,5.63C36.55,65.2,36.62,65.34,36.69,65.49Z"/><path class="cls-199" d="M40.55,64.5c-.07,1.18-.14,2.37-.22,3.55-.94.07-1.33-.62-1.78-1.24a1.55,1.55,0,0,0-.25-1.61,2.08,2.08,0,0,1,.11-.89,6.89,6.89,0,0,1,1-2.05c.47-.28.88,0,1.31.12l.42,1.45c0,.18,0,.37,0,.55Z"/><path class="cls-200" d="M26.4,67.7l-1.53-.64c0-.15.07-.31.1-.47A1.81,1.81,0,0,1,27.16,66a.77.77,0,0,1,.38.79C27.66,67.77,26.86,67.51,26.4,67.7Z"/><path class="cls-94" d="M34.76,67.74c-.07.42-.13.85-.2,1.27,0,.25-.1.38-.26.39s-.24,0-.28-.06l-.48-.63C33.94,68.38,33.85,67.44,34.76,67.74Z"/><path class="cls-201" d="M38.88,64.73l-.58.47-1.08-.15-.46-.27.06-.53a1.59,1.59,0,0,1,1.52-.35A.9.9,0,0,1,38.88,64.73Z"/><path class="cls-202" d="M27.54,66.82c-.18-.16-.35-.33-.52-.5a1.06,1.06,0,0,1,1.24-.88l0,0A1.43,1.43,0,0,1,27.54,66.82Z"/><path class="cls-203" d="M29.36,65.61a2.07,2.07,0,0,1,.54-.48l.3.92C29.79,66.16,29.6,65.84,29.36,65.61Z"/><path class="cls-204" d="M38,67.25c.15.33.68.62.18,1-.06,0-.49-.38-.74-.58A1,1,0,0,1,38,67.25Z"/><path class="cls-205" d="M30.92,65.23c.47-.06.63.12.44.56A6,6,0,0,1,30.92,65.23Z"/><path class="cls-205" d="M32.36,66l.54-.4c.13.29.06.48-.2.51S32.48,66,32.36,66Z"/><path class="cls-199" d="M36.82,64.48l.4.57-.53.44H36.6C36,65,36.22,64.7,36.82,64.48Z"/><path class="cls-93" d="M31.34,69.61c-.06.22-.06.52-.2.65s-.45.1-.33-.14a2.46,2.46,0,0,1,.5-.52Z"/><path class="cls-99" d="M31.31,69.6l.18-1.22h0l-.18,1.23Z"/><path class="cls-206" d="M20.42,62.2c1.09-1,.41-1.79-.2-2.62.19-.15.38-.28.58-.42,1.35.31,2.53-2.39,4-.29.21.22.39.19.6-.07s.25-.26.24-.29c.93-.73,1.84-1.22,2.53.22.35.32-.86.54-.07.93a1.68,1.68,0,0,1,.38.64,3.4,3.4,0,0,1,.28,2h0c0,.9-.87,1.5-.86,2.41l-.07.14c-.5.82-1.3.47-2,.52a2.81,2.81,0,0,1-.85-.22,2.2,2.2,0,0,0-.77-.37h0a1.09,1.09,0,0,1-.76-.74,1.94,1.94,0,0,0-.48-.55c-.58-.1-1.16,0-1.72-.08C21,63,20.69,62.61,20.42,62.2Z"/><path class="cls-207" d="M21.22,63.42a8.77,8.77,0,0,1,1.65-1.18c.85-.34,1.29,0,1,1h0l.33,1.58L22.66,65A1.71,1.71,0,0,1,21.22,63.42Z"/><path class="cls-208" d="M22.48,65.22c.3.69-.24,1-.65,1.31A1.18,1.18,0,0,1,22.48,65.22Z"/><path class="cls-209" d="M23.43,66.29l.59-.45A.85.85,0,0,1,24.89,67l0,0A1.39,1.39,0,0,1,23.43,66.29Z"/><path class="cls-210" d="M24.46,66.32a2.51,2.51,0,0,1-.44-.48l.58-.52a.52.52,0,0,1,.58-.4h0C25.85,65.86,25.66,66.36,24.46,66.32Z"/><path class="cls-207" d="M25.18,64.92a1.47,1.47,0,0,1-.58.4,4.24,4.24,0,0,1-.43-.52Z"/><path class="cls-145" d="M49.68,12.81c.64,1.48,2,2.17,3.23,3,.85.93.13,2.22.7,3.21a2.79,2.79,0,0,1,1.78,1.4c.25.7.65,1.43-.3,2-2.16-.48-3.65-2.46-6.6-1.56-1.86.57-2-2.32-1.57-4.14.46-.57,1.1-1.07.86-2,0-1.19.51-2,1.86-1.85Z"/><path class="cls-211" d="M56.67,18.54,58,20.21l-.67.48a1.93,1.93,0,0,1-1.4-.83,1.78,1.78,0,0,1-.26-1.6Z"/><path class="cls-145" d="M54.38,13.32l.38.26c.22.35.44.7.65,1.05C54.41,14.71,54,14.3,54.38,13.32Z"/><path class="cls-145" d="M55.69,18.26l.84,1.26c-.35.61-.81.47-1.3.22a1.42,1.42,0,0,1-.49-1.38Z"/><path class="cls-212" d="M54.81,20.77l-1.2-1.7.45-.39c.58.06.82.52,1.12.92S55.43,20.53,54.81,20.77Z"/><path class="cls-213" d="M54.93,19.8l-.87-1.12.68-.32.82,1.18C55.45,19.87,55.25,20,54.93,19.8Z"/><path class="cls-214" d="M53.45,15.58l.12-.94.53.85Z"/><path class="cls-211" d="M55.22,16.78c-.45,0-.48-.2-.31-.54C55.26,16.28,55.38,16.45,55.22,16.78Z"/><path class="cls-102" d="M55.22,16.78a1.46,1.46,0,0,0-.31-.54C55.55,16.11,55.62,16.31,55.22,16.78Z"/><path class="cls-93" d="M34,69.34a1.47,1.47,0,0,1,.55-.33c.21.27.51.5.27.9Z"/><path class="cls-114" d="M59.83,50.87c0-.34.05-.67.08-1C59.88,50.2,59.86,50.53,59.83,50.87Z"/><path class="cls-114" d="M60.9,48.41a2.09,2.09,0,0,0,.24.55,2,2,0,0,1-.48.55l-.55-.62Z"/><path class="cls-74" d="M30.64,13.33l-.6.46a.53.53,0,0,1-.4-.61,2.19,2.19,0,0,1-.37-.53l.49-.45h.09a.92.92,0,0,1,.72.32A1,1,0,0,1,30.64,13.33Z"/><path class="cls-215" d="M30.33,12.81l-.48-.6,2.44-1.77c.9.85,2.18.84,3.22,1.39a1.33,1.33,0,0,1,.29,1.85,2.41,2.41,0,0,1-.83.62C33,15.18,31.9,13.24,30.33,12.81Z"/><path class="cls-216" d="M35.15,11.87c-1.6.8-2.63.48-2.86-1.43a2.42,2.42,0,0,0,2.27-1.77,1.22,1.22,0,0,1,.85.4,4.34,4.34,0,0,1,.52,2.37A.71.71,0,0,1,35.15,11.87Z"/><path class="cls-217" d="M35,9.15a1.83,1.83,0,0,1-.48-.48c.11-.33.23-.66.35-1l.39-.5.88,1.17v0C36,9,35.69,9.31,35,9.15Z"/><path class="cls-218" d="M34.83,13.89c.19-.1.39-.19.6-.28.39.07.58.37.79.62a1.38,1.38,0,0,1,.27.08,1.8,1.8,0,0,0,.17-.25c.25-.88.59-1.59,1.69-1.05.46,1,1.06,1.57,2.21,1a3.29,3.29,0,0,1,.91.32c1.34.63,2,2.05,3.26,2.74a1,1,0,0,0,.91-.52,2.32,2.32,0,0,1,.81-.89,1.44,1.44,0,0,1,.82-.1c.11.09.21.19.31.29s0,.28.05.42c0,.6-.12,1.2-.09,1.79.14,2.61.18,2.69,2.63,1.81a2.3,2.3,0,0,1,3.06.9c.48.62,1.32,1,1.8,1.74,0,.15-.07.31-.1.46a1.06,1.06,0,0,1-1.19.39,2.68,2.68,0,0,1-1.06-.61,1,1,0,0,1,0,.22A1.83,1.83,0,0,1,53,23a3.37,3.37,0,0,0,1,.39,1.43,1.43,0,0,1,.75.39c.37.45.62,1,1,1.46.56.27.35,1.45,1.39,1.15L57.7,26c1.51.4,1,1.4.67,2.33a3.78,3.78,0,0,1-.59.73,3.09,3.09,0,0,0-.86,2h0c-.29.78-1.29,1.18-1.19,2.18A3.79,3.79,0,0,1,54.27,35a1.53,1.53,0,0,1-1.62.29,2.57,2.57,0,0,1-.38-.9c0-.16-.05-.32-.08-.48a3.82,3.82,0,0,0-1.84-3.52,1.55,1.55,0,0,1-.17-.9,3.4,3.4,0,0,1,1.16-1.6,1.74,1.74,0,0,1-.15-.26l-.28.17c-1.46.12-2.12-.49-1.87-1.95.19-.59.9-.69,1.17-1.22.42-.23-.42-.33,0-.08a2.18,2.18,0,0,1-2.48.63c-.49-.25,0-.65-.14-1-.22.22-.21.55-.4.79-1.22.16-1.56-.8-2-1.57-.12-.7-.62-.11-.92-.24-.73-.14-1.32-.76-2-.73-3,.09-2.79-1.71-2.33-3.7-.12-.32.4-.54.17-.89,0,.21-.08.43-.14.68a2,2,0,0,1-1.14,1.84,2.28,2.28,0,0,0-2,.37,1.12,1.12,0,0,0-.81.6c-.3.84-.19,2.07-1.54,2-1.09-.07-1.49-1-1.77-1.93a17.9,17.9,0,0,1-.47-2.05,8,8,0,0,1-.14-1,5,5,0,0,1,.29-2.91A7.94,7.94,0,0,1,34.83,13.89Z"/><path class="cls-219" d="M52.8,34.21l-.15,1c.18,1.38.35,2.76.54,4.25,1.33-.66.47-2.26,1.68-2.79,1.28.16.71,1.64,1.45,2.19a3.24,3.24,0,0,1,1.9,1.33c-.13,1.53-1.17.73-1.87.74-1.35,0-2.36.39-2.48,2a3,3,0,0,1-1,2.22c-1.48,1.23-1.13,2.47,0,3.71,0,.16-.07.32-.1.49a1.82,1.82,0,0,1-1.57.94.57.57,0,0,1-.54-.3c-.15.16-.12.33.11.53a6.19,6.19,0,0,1,.66,1.94,1.91,1.91,0,0,1-.15.85,6.28,6.28,0,0,1-.44.76c-.13.26-.26.52-.38.79s-.09.28-.13.42a7.7,7.7,0,0,1-1,2.56,3.7,3.7,0,0,1-1.39,1.36,1.09,1.09,0,0,1-.92-.26c-.62-.16.29-3.15-1.64-.85a4.28,4.28,0,0,1-.94.37,4.8,4.8,0,0,1-2.46-.24,5.24,5.24,0,0,1-1.25-.78,3.33,3.33,0,0,1-1-1.08A1.74,1.74,0,0,1,40,54.93a8.41,8.41,0,0,1,1-1.15c.82-.81,1-2,1.43-2.92a1.5,1.5,0,0,1,1.75-1c.9.25.61,1.17.78,1.83s-.57,1.18-.73,1.82a1.4,1.4,0,0,1-.89,1.09,4.7,4.7,0,0,0-.59.4c.2-.06.36-.21.57-.28,1.35.25.91-.71,1-1.36,1.66.21.63-.85.69-1.4.51-1.41,1.52-2.91-.66-3.86-.19-.09-.28-.39-.38-.6-.23-.48-.23-1.25.19-1.25,3.72,0-.53-6.16,4.23-5.32,1.08.2,2.3.44,1-1.6S49.9,35.26,52.8,34.21Z"/><path class="cls-220" d="M58.78,45.94A1.13,1.13,0,0,1,57,45.88a5.66,5.66,0,0,0-2-1.35c-.12-.71-.22-1.5.52-1.88s1.07.26,1.42.73C57.54,44.22,58.15,45.08,58.78,45.94Z"/><path class="cls-221" d="M62,39.15c.4-.65-.11-1.92,1.3-1.87l.36,1.54,0,0c-.05.55-.78.84-.58,1.49v0a4.53,4.53,0,0,1-.53.9,1.57,1.57,0,0,1-1.46.37l-.39-.5C60.47,40.06,60.67,39.26,62,39.15Z"/><path class="cls-150" d="M52.78,48.86l.55-.45c0-.25.12-.39.28-.42s.26,0,.3,0a4.45,4.45,0,0,1,2.35,1.87l-.31.47c-1.65.75-3,.82-3.17-1.47Z"/><path class="cls-222" d="M62.27,30.8c-.84-.28-1,.58-1.44.9a2.06,2.06,0,0,0-.73.39,1.31,1.31,0,0,1-.83,0,.6.6,0,0,1-.26-.71l1.13-.9A2.15,2.15,0,0,1,62,29.18l.17.3.25.23C62.36,30.07,62.31,30.44,62.27,30.8Z"/><path class="cls-219" d="M53.91,48l-.58.41a4,4,0,0,1-.34-.64c-.26-.75-.26-1.45.58-1.84.15-.07.48.08.64.23C55,46.88,54.43,47.45,53.91,48Z"/><path class="cls-223" d="M58.42,42.48c.58-.09.88.43,1.13,1,.16.33.19.77-.26.89-.73.18-1.1-.3-1.3-.9C57.88,43.12,57.76,42.72,58.42,42.48Z"/><path class="cls-224" d="M55.61,33c-.88-.49-1.4-1-.06-1.59a7.78,7.78,0,0,1,1.37-.31,1.34,1.34,0,0,1-.33,2.08A1.3,1.3,0,0,1,55.61,33Z"/><path class="cls-225" d="M60.91,33.86c.17.71.35,1.42.52,2.14-.44.67-1,.61-1.58.23a2.48,2.48,0,0,1-.25-2.63A1,1,0,0,1,60.91,33.86Z"/><path class="cls-219" d="M55.61,33l1,.18c-.05.33-.1.66-.14,1h0c-.66.47-1.24,1.12-2.18.76C54.18,33.93,55,33.53,55.61,33Z"/><path class="cls-226" d="M62,39.15l-1.25,2c-2.11-.66-.13-1.82-.31-2.71.42-.26.76.11,1.14.14l.22.28Z"/><path class="cls-227" d="M58.22,40.22c-1,.05-1.42-.67-1.9-1.33C58.66,38.46,58.66,38.46,58.22,40.22Z"/><path class="cls-224" d="M56.92,31.12c-1.61-1.61-.14-2,1-2.48l.29.19,0,.35A5.2,5.2,0,0,1,56.92,31.12Z"/><path class="cls-228" d="M58.29,29.18a3.84,3.84,0,0,0-.35-.54h0a1.37,1.37,0,0,1,1.66-1.24c.64.75.46,1.39-.28,2Z"/><path class="cls-229" d="M61.11,41.63l1.29-.87a4.18,4.18,0,0,0,1,0l0,0a.66.66,0,0,1,.4.72l-1.15.86a1.78,1.78,0,0,1-1.56.32Z"/><path class="cls-230" d="M59.85,36.23,61.43,36a3.86,3.86,0,0,1,.49.5l-1.27,1-.35.34A1.5,1.5,0,0,1,59.85,36.23Z"/><path class="cls-231" d="M60.91,33.86,59.6,33.6l-.54-1.05a.41.41,0,0,1,.26-.67,2.7,2.7,0,0,0,.31.28c.49.05.8.46,1.24.59C60.88,33.12,60.9,33.49,60.91,33.86Z"/><path class="cls-232" d="M56.45,34.18a2.51,2.51,0,0,1,.94.26c.3.23.88.58.24,1a.61.61,0,0,1-.84-.31,6.44,6.44,0,0,1-.34-1Z"/><path class="cls-233" d="M61.07,42.68c.48-.34.94-.74,1.56-.32l-.08,0a3.08,3.08,0,0,1-.11,1,2.55,2.55,0,0,1-.41.51.54.54,0,0,1-.71.32C60.86,43.76,61.08,43.2,61.07,42.68Z"/><path class="cls-114" d="M57.43,49a1.67,1.67,0,0,1,.39,1.57,1.94,1.94,0,0,1-1.3.09.66.66,0,0,1-.26-.75h0Z"/><path class="cls-7" d="M58.15,47.54c.49-.35,1-.72,1.61-.34A1.33,1.33,0,0,1,58.15,47.54Z"/><path class="cls-234" d="M60.3,37.8a1.88,1.88,0,0,0,.35-.34l.9,1.1-1.13-.14A1.67,1.67,0,0,1,60.3,37.8Z"/><path class="cls-224" d="M59.32,31.88a3.21,3.21,0,0,1-.26.67c0-.38-1.39-.68-.05-1.14A4.76,4.76,0,0,0,59.32,31.88Z"/><path class="cls-114" d="M59.5,49.26l-1-.09.57-.51Z"/><path class="cls-7" d="M61.32,44.21l.7-.32c-.1.33-.22.67-.33,1Z"/><path class="cls-7" d="M63.09,40.34c-.32-.69.06-1.11.58-1.49A1.39,1.39,0,0,1,63.09,40.34Z"/><path class="cls-7" d="M63.4,40.75a.84.84,0,0,1-1,0l.7-.4.19.16Z"/><path class="cls-7" d="M63.78,41.5l-.4-.71a.84.84,0,0,1,1,.24Z"/><path class="cls-7" d="M65.42,41.12a.79.79,0,0,1-1-.09A.75.75,0,0,1,65.42,41.12Z"/><path class="cls-7" d="M62.44,43.38c0-.33.08-.66.11-1l.53.58Z"/><path class="cls-235" d="M9.62,35.6l-.69.46a4.88,4.88,0,0,0-1.2.11c-.58-.05-1.06-.24-1.21-.88l-.34-.69A1.73,1.73,0,0,1,6,33l1-.92a1.79,1.79,0,0,1,.82.18,7.92,7.92,0,0,0,1.14.54,12.49,12.49,0,0,1,2.2-.28,1.4,1.4,0,0,1,.51,1.66A7.7,7.7,0,0,1,9.62,35.6Z"/><path class="cls-236" d="M6.52,35.29,8,35.78c.21.44-.16.8-.16,1.21a1,1,0,0,1-.62.32.93.93,0,0,1-.87-1.11C6.41,35.9,6.47,35.6,6.52,35.29Z"/><path class="cls-31" d="M6.36,36.2l.87,1.11-2.15.84C4.91,37.12,5.74,36.73,6.36,36.2Z"/><path class="cls-237" d="M6,33a1.74,1.74,0,0,1,.22,1.59L5.52,35c-.42,0-.52-.24-.31-.6v-1Z"/><path class="cls-238" d="M5.21,34.42a1.56,1.56,0,0,0,.31.6c-.49.07-1,.16-1-.59Z"/><path class="cls-31" d="M4.94,39.14l-.49-.57.64-.47A.9.9,0,0,1,4.94,39.14Z"/><path class="cls-181" d="M7.47,32.7,7,32.09c0-.34.09-.68.14-1l.47.13A1.42,1.42,0,0,1,8,32,.79.79,0,0,1,7.47,32.7Z"/><path class="cls-181" d="M6.87,30.4l.42-.35h0c.49.37.39.7-.07,1H7.12A1.25,1.25,0,0,1,6.87,30.4Z"/><path class="cls-239" d="M40.06,56.53l1,.24c-.08,1.13,1.1,1.37,1.54,2.15.3.52.55,1.06.87,1.58a1.81,1.81,0,0,1,.24.85,2.47,2.47,0,0,1-1,1.43,1,1,0,0,1-1-.74c-.29-.85-.79-.61-1.31-.24a.78.78,0,0,1-.72-.48c-.17-.91.25-1.85-.06-2.75C39.53,57.84,38.93,57,40.06,56.53Z"/><path class="cls-240" d="M42.73,62.78a1.31,1.31,0,0,1,.87-1.5,1.4,1.4,0,0,1,1.74.38,1,1,0,0,1,.06.91l-2.11.54A2,2,0,0,0,42.73,62.78Z"/><path class="cls-199" d="M42,65.15l-.54-.55a.44.44,0,0,1-.38-.61l0-.16C41.92,63.92,42.27,64.32,42,65.15Z"/><path class="cls-241" d="M39.9,61.32a5.55,5.55,0,0,0,.49.48l.3.58-1-.12C39.27,61.84,39.29,61.51,39.9,61.32Z"/><path class="cls-128" d="M52.56,60.85l-.7.68-1,.68-1.54-.73h0a4.92,4.92,0,0,0-1.36,2l-2.25,1.74c0-1.45,1.29-2.25,1.86-3.41.37-.74.07-1.12-.76-1.07l-.43-.15A1,1,0,0,1,46.24,59a1.77,1.77,0,0,1,1.29.25h0c.53,0,.76-.42,1-.77s.37-.49.54-.75l.3-.35a1,1,0,0,1,.87,0,1.78,1.78,0,0,1,.73,1c0,.37,0,.76.13,1.13A1.39,1.39,0,0,0,52,60a.81.81,0,0,1,.54.45Z"/><path class="cls-242" d="M45.4,62.57c-.11-.22-.22-.43-.34-.64-.18-1.45.47-1.77,1.71-1.26l0,0C46.87,61.71,46.06,62.08,45.4,62.57Z"/><path class="cls-243" d="M41.07,64l.24.27.14.34-.9-.1A.93.93,0,0,1,41.07,64Z"/><path class="cls-244" d="M16.11,55.39c-.1-.23-.2-.46-.31-.69-.17-.75-.8-1.43-.35-2.29.57-1.12-.09-1.7-1-2.18A3.94,3.94,0,0,1,13,48.44a2,2,0,0,1-.07-.9,1.48,1.48,0,0,1,.59-.6,3.85,3.85,0,0,1,.75-.16c.54-.11.47-.9,1.07-1a1.68,1.68,0,0,1,1.61,1.38c-.29.72.06.9.71.84,1.93.95,3.46,2.15,2.87,4.66a2.18,2.18,0,0,1-.41.87c-.75.5-1.81.34-2.4,1.17a2.53,2.53,0,0,1-1.15.72Z"/><path class="cls-245" d="M13.67,47.13l-.58.46a3.27,3.27,0,0,1-.84,2.12,2.47,2.47,0,0,1-.82.47,2,2,0,0,1-.93-.08l-.36-.31a2.58,2.58,0,0,0-.29-.51c.2-.52.4-1,.59-1.55a1,1,0,0,1,1.17-.86c.43-1.26-.68-1.87-1.14-2.76a1.16,1.16,0,0,1,.77-1.06,3.38,3.38,0,0,1,1.41-.16,4.42,4.42,0,0,1,.93.2,2.32,2.32,0,0,1,.77.55,1.78,1.78,0,0,1,.12,1.81C14.12,46,14,46.6,13.67,47.13Z"/><path class="cls-246" d="M12.82,53.3c-.93-1.15-3.1-1.34-2.68-3.51h0a3.34,3.34,0,0,0,1.91.42,2.28,2.28,0,0,1,1.43.63C14.08,51.87,14.67,52.89,12.82,53.3Z"/><path class="cls-244" d="M12.82,53.3c1.11-1,.41-1.86-.31-2.67a.64.64,0,0,1-.35-.85c.78-.92,1.49-.78,2.16.12.49.85,1.84,1.32,1.18,2.69a2.72,2.72,0,0,1-2.29,1.29A.92.92,0,0,1,12.82,53.3Z"/><path class="cls-130" d="M13.21,53.88l2.32-1.77a.44.44,0,0,1,.44.57c-.06.67-.11,1.34-.17,2l-.63-.53a7.53,7.53,0,0,0-.83-.1A1.15,1.15,0,0,1,13.21,53.88Z"/><path class="cls-247" d="M16.54,55.92c-.44.37-.87.78-1.47.29l1-.82.05-.1.42.18Z"/><path class="cls-248" d="M14.34,54.07a.52.52,0,0,1,.83.1Z"/><path class="cls-244" d="M28,60.12l-.37-.56v0c-.34-1.41-.35-1.41-2.13-.27a.9.9,0,0,1-1.09.84c-.64-1.48-.77-1.55-1.3-.64-1.12,1.91-1.62.32-2.31-.3-.12-.2-.24-.39-.38-.58A1,1,0,0,0,20,57.7c-.19-.13-.37-.26-.55-.41s-.59-.33-.87-.51l-.3-.07-.17.27a.93.93,0,0,1-.65.11l-.9-1.17h0c.05-.49.43-.74.76-1a7.35,7.35,0,0,1,.67-.56A4.55,4.55,0,0,1,19.19,54c.38-.11.81-.17.88-.68l0-.07c.4-.76,1-.67,1.69-.49,1.22.7,0,2.42,1.27,3.08s2.35,1.22,3.75.78a2.72,2.72,0,0,1,1,.11,7.09,7.09,0,0,1,2.38,1.78A3.39,3.39,0,0,1,30.71,61a.75.75,0,0,1-.79.47l-.61.39A1.68,1.68,0,0,1,28,60.12Z"/><path class="cls-206" d="M18.61,56.24l1.48.7a2.28,2.28,0,0,0,.05.78l-.22.33a6.61,6.61,0,0,1-2.48-1l.56-.44c.05-.23.15-.37.32-.41S18.58,56.2,18.61,56.24Z"/><path class="cls-206" d="M20.23,59.58a1.91,1.91,0,0,1-1.65.41A1.43,1.43,0,0,1,20.23,59.58Z"/><path class="cls-206" d="M20.48,57.51l-.06,1.07c-.16-.18-.32-.36-.5-.53l0-.15a.44.44,0,0,1,.27-.37C20.36,57.48,20.45,57.47,20.48,57.51Z"/><path class="cls-249" d="M24.68,18.77l.2-1c1.68-2.17,2.16-.11,3,.81.6-2.39,2.07-2.37,3.85-1.38a2,2,0,0,1,.9,1.1v0c-.42,3.87-.42,3.87-4.39,3.44-.94-.11-1.94.38-2.83-.28C24.81,20.7,23.27,20.12,24.68,18.77Z"/><path class="cls-205" d="M24.68,18.77c-.81,1.09,1.11,1.3.72,2.25.13.74,0,1.36-.84,1.58-.53.1-1.27-1-1.6.41-.25,1.09-1.23,1.42-2.28,1.46a3.44,3.44,0,0,1-1.48-.33.91.91,0,0,1-.42-.84c0-.37,0-.75,0-1.12-.36,0-.46-.12-.34-.45l.18-1.17q.14-.49.6-.3c.92.25,1.51-.36,2.17-.81,1.21-.42.15-.91,0-1.3-.33-.91-.19-1.39.9-1.23A5.07,5.07,0,0,1,24.68,18.77Z"/><path class="cls-250" d="M32.6,18.33c-1.5-.43-3.12-2.5-4.35.48-.32.79-.77,0-1-.26-.64-.79-1.25-1.52-2.38-.75-.21-1.06.86-2,.41-3.06a.93.93,0,0,1,1.17-.82c1,.48,2.25.26,2.94,1.34.53.07,1.08-.1,1.61,0a8.15,8.15,0,0,1,1.19.26l.34.22C32.57,16.62,33,17.46,32.6,18.33Z"/><path class="cls-251" d="M30.9,16l-1.5-.76c.64-.5,1.46-.89,1.24-1.93-.1-.18-.2-.35-.31-.52.62-.45,1.39-.7,1.8,0,.66,1.16,1.75.84,2.7,1.05-.27,1.23-1.57,1.2-2.29,1.87l-.15-.08C31.85,15.59,31.44,16.1,30.9,16Z"/><path class="cls-252" d="M26.46,13.92l-1.17.82c-.36-.66-1.34-1.28-.44-2.08a1.58,1.58,0,0,1,2,.14C27.27,13.18,26.77,13.59,26.46,13.92Z"/><path class="cls-253" d="M23.53,16c-.66-.37-1.44-.58-1.87-1.28l1.68-1.37C24,14.21,24.68,15.05,23.53,16Z"/><path class="cls-254" d="M29.64,13.18c.14.2.27.41.4.61C29.14,14.09,29.38,13.64,29.64,13.18Z"/><path class="cls-255" d="M54.9,59.06c-.07.38-.13.75-.2,1.13l-.5.27a1.45,1.45,0,0,1-.9,0c-.47-.35-1.16-.51-1.19-1.27a1.55,1.55,0,0,1,1-.94,2.28,2.28,0,0,1,1.31.41Z"/><path class="cls-256" d="M53.76,60a2.19,2.19,0,0,0,.44.42A1.46,1.46,0,0,1,53.45,62l-.89-1.14-.07-.09A1,1,0,0,1,53.76,60Z"/><path class="cls-257" d="M54.93,19.8l.63-.26,1,0,.82,1.17c0,.31,0,.61,0,.91l-.12.35a1.12,1.12,0,0,1-.33,1.27c-.81.23-1.59.38-1.86-.73v0a1.78,1.78,0,0,0-.22-1.7Z"/><path class="cls-145" d="M55,22.49l2,.4c.42,0,.57.13.41.54-.3,1-1.23,1.86-.38,3,.07.51,0,1.07-.51,1.2-1.26.34-.25-.76-.6-1s-.91-.72-1.36-1.07c.15-.53.56-1.1-.21-1.49l-.53-.63h0Z"/><path class="cls-145" d="M59.57,27.41l-1.66,1.24c-.26-.85.6-1.81-.21-2.61,1.35-1.63,1.35-1.63,2.4.81C59.92,27,59.75,27.23,59.57,27.41Z"/><path class="cls-258" d="M57.47,23.43a4.26,4.26,0,0,0-.41-.54c0-.31.11-.63.16-.94C57.74,22.37,58.05,22.82,57.47,23.43Z"/><path class="cls-222" d="M62.69,32.48a1,1,0,0,1-.09-1.08A.87.87,0,0,1,62.69,32.48Z"/><path class="cls-113" d="M56.26,49.87l.54.61c.4.08.46.28.22.6,0,.33-.07.65-.11,1s-.09.36-.24.41-.24.05-.27,0a3.51,3.51,0,0,0-2.16-.39,2.14,2.14,0,0,1-1.13.52,3.65,3.65,0,0,1-2,.21c-.44-.67-1.07-1.27-.74-2.2h.4c.16.14.28.31.44.46-.11-.18-.21-.37-.31-.56l.12-.38,1.79-1.27C53.56,50.45,54.89,50.22,56.26,49.87Z"/><path class="cls-259" d="M53.31,52l.94.05.08.14c-.09.52.28,1,.29,1.46l.4.67a1,1,0,0,1,.91,1.17c-1.06.32-1.54-1-2.56-.86-.71-.51-1.49-1-1.25-2.08A1.61,1.61,0,0,1,53.31,52Z"/><path class="cls-260" d="M57.57,55.32,57,54.71a.39.39,0,0,1-.24-.59c.44-.3.92-.91,1.4-.2S57.94,54.92,57.57,55.32Z"/><path class="cls-261" d="M57,51.08a1.4,1.4,0,0,0-.22-.6l1,.05c0,.36.55.78,0,1C57.64,51.65,57.28,51.26,57,51.08Z"/><path class="cls-262" d="M55.93,55.53,55,54.36l.64-.37c.6.13.92.46.82,1.1A1.47,1.47,0,0,1,55.93,55.53Z"/><path class="cls-263" d="M54.62,53.69c-.39-.43-.74-.87-.29-1.46C54.67,52.67,54.94,53.12,54.62,53.69Z"/><path class="cls-113" d="M56.48,55.09,55.66,54l1.1.13a2.15,2.15,0,0,1,.24.59A2.77,2.77,0,0,1,56.48,55.09Z"/><path class="cls-259" d="M56.4,52.48a4.06,4.06,0,0,0,.51-.42C57.09,52.63,56.9,52.75,56.4,52.48Z"/><path class="cls-259" d="M49.93,57.34l-.78.31-.27-.42.94-2.49A3.05,3.05,0,0,1,51,54.15a2.37,2.37,0,0,1,.88,0,1.28,1.28,0,0,1,.94.86,1.25,1.25,0,0,0,.06,1.2.6.6,0,0,1,.39.66,1,1,0,0,1-.62.51,4.8,4.8,0,0,0-1.58.29A4.18,4.18,0,0,1,49.93,57.34Z"/><path class="cls-264" d="M52.67,57.21c.14-.13.28-.27.41-.41.4-.06.55.12.49.51l.51.65v0a.58.58,0,0,1-.34.47c-.18.08-.29.09-.32.05l-1.14.87a.74.74,0,0,1-.81.41,1,1,0,0,1-.68-1.19l-.85-1.2L51,57.5A2.57,2.57,0,0,0,52.67,57.21Z"/><path class="cls-265" d="M52.82,55l-1.27-.6c-.32-.69-.3-1.24.58-1.46a1.72,1.72,0,0,1,1.24,1.7A3.25,3.25,0,0,1,52.82,55Z"/><path class="cls-266" d="M53.57,57.31c-.16-.18-.32-.35-.49-.51a2.75,2.75,0,0,0-.2-.57C53.79,56.15,54.05,56.49,53.57,57.31Z"/><path class="cls-157" d="M53.41,58.45l.66-.52.33.69Z"/><path class="cls-267" d="M9.62,35.6a2,2,0,0,1,1.74-1.34,2.11,2.11,0,0,1,.93.1,3.29,3.29,0,0,1,1.5,1.1,3.38,3.38,0,0,1,.38.87c-.4,1.37,3,2.91-.22,4.15-.2.09-.51.05-.47.41.21-.13.4-.07.57.17.34.87.87,1.77-.34,2.43l-.16,0a2.77,2.77,0,0,1-.69-.34A3.88,3.88,0,0,0,12.1,43a5.66,5.66,0,0,1-1.16-.22.61.61,0,0,1-.19-.7C9.89,41,11,39.44,9.64,38.18c-.81-.77,1.17-1.26,1.89-1.8C11.09,35.33,10.15,36.05,9.62,35.6Z"/><path class="cls-268" d="M10.75,42.07a5.47,5.47,0,0,1,.45.51l.45.14c0,.16,0,.32,0,.48-.39.3-.78.6-1.16.91A1.27,1.27,0,0,1,10.75,42.07Z"/><path class="cls-24" d="M6.5,45.12l-.31-.55c.51-.51.34-2,1.73-1.23a4.83,4.83,0,0,1-.13.76l-.52.64-.23.5Z"/><path class="cls-269" d="M11.61,46.87l-1.17.86c-.21-.71.21-1.08.74-1.39l.23.25Z"/><path class="cls-270" d="M7.85,37c.06-.4.11-.8.16-1.21a.78.78,0,0,1,.92.28Z"/><path class="cls-24" d="M6.05,45.56a3.73,3.73,0,0,0,.45-.44l.28,0,.28.21v.35l-.58.42C6.32,46,6.18,45.76,6.05,45.56Z"/><path class="cls-163" d="M7.05,45.72a3.2,3.2,0,0,1-.27-.56,2,2,0,0,1,.49-.42C7.2,45.07,7.12,45.4,7.05,45.72Z"/><path class="cls-271" d="M7.79,44.1c0-.25.08-.5.13-.76C8.18,43.65,8.18,43.9,7.79,44.1Z"/><path class="cls-272" d="M47.62,8.92,48.54,10a.92.92,0,0,1-.34.71,1.12,1.12,0,0,1-.72.37,1,1,0,0,1-.64-.47A1.44,1.44,0,0,1,47,9.46l0-.28A1.64,1.64,0,0,0,47.62,8.92Z"/><path class="cls-87" d="M47.92,10.52l.62-.48,1,0-1,1C48.16,11.1,47.94,10.92,47.92,10.52Z"/><path class="cls-145" d="M45.22,18c-.83.11-1.87.19-2-.77C43,15.89,41.62,15.68,41,14.76c.17-.84-.88-1-.93-1.77a1.85,1.85,0,0,1,.07-.84,2.72,2.72,0,0,1,.45-.72l.29-.31a3,3,0,0,1,2.15.25c0,.37-.08.89.61.64l.46-.46a.65.65,0,0,1,.28-.52c.18-.11.28-.15.31-.11a1.85,1.85,0,0,1,.8.49,9.94,9.94,0,0,1,.86,1.65c.23.4.46.8.66,1.22a1.78,1.78,0,0,1,.14,1.36L46,16.53A2.1,2.1,0,0,1,45.22,18Z"/><path class="cls-273" d="M38.06,13.32c-.67-.16-.8.28-.82.79s.23,1.16-.14,1.71c-.54-.07-.8-.69-1.37-.71l-.3-1.5a1.58,1.58,0,0,0-.28-1.74l.59-.46a1.29,1.29,0,0,1,.12-.67,1.33,1.33,0,0,1,.39-.57l.28-.2.5-.4c.6.74,1.19,1.49,1.78,2.24,0,.16.09.32.13.48C38.86,12.81,38.69,13.26,38.06,13.32Z"/><path class="cls-273" d="M40.24,12.49c.43.69,1.12,1.3.76,2.27-.16-.17-.31-.35-.45-.52a2.27,2.27,0,0,1-1.74-2.36v-.07c.19-.12.38-.24.56-.37A.88.88,0,0,1,40.24,12.49Z"/><path class="cls-274" d="M45.15,9a1.46,1.46,0,0,0,.23.61l-.06.35-.31.18-.23-.26a2.6,2.6,0,0,1-1.74-1l.4-.66A1.93,1.93,0,0,1,45.15,9Z"/><path class="cls-275" d="M43.64,12c0,.53.2,1.53-.61,1.25s-.35-1.24,0-1.89Z"/><path class="cls-276" d="M40.24,12.49l-.87-1.05c.42-.51,1-.43,1.51-.32h0a2,2,0,0,1-.19,1A2.58,2.58,0,0,1,40.24,12.49Z"/><path class="cls-277" d="M45.19,11.54a3.92,3.92,0,0,1-.53-.29.52.52,0,0,1-.34-.73l.46-.63.08.24a1,1,0,0,1,1,.89l-.15.47Z"/><path class="cls-275" d="M44.32,10.52c.11.24.22.49.34.73l-.56.3A1,1,0,0,1,44.32,10.52Z"/><path class="cls-278" d="M42.34,9.16a3.86,3.86,0,0,1,.17-.55,1.3,1.3,0,0,1,.32.05A.67.67,0,0,1,42.34,9.16Z"/><path class="cls-279" d="M36.27,11a4.09,4.09,0,0,1-.53.4c-.66-.62-.57-1.48-.7-2.26l1.14-.76c.12.52.24,1,.35,1.58v0A3.69,3.69,0,0,0,36.27,11Z"/><path class="cls-93" d="M13.05,26.65,14,27.78c1.09,1.47-.34,2.7-.44,4.06-1.7,2.37-2.11-.33-3.1-.75a2.59,2.59,0,0,1-.52-.75c0-.15,0-.31,0-.46a1.4,1.4,0,0,0,.45-2,3,3,0,0,1,.54-.46c.57.1,1.14.21,1.57-.34Z"/><path class="cls-235" d="M7.26,31.07c0-.34,0-.68.07-1,.18-.17.36-.33.55-.48l.67-.45a.89.89,0,0,1,.57.58,5,5,0,0,1,.6,2.06,1.22,1.22,0,0,1-.47.72,1.55,1.55,0,0,1-.88,0L8,32.25Z"/><path class="cls-280" d="M8.74,30c-.06-.27-.13-.55-.19-.82.67-.15,1,.27,1.34.75h0C9.56,30.49,9.16,30.4,8.74,30Z"/><path class="cls-85" d="M10,26.19l1,.11-.6.5Z"/><path class="cls-281" d="M12.45,27.06c.18.49.74,1.13-.07,1.43s-1.09-.59-1.5-1.09A1.46,1.46,0,0,1,12.45,27.06Z"/><path class="cls-282" d="M45.19,11.54a3.52,3.52,0,0,1,.63-.27c.53-.15,1.15-.06,1.57-.55a1.11,1.11,0,0,1,.53-.2l.65.53a2.46,2.46,0,0,0,.32.6l.75,1.27c-.94.6-1.72,1.25-.93,2.47a.55.55,0,0,1-.4.59c-.41,0-.74-.29-1.14-.34h0l-.86-1.21a.91.91,0,0,0-.8-1.12Z"/><path class="cls-283" d="M60.87,32.75c-.6.18-.93-.18-1.24-.59.26-.53.63-.76,1.2-.46C60.85,32.05,60.86,32.4,60.87,32.75Z"/><path class="cls-284" d="M45.38,9.62a1,1,0,0,1,1.06.18l-.36.38a.6.6,0,0,1-.69-.54Z"/><path class="cls-285" d="M47,9.46l-.12.91-.44-.15,0-.46v0A1.26,1.26,0,0,1,47,9.46Z"/><path class="cls-286" d="M20.23,24c.75-.37,2.23.12,2-1.37-.09-.61-1-1.21,0-1.74s1.46.45,2,1.05c.16.18.29.39.43.58.61,1.53,2.17,3.46-1.38,3.32a.62.62,0,0,0-.12.32,1.27,1.27,0,0,0,.07.36,1.71,1.71,0,0,1-.85,1,2.25,2.25,0,0,1-.93.12c-1.65-.11-2.61,1-3.66,2a3.09,3.09,0,0,1-.61.74,1.55,1.55,0,0,1-.92.19c-1.35-.63-1.78-1.39-.31-2.4a3.84,3.84,0,0,0,1.48-2.94c-.06-1,.69-1.4,1.36-1.86.15.17.3.35.44.53a2,2,0,0,1,.55.17l0,.27.27-.08Z"/><path class="cls-192" d="M18.48,21.73l.17.22.17.23a1.18,1.18,0,0,1-1.5.34Z"/><path class="cls-282" d="M19.26,20.26a5.59,5.59,0,0,0-.6.3l-.88-1.14,1.1-.81A1.36,1.36,0,0,1,19.26,20.26Z"/><path class="cls-253" d="M15.94,28.1c-.66,1-.32,1.74.75,2.19.23,2.53-1.41,2.13-3,1.89l-.42-.26c-1.13-1.58.84-2.7.66-4.14A2.49,2.49,0,0,1,15.94,28.1Z"/><path class="cls-205" d="M39.9,61.32c-.08.31-.16.63-.23.94-.25.83.22,1.88-.79,2.47a3.51,3.51,0,0,0-.47-.55c-.84-.12-1.09-.84-1.47-1.43a2.28,2.28,0,0,1-.12,1.72h0c-.07.33-.15.67-.22,1C34.87,65.4,35,64,35,62.92a13.36,13.36,0,0,0,0-3.46c.2-1.12.92-2.15.58-3.36.11-1.13-.55-2.78,1-3.15,1.83-.45,1.87,1.46,2.46,2.57s-.08,2.85,1.79,3.21C40.88,59.73,40.17,60.45,39.9,61.32Z"/><path class="cls-287" d="M36,56c1.55,1.7.29,2.6-1,3.48-.14-.18-.27-.37-.39-.56,0-1.72-1.71-2-2.59-3a4.64,4.64,0,0,1-.41-2.46,1.62,1.62,0,0,1,1.87-1.74c1,0,2.05.23,1.85,1.6A3.92,3.92,0,0,0,36,56Z"/><path class="cls-205" d="M32.29,56c2.68.29,3,.67,2.25,2.9l-1-.12-.44-.17a3.5,3.5,0,0,1-.88-2.15Z"/><path class="cls-207" d="M24.46,66.32c.53-.32.94-.7.76-1.4.85-.79,1.72,0,2.58,0l.46.57L27,66.32a3.63,3.63,0,0,0-2.13.69Z"/><path class="cls-244" d="M32.77,60.26l.2.25.19.26c1.18,1-.5,1.1-.55,1.71l-.36.31-.46,0-.53-.62a.61.61,0,0,1-.5-.63c.21-.7-.61-1.52.28-2.13a1.81,1.81,0,0,1,1.39.07A.84.84,0,0,1,32.77,60.26Z"/><path class="cls-288" d="M27.87,64.73c-.94-1.23.18-1.74.86-2.41C29.58,63.51,28.79,64.15,27.87,64.73Z"/><path class="cls-205" d="M32.4,62.29c-.31-.78,1.11-.72.76-1.52,1.32.73,1.32.73-.3,2.11l-.48-.1Z"/><path class="cls-288" d="M28,60.12c.44.56.87,1.13,1.31,1.7l-.57.49C28.28,61.65,27.63,61.06,28,60.12Z"/><path class="cls-205" d="M32.86,62.88c.22.47.75,1.08,0,1.38-.54.23-.44-.58-.64-.91l.09-.49.5,0Z"/><path class="cls-93" d="M31,61.58a3.22,3.22,0,0,1,.29.55,1.33,1.33,0,0,1-1.34-.7,2.45,2.45,0,0,1,.55-.47A.48.48,0,0,1,31,61.58Z"/><path class="cls-205" d="M32.77,60.26l-.49-.6a1,1,0,0,1,1.15-.89h.06A1.76,1.76,0,0,1,32.77,60.26Z"/><path class="cls-205" d="M32.25,63.35c-.48,0-.64-.15-.46-.6h0a.43.43,0,0,1,.43.58Z"/><path class="cls-289" d="M36.82,64.47c-.15-1.37-1-2.84.84-4.14.73,1.23-.77,3,.75,3.85Z"/><path class="cls-290" d="M24.41,60.1l1.09-.84c.27.49.76,1.05,0,1.45C25,61,24.65,60.51,24.41,60.1Z"/><polygon class="cls-291" points="26.74 62.7 26.5 62.56 26.71 62.42 26.74 62.7"/><path class="cls-292" d="M27.63,59.56l-.5-.09.5.06Z"/><path class="cls-293" d="M23.85,63.21l-.53-.08c.08,0,.18-.12.24-.1a1.08,1.08,0,0,1,.29.18Z"/><path class="cls-294" d="M48.17,15.79l.54-.4c.35.32.69.79.35,1.17-.54.6-1,0-1.43-.33h0c0-.25.08-.39.24-.44S48.13,15.74,48.17,15.79Z"/><polygon class="cls-295" points="48.53 19.58 48.65 19.38 48.77 19.58 48.53 19.58"/><path class="cls-296" d="M36,56c-1.38-.56-3.15-.87-1.35-3,.41-.48-.46-.63-.87-.68-.72-.1-1.7-.06-1.44.91a10.76,10.76,0,0,1,0,2.78h0c-.49.8-1.15.6-1.82.32a1.31,1.31,0,0,1-.46-.87c-.35-.31.55-1.69-.43-1.06-1.64,1.06-2.23.3-3-.85-.1-.29-.2-.59-.32-.88-1.12-1.37-5.08.17-3.83-3.74.13-.4-1.19-.55-1.81-.87-3.79-1.94-5.3-5.31-3.43-9.12.83-1.68.24-3.63,1.58-5.07.73-.78-.12-1-.59-1.27a1.93,1.93,0,0,1-.95-2.74h0c1.22-1.39,3.65-.59,4.57-2.52h0c.65.05,1.28.07,1.18-.88-.17-.18-.34-.34-.49-.53-.33-.39-1.28-.63-.48-1.34.57-.5,1.11-.25,1.38.45a1,1,0,0,0,1,.66c.08-1.05.16-2.13.23-3.2L25.4,21c1.82.81,4.05-1.38,5.58,1.15,1-1.39.26-3.06,1.63-3.81,1.06,1.25.26,3.35,1.77,4.41,1.32-.5.46-1.21.42-1.81s-.13-1.31.56-1.52c.87-.27,1.17.58,1.63,1.08.58.08,1-.56,1.65-.3A4.81,4.81,0,0,1,40,18.3h0c.45.69,1.18,1.32.52,2.27-.34.48-.36,1.1.32.82,1.87-.75,2.79,1.13,4.29,1.28h0c1.34,0,.82,2.18,2.35,1.9h0c1.2.49,2.29-.35,3.52-.36-.17,1-1.09,1.14-1.61,1.68-2.36,2,1,2.46,1,3.8h0c-1.6,2.85,1.5,3.11,2.47,4.53h0c-2,1.74-2,1.74-3.23,4.65.68.94,2.19.24,2.87,1.52-.55,1.15-2.75.19-2.84,2.09,0,.7-.85.79-1.27.07-.28-.49-.35-1.39-1.1-1a1.87,1.87,0,0,0-.91,2.17,1.55,1.55,0,0,0,.64.82,1.19,1.19,0,0,1,.35,1.86,1.28,1.28,0,0,1-1.61.44,1.49,1.49,0,0,0-1.38-.11A3.37,3.37,0,0,0,47.45,49c.51.05.94.33.87.92a1,1,0,0,1-1,.9c-1,.06-2,0-2.38,1.18-.5-.45-.33-1.58-1.17-1.54s-.89.9-.82,1.62a2.79,2.79,0,0,1-1.56,2.58c-.76-.19-1.12.14-1.18.88l-.15,1c-.36.92.25,1.54.68,2.2-.67.4-1.29.65-1.65-.37-.61-1.71-1.26-3.41-2-5.28C35.67,53.88,36.85,55.3,36,56Z"/><path class="cls-219" d="M52.8,34.21c-1.43-1.73-2.53.75-3.87.5.24-2.89.6-4.17,1.4-5C53.07,30.14,53,32.13,52.8,34.21Z"/><path class="cls-219" d="M50.33,29.68c-.63-.52-1.71-.19-2.15-1s-1.8-1.07-1.13-2.26c.5-.9,1.55-.14,2.27-.51.33,1.79,1.29,1.66,2.5.82h0C52.17,28.11,51.41,29,50.33,29.68Z"/><path class="cls-297" d="M40,18.3a10.14,10.14,0,0,1-.48-1.3.64.64,0,0,1,.45-.82c.29,0,.83.1.89.28.2.62.85,1.19.47,1.86-.11.18-.87,0-1.33,0Z"/><path class="cls-298" d="M38.81,11.88l1.74,2.36c-1.52,1.51-1.94.12-2.49-.92Z"/><path class="cls-145" d="M51,21.92c.14-1.07.7-1.2,1.39-.52a17.28,17.28,0,0,1,1.53,2h0A2,2,0,0,1,51.81,23C51.89,22.31,51.54,22,51,21.92Z"/><path class="cls-299" d="M45.22,18A1.49,1.49,0,0,1,46,16.53C46.56,17.44,46.74,18.16,45.22,18Z"/><path class="cls-300" d="M51.82,26.7c-.27-.49-.67-1,.07-1.42a.35.35,0,0,1,.33,0c.56.65,0,1-.41,1.37Z"/><path class="cls-301" d="M54.41,24c1.49.28,1,.87.21,1.49Z"/><path class="cls-302" d="M45.08,22.67c-.25-.38-.6-.75-.31-1.23a.57.57,0,0,1,.5-.06,1.17,1.17,0,0,1-.2,1.28Z"/><path class="cls-297" d="M38.64,20.22a1.43,1.43,0,0,1-1.65.3C37.42,19.71,37.89,19.18,38.64,20.22Z"/><path class="cls-303" d="M35.73,15.11a1.33,1.33,0,0,1,1.37.71C36.39,16.07,36.05,15.61,35.73,15.11Z"/><path class="cls-304" d="M47.42,24.56c-.07-.37.11-1,.28-.88.8.48-.18.57-.29.88Z"/><path class="cls-305" d="M51,21.92c.93-.18,1.19.17.85,1C51.53,22.61,51.25,22.26,51,21.92Z"/><path class="cls-145" d="M48.17,15.79a4.43,4.43,0,0,0-.54.43c-.16-.19-.31-.38-.46-.58Z"/><path class="cls-306" d="M47.53,59.21l-1,0c-1,0-1.87-.12-1.93-1.39a17.19,17.19,0,0,0,1.59-1.48A5.45,5.45,0,0,0,46.79,55C48.74,56.18,46.39,58,47.53,59.21Z"/><path class="cls-127" d="M44.62,57.78l1.93,1.39c-.31.56,0,1,.23,1.5a1.72,1.72,0,0,0-1.72,1.26l-1.46-.65L43.48,61l.06-.89c.11-.67-.67-1.56.49-2C44.22,58,44.42,57.89,44.62,57.78Z"/><path class="cls-239" d="M44,58.14a1,1,0,0,0,.31,1.26c.72.59.27,1-.25,1.37-.8-.22-1.15-.89-1.53-1.53-.31-.45-.73-.85-.58-1.48A3.06,3.06,0,0,1,44,58.14Z"/><path class="cls-307" d="M52.13,53c-.19.48-.39,1-.58,1.46h-.21a1,1,0,0,1-.86-1.08l.59-.53c.68-.44,1.3-1.09,2.24-.78Z"/><path class="cls-308" d="M43,54.32l1.15-.83v0c.32.48,1,.94.76,1.47s-1,.29-1.55,0C43,54.9,42.88,54.69,43,54.32Z"/><path class="cls-309" d="M40.21,55.52c-.32-.58-.89-1.35-.24-1.81.82-.59,1,.57,1.42.93Z"/><path class="cls-296" d="M44.19,53.49A1.58,1.58,0,0,1,44.94,52c.23.48,1,.84.59,1.44-.14.22-.88,0-1.35,0Z"/><path class="cls-306" d="M48.88,57.23a3,3,0,0,1,.27.42l.2.24c-.15.32-.14.68-.26,1-.48.27-.94.6-1.53.31A4.59,4.59,0,0,1,48.88,57.23Z"/><path class="cls-127" d="M42,57.76l.9,1.32c0,.27-.1.42-.28.45s-.27,0-.32,0c-.5-.86-1.55-1.48-1.2-2.73Z"/><path class="cls-113" d="M50.33,50.62c-.25-.48-.77-.84-.62-1.49.67,0,.88.64,1.27,1l0,.09c0,.27-.07.42-.23.45s-.27,0-.31,0Z"/><path class="cls-310" d="M50.48,53.35l.86,1.08a1,1,0,0,1-1.52.31h0a5.33,5.33,0,0,1,.21-1A1.44,1.44,0,0,1,50.48,53.35Z"/><path class="cls-296" d="M43,54.32a2.16,2.16,0,0,1,.35.63c-.46.27-.8.83-1.47.59C42,54.89,42.63,54.69,43,54.32Z"/><path class="cls-259" d="M50,53.7l-.21,1A.92.92,0,0,1,50,53.7Z"/><path class="cls-253" d="M10.37,30.47c.89-.11,1.32.41,1.58,1.15s.78.74,1.36.3l.13,0c.67,1.6-.39,2.29-1.58,2.9l-.5-.61c-.1-.53-.19-1.06-.29-1.59C10.11,32.17,9.13,31.68,10.37,30.47Z"/><path class="cls-181" d="M10.37,30.47c-.34.92.38,1.49.7,2.2-.87.51-1.51,1.6-2.78,1.14A1.93,1.93,0,0,1,9,32.41c.52-.9-.53-1.6-.29-2.46a1.16,1.16,0,0,0,1.19-.06l.22.29Z"/><path class="cls-311" d="M9,32.41c.19.69-.21,1.08-.74,1.4L7.47,32.7A1.31,1.31,0,0,1,8,32.25H8a5.85,5.85,0,0,0,1,.16Z"/><path class="cls-312" d="M42.28,59.49a4.89,4.89,0,0,1,.6-.41c.41.56.81,1.13,1.21,1.69a1.64,1.64,0,0,1-.61.25C42.56,60.92,42.35,60.26,42.28,59.49Z"/><path class="cls-313" d="M50.78,58.54c.29.38.57.77.85,1.15,0,.14,0,.28,0,.42a1.52,1.52,0,0,1-1.12.52C49.59,59.81,50,59.15,50.78,58.54Z"/><path class="cls-314" d="M51.63,59.69l.64-.37,1.49.72-1.27.72a1.68,1.68,0,0,0-.41-.47c-.41,0-.57-.17-.45-.58Z"/><path class="cls-264" d="M51.63,59.71l.45.58a1.32,1.32,0,0,1-1.59.34Z"/><path class="cls-315" d="M49.3,61.48l0-.48c0,.06.1.13.09.19a1.78,1.78,0,0,1-.12.29Z"/><path class="cls-316" d="M49.09,58.9a.73.73,0,0,1,.26-1C49.27,58.23,49.18,58.57,49.09,58.9Z"/><path class="cls-287" d="M11.86,34.87c.26-1.11,1.45-1.72,1.58-2.9.87-1,3,.46,3.25-1.68l.58-.44c.06,1.45,1,2,2.24,2.48,1.54.55,1.57,1.29.19,2.25-.33.23-1.34.06-.94.67,1.18,1.8-.46,2.87-1,4.16A8.79,8.79,0,0,0,18,45.34c.43,1.29,3.05,2,4.84,2.61,1.6.52,1.7.3.81,1.53-.25.35-.94.36-.8,1.18,1.19,1.08,2.75.13,4.09.46s.55,1,.1,1.53h0c.18.56.22,1.22.89,1.48.3.12.92.29.86,0-.42-2.09.46-2.23,1.91-1.3,1.77,1.15-.11,2-.43,2.92h0a2.57,2.57,0,0,0,2.06.29,4.7,4.7,0,0,1,1.14,2.77l-1.15.89-1-.12c-.15-.95-1-.62-1.53-.79a4.58,4.58,0,0,1-2.31-1.85c0-.11.06-.24-.06-.34.13.47-.06-.13.07.34-2.05,2.06-3.5.05-5.14-.71,0-1.06.28-2.13.24-3.18-.06-1.54-.56.46-.82,0l-1.61.29c-.4-2.64-.4-2.64-2.91-5.09a.45.45,0,0,1-.44-.58c-.49-.63-.89-1.39-1.86-1.39A.92.92,0,0,1,14,45.09a1.51,1.51,0,0,0-.28-1.6,4.79,4.79,0,0,0-.2-2.65.44.44,0,0,1-.34-.62c.18-.62,2.85-.33.67-1.84-.88-.62-.47-1.45-.12-2.22s1-.22,1.42-.56c-.6-.71-1.25.24-1.85,0Z"/><path class="cls-317" d="M16,52.68c-.14-.2-.29-.39-.44-.57-.22-.74-1.52-.66-1.32-1.72,0-.5.18-.66.64-.48C17.39,50.64,17.43,50.76,16,52.68Z"/><path class="cls-221" d="M20.07,53.33a1.34,1.34,0,0,1-.74,1.37l-1-.07-.59.4c-.43,0-.56-.17-.42-.57C17.48,52.23,19,53.33,20.07,53.33Z"/><path class="cls-318" d="M14.85,49.91l-.64.48c-.52-.76-1.14-1-1.92-.32-.42,0-.59-.16-.53-.57a4.39,4.39,0,0,1,1.33-1.91Z"/><path class="cls-319" d="M14,45.09l.91,1.11c-.07.37,1.07.94-.2,1.09-.35,0-.68-.12-1-.15h0A1.32,1.32,0,0,1,14,45.09Z"/><path class="cls-130" d="M17.32,54.46l.21.29.21.28-1.19.9-.39-.64Z"/><path class="cls-245" d="M13.67,47.14l1,.15Z"/><path class="cls-320" d="M16.76,47.59l.23.28.21.3C16.65,48.29,16.47,48.12,16.76,47.59Z"/><path class="cls-129" d="M11.59,50.66c-.74.12-1.1-.38-1.48-.87l1,.06Q11.86,50,11.59,50.66Z"/><path class="cls-321" d="M11.59,50.66l-.48-.81a2,2,0,0,1,.65-.35l.53.57a2.25,2.25,0,0,0,.22.56A.8.8,0,0,1,11.59,50.66Z"/><path class="cls-322" d="M12.22,42.77a.81.81,0,0,1,.92.17c0,.24,0,.39-.19.44s-.26.06-.3,0a1,1,0,0,1-1-.19h0c0-.24.13-.39.29-.43S12.18,42.72,12.22,42.77Z"/><path class="cls-162" d="M12.65,43.39l.49-.45.23.23.19.28Z"/><path class="cls-323" d="M21.72,53c0-.65,0-1.3.06-2.09,2,1.69,1.73,3.46.52,5.31-.63,0-.68-.39-.66-.88C21.68,54.53,21.7,53.75,21.72,53Z"/><path class="cls-324" d="M29.74,58.75c1.09-.85,1.4-.2,1.53.79l-.3,2-.5-.62C30.23,60.23,30,59.49,29.74,58.75Z"/><path class="cls-130" d="M18.61,56.24c-.2.14-.4.28-.61.41-.07-.3,0-.49.28-.53C18.39,56.11,18.5,56.2,18.61,56.24Z"/><path class="cls-74" d="M20.48,57.51a2,2,0,0,1-.53.39.79.79,0,0,1,.14-1l.22.26Z"/><path class="cls-130" d="M18.33,54.63l1,.07Z"/><path class="cls-191" d="M19.66,24.4l-.44-.57,1,.14h0a.49.49,0,0,1-.29.41C19.78,24.43,19.68,24.44,19.66,24.4Z"/><path class="cls-325" d="M30.9,16a1.33,1.33,0,0,1,1.49-.34A1.2,1.2,0,0,1,30.9,16Z"/><path class="cls-326" d="M50.42,50.64a5.47,5.47,0,0,1,.54-.41c.21.29.58.71.27.93S50.64,50.92,50.42,50.64Z"/><path class="cls-327" d="M52.67,57.21c-.32,1.45-.94,1.16-1.66.29C51.41,56.47,52,56.36,52.67,57.21Z"/><path class="cls-328" d="M13.29,35.56l2-1.8c1,1,1.57,2.23.56,3.32s-1-1.46-2.15-.92Z"/><path class="cls-162" d="M12.22,42.77l-.6.43-.42-.62Z"/><path class="cls-329" d="M13.17,40.22l.34.62C12.86,40.94,12.89,40.65,13.17,40.22Z"/><path class="cls-330" d="M47.39,10.72c.17.42.57,1,.14,1.26-.78.5-1.31-.07-1.71-.71l-.2-.11a1.17,1.17,0,0,1,1.27-.8h0A1.3,1.3,0,0,0,47.39,10.72Z"/><path class="cls-331" d="M45.49,13.31c1-.16,1.16.3.8,1.12Z"/><path class="cls-168" d="M40.73,12.17c.07-.35.13-.7.19-1A.75.75,0,0,1,40.73,12.17Z"/><path class="cls-171" d="M36.27,11c.08-.33.17-.66.25-1C36.44,10.35,36.35,10.68,36.27,11Z"/><path class="cls-332" d="M46.89,10.36l-1.27.8c-.25-.35-.51-.69-.76-1a1.15,1.15,0,0,1,.53-.49.87.87,0,0,0,1,.12Z"/><path class="cls-181" d="M9,32.4l-1-.16Z"/><path class="cls-287" d="M21.84,27.33A3.47,3.47,0,0,1,20,30.53c-1.21.6-1.44-1.82-2.68-.68-.86-2.17,1.79-1.56,2.31-2.88C20.28,25.18,21.16,26.61,21.84,27.33Z"/><path class="cls-287" d="M23,26.45a4.48,4.48,0,0,1,.58.86c.12.29.27.79.13,1-.53.56-.68-.2-1-.38l-.89-.55Z"/><path class="cls-205" d="M19.66,24.4l.57-.43C20.34,24.52,20.15,24.67,19.66,24.4Z"/><path class="cls-287" d="M32.25,63.32c-.14-.2-.29-.39-.43-.58l.58-.45c.15.2.3.39.44.59Z"/><path class="cls-287" d="M20,43.31c-.52-.87-1.55-1.51-1.17-2.77.49-.37,1.47,2,1.62-.31,1.32,1.29.61,2.8.43,4.25A1,1,0,0,1,20,43.31Z"/><path class="cls-333" d="M20.45,40.23c-.12.45-.15,1.23-.39,1.29-.69.2-.83-.62-1.23-1a1.58,1.58,0,0,1,.75-1.47c.4,0,.54.2.45.58Z"/><path class="cls-334" d="M20,43.31l.88,1.17c-.39.24-.88.55-1.24.22C19.05,44.14,19.63,43.71,20,43.31Z"/><path class="cls-287" d="M20,39.65l-.45-.58c0-.43,0-1.09.54-.82S20.25,39.18,20,39.65Z"/><path class="cls-218" d="M40.92,22.8c.09,0,.24-.1.26-.07a1,1,0,0,1,.11.3c-.09,0-.24.11-.26.08A.76.76,0,0,1,40.92,22.8Z"/><path class="cls-244" d="M27.44,56.9l-1-.38c-.6-.23-1.51-.14-1.31-1.2a.82.82,0,0,1,.43-.52c.83-.37,1.3.16,1.71.76a1.51,1.51,0,0,1,.14,1.34Z"/><path class="cls-335" d="M27,52.65l-.95.39c0-.88.54-.49.95-.39Z"/><path class="cls-336" d="M30.23,55.71l-.94.37c0-.87.55-.46.94-.37Z"/><path class="cls-337" d="M35.17,23.75c4.38,0,4.9,0,6.63.1a9.19,9.19,0,0,1,3.05.56A5.45,5.45,0,0,1,48,27.53a9.19,9.19,0,0,1,.56,3c.08,1.73.1,2.25.1,6.63s0,4.91-.1,6.64a9.19,9.19,0,0,1-.56,3,5.16,5.16,0,0,1-1.23,1.88A5,5,0,0,1,44.85,50a8.87,8.87,0,0,1-3.05.57c-1.73.08-2.25.09-6.63.09s-4.91,0-6.64-.09A8.87,8.87,0,0,1,25.48,50a5.49,5.49,0,0,1-3.11-3.11,8.87,8.87,0,0,1-.57-3c-.08-1.73-.09-2.25-.09-6.64s0-4.9.09-6.63a8.87,8.87,0,0,1,.57-3,5,5,0,0,1,1.23-1.89,5.16,5.16,0,0,1,1.88-1.23,9.19,9.19,0,0,1,3.05-.56c1.73-.08,2.25-.1,6.64-.1m0-3c-4.46,0-5,0-6.77.1a12,12,0,0,0-4,.77,8.35,8.35,0,0,0-4.8,4.8,11.94,11.94,0,0,0-.76,4c-.08,1.75-.1,2.31-.1,6.77s0,5,.1,6.77a12,12,0,0,0,.76,4,8.35,8.35,0,0,0,4.8,4.8,12,12,0,0,0,4,.76c1.75.08,2.31.1,6.77.1s5,0,6.77-.1a11.94,11.94,0,0,0,4-.76,8.35,8.35,0,0,0,4.8-4.8,12,12,0,0,0,.77-4c.08-1.75.1-2.31.1-6.77s0-5-.1-6.77a11.92,11.92,0,0,0-.77-4,8.35,8.35,0,0,0-4.8-4.8,11.92,11.92,0,0,0-4-.77c-1.75-.08-2.31-.1-6.77-.1"/><path class="cls-337" d="M35.17,28.78a8.43,8.43,0,1,0,8.43,8.43,8.43,8.43,0,0,0-8.43-8.43m0,13.91a5.48,5.48,0,1,1,5.47-5.48,5.48,5.48,0,0,1-5.47,5.48"/><path class="cls-337" d="M45.9,28.45a2,2,0,1,1-2-2,2,2,0,0,1,2,2"/></g></g></svg>