<?xml version="1.0" encoding="utf-8"?>
<!-- Generator: Adobe Illustrator 25.2.1, SVG Export Plug-In . SVG Version: 6.00 Build 0)  -->
<svg version="1.1" id="Layer_1" xmlns="http://www.w3.org/2000/svg" xmlns:xlink="http://www.w3.org/1999/xlink" x="0px" y="0px"
	 viewBox="0 0 64.8 107.7" style="enable-background:new 0 0 64.8 107.7;" xml:space="preserve">
<style type="text/css">
	.st0{fill:#A6A6A6;}
</style>
<g id="Layer_2_1_">
	<g id="Layer_1-2">
		<path class="st0" d="M63.8,40c4.2-17.4-6.4-34.9-23.8-39.1S5.2,7.3,0.9,24.6c-1.2,5-1.2,10.3,0,15.4c0.6,4.3,1.8,8.6,3.5,12.6
			C7.6,59.3,21,81.4,27.2,91.4c-8.3,1-12.2,4.6-12.2,8c0,4,5.4,8.3,17.4,8.3s17.4-4.3,17.4-8.3c0-3.4-3.9-7-12.2-8
			c6.2-10,19.5-32.1,22.7-38.8C62,48.6,63.2,44.3,63.8,40z M44.7,99.4c-0.3,0.9-4.5,3.3-12.4,3.3s-12.1-2.4-12.4-3.3
			c0.2-0.8,3.6-2.9,10.1-3.3l0.2,0.3c0.7,1.2,2.3,1.5,3.4,0.8c0.3-0.2,0.6-0.5,0.8-0.8l0.2-0.3C41,96.6,44.4,98.6,44.7,99.4z
			 M59,38.9c0,0.1,0,0.1,0,0.2c-0.5,3.9-1.6,7.7-3.1,11.4c-3.3,6.7-18,30.8-23.5,39.9c-5.6-9-20.2-33.1-23.4-39.9
			C7.5,46.9,6.4,43,5.8,39.1c0-0.1,0-0.1,0-0.2c-3.6-14.7,5.3-29.5,20-33.2s29.5,5.3,33.2,20C60.1,30.1,60.1,34.6,59,38.9L59,38.9z"
			/>
		<path class="st0" d="M32.4,14.2c-9.6,0-17.4,7.8-17.4,17.4s7.8,17.4,17.4,17.4s17.4-7.8,17.4-17.4c0,0,0,0,0,0
			C49.7,22,42,14.2,32.4,14.2z M32.4,43.9c-6.8,0-12.4-5.5-12.4-12.4s5.5-12.4,12.4-12.4s12.4,5.5,12.4,12.4c0,0,0,0,0,0
			C44.7,38.4,39.2,43.9,32.4,43.9z"/>
	</g>
</g>
</svg>
