<?xml version="1.0" encoding="utf-8"?>
<!-- Generator: Adobe Illustrator 25.2.1, SVG Export Plug-In . SVG Version: 6.00 Build 0)  -->
<svg version="1.1" id="Layer_1" xmlns="http://www.w3.org/2000/svg" xmlns:xlink="http://www.w3.org/1999/xlink" x="0px" y="0px"
	 viewBox="0 0 97.1 109.6" style="enable-background:new 0 0 97.1 109.6;" xml:space="preserve">
<style type="text/css">
	.st0{fill:#A6A6A6;}
</style>
<g id="Layer_2_1_">
	<g id="Layer_1-2">
		<path class="st0" d="M2,46.6c-1.3,1.6-2,3.6-2,5.7v48.1c0,5,4,9,9,9h1.2l0.2,0.2l0.2-0.2h75.8l0.2,0.2l0.2-0.2h1.2c5,0,9-4,9-9
			V52.2c0-2.1-0.7-4.1-2-5.7c0-0.6-0.2-1.3-0.7-1.7L50.3,0.7c-1-0.9-2.4-0.9-3.4,0L2.7,44.8C2.2,45.3,2,45.9,2,46.6z M14.7,105.3
			l22.6-22.6l9.6,9.6c0.9,0.9,2.5,0.9,3.4,0l9.6-9.6l22.6,22.6H14.7z M21.9,62V45.2H76v16L48.6,88.7L21.9,62z M93.1,52.2v48.1
			c0,2.4-1.7,4.4-4,4.9L63.3,79.4L92.6,50C92.9,50.7,93.1,51.5,93.1,52.2L93.1,52.2z M48.6,5.8l40.8,40.8L78.9,57V43.8
			c0-0.8-0.6-1.4-1.4-1.4c0,0,0,0,0,0h-57c-0.8,0-1.4,0.6-1.5,1.4c0,0,0,0,0,0v14L7.8,46.5L48.6,5.8z M4,52.2c0-0.8,0.2-1.5,0.5-2.2
			l29.3,29.3L8,105.2c-2.3-0.5-4-2.5-4-4.9V52.2z"/>
	</g>
</g>
</svg>
