<?xml version="1.0" encoding="utf-8"?>
<!-- Generator: Adobe Illustrator 25.2.1, SVG Export Plug-In . SVG Version: 6.00 Build 0)  -->
<svg version="1.1" id="Layer_1" xmlns="http://www.w3.org/2000/svg" xmlns:xlink="http://www.w3.org/1999/xlink" x="0px" y="0px"
	 viewBox="0 0 24 16" style="enable-background:new 0 0 24 16;" xml:space="preserve">
<style type="text/css">
	.st0{fill:#FFFFFF;}
	.st1{opacity:0;}
</style>
<g id="Layer_2_1_">
	<g id="Payment-Methods">
		<g id="mastercard-solid">
			<path class="st0" d="M22,0H2C0.9,0,0,0.9,0,2v12c0,1.1,0.9,2,2,2h20c1.1,0,2-0.9,2-2V2C24,0.9,23.1,0,22,0z M9,8
				c0,1.8,0.8,3.5,2.1,4.7C8.5,14.1,5.3,13,4,10.4S3.7,4.6,6.4,3.3c1.5-0.8,3.3-0.8,4.8,0C9.8,4.5,9,6.2,9,8z M12,3.8
				c2.3,1.8,2.7,5.2,0.9,7.5c-0.3,0.3-0.6,0.6-0.9,0.9C9.7,10.4,9.3,7,11.1,4.7C11.4,4.4,11.7,4.1,12,3.8z M15.3,13.3
				c-0.8,0-1.6-0.2-2.4-0.6c2.6-2.3,2.9-6.2,0.6-8.8c-0.2-0.2-0.4-0.4-0.6-0.6C15.5,1.9,18.7,3,20,5.6c1.4,2.6,0.3,5.8-2.3,7.1
				C17,13.1,16.2,13.3,15.3,13.3L15.3,13.3z"/>
			<g class="st1">
				<path class="st0" d="M2.3,1.6v12.8h19.4V1.6H2.3z M5.4,12.2C3.1,10.4,2.7,7,4.5,4.7c1.6-2,4.3-2.6,6.6-1.5C9.8,4.5,9,6.2,9,8
					s0.8,3.5,2.1,4.7C9.3,13.7,7.1,13.5,5.4,12.2z M12,12.2C9.7,10.4,9.3,7,11.1,4.7c0.3-0.3,0.6-0.6,0.9-0.9
					c2.3,1.8,2.7,5.2,0.9,7.5C12.6,11.6,12.3,11.9,12,12.2z M15.3,13.3c-0.8,0-1.6-0.2-2.4-0.6c2.6-2.3,2.9-6.2,0.6-8.8
					c-0.2-0.2-0.4-0.4-0.6-0.6C15.5,1.9,18.7,3,20,5.6c1.4,2.6,0.3,5.8-2.3,7.1C17,13.1,16.2,13.3,15.3,13.3L15.3,13.3z"/>
			</g>
			<path class="st0" d="M20.4,11.1l-0.1,0.1l-0.1-0.1h-0.1v0.2l0,0v-0.2l0.1,0.1l0,0L20.4,11.1l-0.1,0.2l0,0L20.4,11.1L20.4,11.1z
				 M20,11.1L20,11.1v0.2l0,0V11.1L20,11.1z"/>
		</g>
	</g>
</g>
</svg>
