<?xml version="1.0" encoding="utf-8"?>
<!-- Generator: Adobe Illustrator 25.2.1, SVG Export Plug-In . SVG Version: 6.00 Build 0)  -->
<svg version="1.1" id="Layer_1" xmlns="http://www.w3.org/2000/svg" xmlns:xlink="http://www.w3.org/1999/xlink" x="0px" y="0px"
	 viewBox="0 0 48 48" style="enable-background:new 0 0 48 48;" xml:space="preserve">
<path d="M22.5,26.1V5.8h3v20.3L22.5,26.1z M24,42.1c-2.5,0-4.8-0.5-7-1.4s-4.1-2.2-5.7-3.9c-1.6-1.6-2.9-3.5-3.9-5.7S6,26.6,6,24.1
	c0-2.7,0.6-5.2,1.7-7.5s2.7-4.4,4.8-6.2l2.1,2.1c-1.8,1.4-3.1,3.1-4.1,5.1S9,21.8,9,24.1c0,4.2,1.5,7.7,4.4,10.6s6.5,4.4,10.6,4.4
	s7.7-1.5,10.6-4.4S39,28.3,39,24.1c0-2.3-0.5-4.5-1.5-6.5s-2.3-3.7-4-5.1l2.2-2.1c2,1.7,3.6,3.7,4.7,6.1c1.1,2.4,1.7,4.9,1.7,7.5
	c0,2.5-0.5,4.8-1.4,7c-1,2.2-2.2,4.1-3.8,5.7c-1.6,1.6-3.5,2.9-5.7,3.9C28.8,41.6,26.5,42.1,24,42.1z"/>
</svg>
