<?xml version="1.0" encoding="utf-8"?>
<!-- Generator: Adobe Illustrator 25.2.1, SVG Export Plug-In . SVG Version: 6.00 Build 0)  -->
<svg version="1.1" id="Layer_1" xmlns="http://www.w3.org/2000/svg" xmlns:xlink="http://www.w3.org/1999/xlink" x="0px" y="0px"
	 viewBox="0 0 48 48" style="enable-background:new 0 0 48 48;" xml:space="preserve">
<style type="text/css">
	.st0{fill:#FFFFFF;}
</style>
<path class="st0" d="M22.5,26.6h3V16h-3V26.6z M24,32c0.5,0,0.9-0.2,1.2-0.5c0.3-0.3,0.5-0.7,0.5-1.2c0-0.5-0.2-0.9-0.5-1.2
	s-0.7-0.5-1.2-0.5c-0.5,0-0.9,0.2-1.2,0.5c-0.3,0.3-0.5,0.7-0.5,1.2s0.2,0.9,0.5,1.2C23.1,31.8,23.5,32,24,32z M8,38v-3h4.2V19.7
	c0-2.8,0.8-5.3,2.5-7.5s3.8-3.6,6.5-4.1V6.7c0-0.8,0.3-1.4,0.8-1.9S23.2,4,24,4c0.8,0,1.4,0.2,2,0.8c0.6,0.5,0.8,1.1,0.8,1.9v1.5
	c2.7,0.6,4.9,1.9,6.6,4.1c1.7,2.2,2.5,4.7,2.5,7.5V35H40v3H8z M24,44c-1.1,0-2-0.4-2.8-1.2C20.4,42,20,41.1,20,40h8
	c0,1.1-0.4,2-1.2,2.8C26,43.6,25.1,44,24,44z M15.2,35h17.6V19.7c0-2.5-0.8-4.6-2.5-6.3c-1.7-1.7-3.8-2.6-6.2-2.6
	c-2.5,0-4.6,0.9-6.3,2.6s-2.6,3.8-2.6,6.3V35z"/>
</svg>
