<svg xmlns="http://www.w3.org/2000/svg" viewBox="0 0 88.79 95.54"><defs><style>.cls-1{fill:#fff;}</style></defs><g id="Layer_2" data-name="Layer 2"><g id="Layer_1-2" data-name="Layer 1"><path class="cls-1" d="M0,71.31V92.23a3.31,3.31,0,0,0,3.31,3.31H85.48a3.31,3.31,0,0,0,3.31-3.31V71.31A3.32,3.32,0,0,0,85.48,68H77.39a3.31,3.31,0,0,0-3.31,3.31v9.5H14.71v-9.5A3.32,3.32,0,0,0,11.4,68H3.31A3.31,3.31,0,0,0,0,71.31ZM4,72h6.71V82.81a2,2,0,0,0,2,2H76.08a2,2,0,0,0,2-2V72h6.71V91.54H4Z"/><path class="cls-1" d="M31.71,14H57.08a3.54,3.54,0,0,0,3.53-3.53V3.53A3.53,3.53,0,0,0,57.08,0H31.71a3.53,3.53,0,0,0-3.53,3.53v6.9A3.54,3.54,0,0,0,31.71,14Zm.47-10H56.61v6H32.18Z"/><path class="cls-1" d="M28,33H15a5.08,5.08,0,0,0-4.73,2.62,3.46,3.46,0,0,0,.57,3.77L25.54,56.56h0l14.7,17.23a5.39,5.39,0,0,0,4.15,1.73h0a5.39,5.39,0,0,0,4.16-1.73L77.94,39.34a3.46,3.46,0,0,0,.57-3.77A5.07,5.07,0,0,0,73.78,33H60.38V20.73a3.32,3.32,0,0,0-3.31-3.32H31.28A3.32,3.32,0,0,0,28,20.73Zm2,4a2,2,0,0,0,2-2V21.41H56.38V35a2,2,0,0,0,2,2h15.4a2.38,2.38,0,0,1,.82.14L45.51,71.19a1.66,1.66,0,0,1-1.12.33h0a1.65,1.65,0,0,1-1.11-.33L28.59,54h0L14.19,37.1A2.14,2.14,0,0,1,15,37Z"/></g></g></svg>