<?xml version="1.0" encoding="utf-8"?>
<!-- Generator: Adobe Illustrator 25.2.1, SVG Export Plug-In . SVG Version: 6.00 Build 0)  -->
<svg version="1.1" id="Layer_1" xmlns="http://www.w3.org/2000/svg" xmlns:xlink="http://www.w3.org/1999/xlink" x="0px" y="0px"
	 viewBox="0 0 48 48" style="enable-background:new 0 0 48 48;" xml:space="preserve">
<style type="text/css">
	.st0{fill:#FFFFFF;}
</style>
<path class="st0" d="M24,46c-3.9,0-7.2-1.4-9.9-4.1S10,35.9,10,32V16c0-3.9,1.4-7.2,4.1-9.9S20.1,2,24,2s7.2,1.4,9.9,4.1
	s4.1,6,4.1,9.9v16c0,3.9-1.4,7.2-4.1,9.9S27.9,46,24,46z M24,43c3,0,5.6-1.1,7.8-3.2C33.9,37.6,35,35,35,32V16c0-3-1.1-5.6-3.2-7.8
	S27,5,24,5s-5.6,1.1-7.8,3.2S13,13,13,16v16c0,3,1.1,5.6,3.2,7.8C18.4,41.9,21,43,24,43z M24,15.5c-0.7,0-1.2-0.2-1.8-0.7
	c-0.5-0.5-0.8-1.1-0.8-1.8s0.2-1.3,0.8-1.8c0.5-0.5,1.1-0.7,1.8-0.7c0.7,0,1.2,0.2,1.7,0.7c0.5,0.5,0.7,1.1,0.7,1.8
	s-0.2,1.3-0.7,1.8C25.3,15.3,24.7,15.5,24,15.5z M18,23.5c-0.4,0-0.8-0.1-1-0.5c-0.3-0.3-0.5-0.6-0.5-1s0.1-0.8,0.5-1
	c0.3-0.3,0.6-0.5,1-0.5s0.8,0.1,1,0.5c0.3,0.3,0.5,0.6,0.5,1s-0.1,0.8-0.5,1C18.7,23.4,18.4,23.5,18,23.5z M24,23.5
	c-0.4,0-0.8-0.1-1-0.5c-0.3-0.3-0.5-0.6-0.5-1s0.1-0.8,0.5-1c0.3-0.3,0.6-0.5,1-0.5s0.8,0.1,1,0.5c0.3,0.3,0.5,0.6,0.5,1
	s-0.1,0.8-0.5,1C24.8,23.4,24.4,23.5,24,23.5z M30,23.5c-0.4,0-0.8-0.1-1-0.5c-0.3-0.3-0.5-0.6-0.5-1s0.1-0.8,0.5-1
	c0.3-0.3,0.6-0.5,1-0.5s0.8,0.1,1,0.5c0.3,0.3,0.5,0.6,0.5,1s-0.1,0.8-0.5,1C30.8,23.4,30.4,23.5,30,23.5z M18,29.5
	c-0.4,0-0.8-0.1-1-0.5c-0.3-0.3-0.5-0.6-0.5-1s0.1-0.8,0.5-1c0.3-0.3,0.6-0.5,1-0.5s0.8,0.1,1,0.5c0.3,0.3,0.5,0.6,0.5,1
	s-0.1,0.8-0.5,1C18.7,29.4,18.4,29.5,18,29.5z M30,29.5c-0.4,0-0.8-0.1-1-0.5c-0.3-0.3-0.5-0.6-0.5-1s0.1-0.8,0.5-1
	c0.3-0.3,0.6-0.5,1-0.5s0.8,0.1,1,0.5c0.3,0.3,0.5,0.6,0.5,1s-0.1,0.8-0.5,1C30.8,29.4,30.4,29.5,30,29.5z M24,29.5
	c-0.4,0-0.8-0.1-1-0.5c-0.3-0.3-0.5-0.6-0.5-1s0.1-0.8,0.5-1c0.3-0.3,0.6-0.5,1-0.5s0.8,0.1,1,0.5c0.3,0.3,0.5,0.6,0.5,1
	s-0.1,0.8-0.5,1C24.8,29.4,24.4,29.5,24,29.5z M18,35.5c-0.4,0-0.8-0.1-1-0.5c-0.3-0.3-0.5-0.7-0.5-1s0.1-0.8,0.5-1
	c0.3-0.3,0.6-0.5,1-0.5s0.8,0.1,1,0.5c0.3,0.3,0.5,0.7,0.5,1s-0.1,0.8-0.5,1C18.7,35.4,18.4,35.5,18,35.5z M30,35.5
	c-0.4,0-0.8-0.1-1-0.5c-0.3-0.3-0.5-0.7-0.5-1s0.1-0.8,0.5-1c0.3-0.3,0.6-0.5,1-0.5s0.8,0.1,1,0.5c0.3,0.3,0.5,0.7,0.5,1
	s-0.1,0.8-0.5,1C30.8,35.4,30.4,35.5,30,35.5z M24,35.5c-0.4,0-0.8-0.1-1-0.5c-0.3-0.3-0.5-0.7-0.5-1s0.1-0.8,0.5-1
	c0.3-0.3,0.6-0.5,1-0.5s0.8,0.1,1,0.5c0.3,0.3,0.5,0.7,0.5,1s-0.1,0.8-0.5,1C24.8,35.4,24.4,35.5,24,35.5z"/>
</svg>
