<?xml version="1.0" encoding="utf-8"?>
<!-- Generator: Adobe Illustrator 25.2.1, SVG Export Plug-In . SVG Version: 6.00 Build 0)  -->
<svg version="1.1" id="Layer_1" xmlns="http://www.w3.org/2000/svg" xmlns:xlink="http://www.w3.org/1999/xlink" x="0px" y="0px"
	 viewBox="0 0 24 16" style="enable-background:new 0 0 24 16;" xml:space="preserve">
<style type="text/css">
	.st0{fill:#FFFFFF;}
</style>
<g id="Layer_2_1_">
	<g id="Payment-Methods">
		<g id="paypal-solid">
			<path class="st0" d="M15.1,4.6C15,4.4,14.9,4.2,14.7,4c-0.6-0.5-1.3-0.7-2.1-0.6H9.4c0,0,0,0,0,0.1l-1.3,8.1H10L10.4,9V8.8
				l0.2-1.5L11,5.6c0-0.1,0.1-0.2,0.2-0.3h2.6c0.3,0,0.5,0,0.8,0.1h0.5C15.2,5.1,15.2,4.8,15.1,4.6L15.1,4.6z M15.9,6.8
				c0-0.2-0.1-0.5-0.3-0.6C15.5,6.1,15.4,6,15.3,6c-0.3,1.7-1.9,2.9-3.6,2.7h-1l-0.6,4.1h1.6v-0.1l0.3-2v-0.1c0-0.2,0.1-0.3,0.2-0.4
				c0.1-0.1,0.3-0.2,0.5-0.2H13c0.3,0,0.7,0,1-0.1s0.6-0.2,0.8-0.4s0.4-0.4,0.6-0.7c0.2-0.3,0.3-0.7,0.4-1.1
				C15.9,7.4,15.9,7,15.9,6.8L15.9,6.8z M15.9,6.8c0-0.2-0.1-0.5-0.3-0.6C15.5,6.1,15.4,6,15.3,6c-0.3,1.7-1.9,2.9-3.6,2.7h-1
				l-0.6,4.1h1.6v-0.1l0.3-2v-0.1c0-0.2,0.1-0.3,0.2-0.4c0.1-0.1,0.3-0.2,0.5-0.2H13c0.3,0,0.7,0,1-0.1s0.6-0.2,0.8-0.4
				s0.4-0.4,0.6-0.7c0.2-0.3,0.3-0.7,0.4-1.1C15.9,7.4,15.9,7,15.9,6.8L15.9,6.8z M10.4,8.8l0.2-1.5L11,5.6c0-0.1,0.1-0.2,0.2-0.3
				h2.6c0.3,0,0.5,0,0.8,0.1h0.5c0.1-0.3,0.1-0.5,0-0.8C15,4.3,14.9,4.1,14.7,4c-0.6-0.5-1.3-0.7-2.1-0.6H9.4c0,0,0,0,0,0.1
				l-1.3,8.1H10L10.4,9V8.8z M22,0H2C0.9,0,0,0.9,0,2v12c0,1.1,0.9,2,2,2h20c1.1,0,2-0.9,2-2V2C24,0.9,23.1,0,22,0z M16.2,7.8
				c-0.2,1.6-1.6,2.7-3.2,2.5h-0.2c-0.2,0-0.4,0.1-0.4,0.3v0.1l-0.3,1.9v0.1c0,0.2-0.2,0.3-0.4,0.3h-1.6c-0.1,0-0.2-0.1-0.2-0.2l0,0
				L10,12H8c-0.1,0-0.3-0.1-0.3-0.3l0,0L9,3.4C9,3.1,9.3,3,9.5,3h3.1c0.9-0.1,1.7,0.2,2.4,0.8c0.4,0.5,0.6,1.2,0.4,1.8
				c0.2,0.1,0.3,0.2,0.4,0.3C16.3,6.4,16.4,7.1,16.2,7.8z M15.3,5.9c-0.3,1.7-1.9,2.9-3.6,2.7h-1l-0.6,4.1h1.6v-0.1l0.3-2v-0.1
				c0-0.2,0.1-0.3,0.2-0.4c0.1-0.1,0.3-0.2,0.5-0.2H13c0.3,0,0.7,0,1-0.1s0.6-0.2,0.8-0.4s0.4-0.4,0.6-0.7c0.2-0.3,0.3-0.7,0.4-1.1
				c0.1-0.3,0.1-0.6,0-0.9c0-0.2-0.1-0.5-0.3-0.6C15.4,6,15.4,5.9,15.3,5.9L15.3,5.9z M10.4,8.8l0.2-1.5L11,5.6
				c0-0.1,0.1-0.2,0.2-0.3h2.6c0.3,0,0.5,0,0.8,0.1h0.5c0.1-0.3,0.1-0.5,0-0.8C15,4.3,14.9,4.1,14.7,4c-0.6-0.5-1.3-0.7-2.1-0.6H9.4
				c0,0,0,0,0,0.1l-1.3,8.1H10L10.4,9V8.8z"/>
		</g>
	</g>
</g>
</svg>
