<?xml version="1.0" encoding="utf-8"?>
<!-- Generator: Adobe Illustrator 25.2.1, SVG Export Plug-In . SVG Version: 6.00 Build 0)  -->
<svg version="1.1" xmlns="http://www.w3.org/2000/svg" xmlns:xlink="http://www.w3.org/1999/xlink" x="0px" y="0px"
	 viewBox="0 0 1200 800" style="enable-background:new 0 0 1200 800;" xml:space="preserve">
<style type="text/css">
	.st0{display:none;}
	.st1{display:inline;}
	.st2{filter:url(#Adobe_OpacityMaskFilter);}
	.st3{mask:url(#SVGID_3_);}
	.st4{clip-path:url(#SVGID_5_);}
	.st5{clip-path:url(#SVGID_7_);}
	.st6{fill:url(#SVGID_10_);}
	.st7{clip-path:url(#SVGID_12_);fill:url(#SVGID_13_);}
	.st8{clip-path:url(#SVGID_15_);fill:url(#SVGID_16_);}
</style>
<g id="background" class="st0">
	<g class="st1">
		<defs>
			<rect id="SVGID_1_" width="1200" height="800"/>
		</defs>
		<clipPath id="SVGID_2_">
			<use xlink:href="#SVGID_1_"  style="overflow:visible;"/>
		</clipPath>
		<g transform="matrix(1 0 0 1 -1.907349e-06 0)" style="clip-path:url(#SVGID_2_);">
			
				<image style="overflow:visible;" width="2688" height="1793" xlink:href="232585FE.png"  transform="matrix(0.48 0 0 0.48 -31.0279 -20.9541)">
			</image>
		</g>
	</g>
	
		<image style="display:inline;overflow:visible;opacity:0.15;" width="2240" height="1493" xlink:href="23258602.jpg"  transform="matrix(0.5357 0 0 0.5358 0 0)">
	</image>
</g>
<g id="objects">
	<g>
		<defs>
			<filter id="Adobe_OpacityMaskFilter" filterUnits="userSpaceOnUse" x="26.1" y="31.2" width="1147.9" height="737.7">
				
					<feColorMatrix  type="matrix" values="-1 0 0 0 1  0 -1 0 0 1  0 0 -1 0 1  0 0 0 1 0" color-interpolation-filters="sRGB" result="source"/>
			</filter>
		</defs>
		<mask maskUnits="userSpaceOnUse" x="26.1" y="31.2" width="1147.9" height="737.7" id="SVGID_3_">
			<g class="st2">
				
					<image style="overflow:visible;" width="1087.2" height="680.6" xlink:href="1D0CBB44.png"  transform="matrix(1 0 0 1 56.4 59.68)"/>
			</g>
		</mask>
		<g class="st3">
			<defs>
				<rect id="SVGID_4_" x="31.1" y="36.2" width="1137.9" height="727.7"/>
			</defs>
			<clipPath id="SVGID_5_">
				<use xlink:href="#SVGID_4_"  style="overflow:visible;"/>
			</clipPath>
			<g class="st4">
				<g>
					<defs>
						<rect id="SVGID_6_" x="26.1" y="31.2" width="1147.9" height="737.7"/>
					</defs>
					<clipPath id="SVGID_7_">
						<use xlink:href="#SVGID_6_"  style="overflow:visible;"/>
					</clipPath>
					<g class="st5">
						<defs>
							<rect id="SVGID_8_" x="26.1" y="31.2" width="1147.9" height="737.7"/>
						</defs>
						<clipPath id="SVGID_9_">
							<use xlink:href="#SVGID_8_"  style="overflow:visible;"/>
						</clipPath>
						<g style="clip-path:url(#SVGID_9_);">
							
								<image style="overflow:visible;" width="2393" height="1538" xlink:href="23258605.jpg"  transform="matrix(0.48 0 0 0.48 25.6121 30.8859)">
							</image>
						</g>
					</g>
				</g>
			</g>
		</g>
		<g>
			<linearGradient id="SVGID_10_" gradientUnits="userSpaceOnUse" x1="632.1992" y1="1003.6486" x2="609.2853" y2="587.0324">
				<stop  offset="0" style="stop-color:#00FFFF"/>
				<stop  offset="0.2527" style="stop-color:#01FDFF"/>
				<stop  offset="0.3437" style="stop-color:#07F6FE"/>
				<stop  offset="0.4086" style="stop-color:#10EBFC"/>
				<stop  offset="0.461" style="stop-color:#1EDAFA"/>
				<stop  offset="0.506" style="stop-color:#2FC4F7"/>
				<stop  offset="0.5458" style="stop-color:#45A8F3"/>
				<stop  offset="0.5818" style="stop-color:#5F88EF"/>
				<stop  offset="0.6149" style="stop-color:#7D62EA"/>
				<stop  offset="0.6457" style="stop-color:#9F37E4"/>
				<stop  offset="0.673" style="stop-color:#C409DE"/>
				<stop  offset="0.678" style="stop-color:#CB00DD"/>
				<stop  offset="0.9837" style="stop-color:#00FFFF"/>
			</linearGradient>
			<path class="st6" d="M1101.8,687.2c-9,0-18,0-27,0c-24.5,0-49,0-73.4,0c-36.1,0-72.1,0-108.2,0c-44,0-87.9,0-131.9,0
				c-48.3,0-96.7,0-145,0c-48.8,0-97.6,0-146.4,0c-45.3,0-90.7,0-136,0c-38.3,0-76.6,0-115,0c-27.7,0-55.3,0-83,0
				c-8.6,0-17.2,0-25.9,0c-4.4,0-9-0.4-13.4,0c-0.5,0.1-1.1,0-1.7,0c1.3,1.3,2.6,2.6,3.9,3.9c0-19.9,0-39.7,0-59.6
				c0-47.7,0-95.4,0-143.1c0-57.7,0-115.5,0-173.2c0-50.1,0-100.1,0-150.2c0-16.4,0-32.9,0-49.3c0-5.1,0-10.3,0-15.4
				c0-2.5,0.5-5.5,0-8c-0.1-0.3,0-0.7,0-1c-1.3,1.3-2.6,2.6-3.9,3.9c9,0,18,0,27,0c24.5,0,49,0,73.4,0c36.1,0,72.1,0,108.2,0
				c44,0,87.9,0,131.9,0c48.3,0,96.7,0,145,0c48.8,0,97.6,0,146.4,0c45.3,0,90.7,0,136,0c38.3,0,76.6,0,115,0c27.7,0,55.3,0,83,0
				c8.6,0,17.2,0,25.9,0c4.4,0,9,0.4,13.4,0c0.5-0.1,1.1,0,1.7,0c-1.3-1.3-2.6-2.6-3.9-3.9c0,19.9,0,39.7,0,59.6
				c0,47.7,0,95.4,0,143.1c0,57.7,0,115.5,0,173.2c0,50.1,0,100.1,0,150.2c0,16.4,0,32.9,0,49.3c0,7.7-0.5,15.7,0,23.4
				c0,0.3,0,0.7,0,1c0,5.1,7.9,5.1,7.9,0c0-19.9,0-39.7,0-59.6c0-47.7,0-95.4,0-143.1c0-57.7,0-115.5,0-173.2
				c0-50.1,0-100.1,0-150.2c0-16.4,0-32.9,0-49.3c0-7.7,0.5-15.7,0-23.4c0-0.3,0-0.7,0-1c0-2.1-1.8-3.9-3.9-3.9c-9,0-18,0-27,0
				c-24.5,0-49,0-73.4,0c-36.1,0-72.1,0-108.2,0c-44,0-87.9,0-131.9,0c-48.3,0-96.7,0-145,0c-48.8,0-97.6,0-146.4,0
				c-45.3,0-90.7,0-136,0c-38.3,0-76.6,0-115,0c-27.7,0-55.3,0-83,0c-13.1,0-26.2-0.3-39.3,0c-0.6,0-1.1,0-1.7,0
				c-2.1,0-3.9,1.8-3.9,3.9c0,19.9,0,39.7,0,59.6c0,47.7,0,95.4,0,143.1c0,57.7,0,115.5,0,173.2c0,50.1,0,100.1,0,150.2
				c0,16.4,0,32.9,0,49.3c0,7.7-0.5,15.7,0,23.4c0,0.3,0,0.7,0,1c0,2.1,1.8,3.9,3.9,3.9c9,0,18,0,27,0c24.5,0,49,0,73.4,0
				c36.1,0,72.1,0,108.2,0c44,0,87.9,0,131.9,0c48.3,0,96.7,0,145,0c48.8,0,97.6,0,146.4,0c45.3,0,90.7,0,136,0c38.3,0,76.6,0,115,0
				c27.7,0,55.3,0,83,0c13.1,0,26.2,0.3,39.3,0c0.6,0,1.1,0,1.7,0C1106.9,695.1,1106.9,687.2,1101.8,687.2z"/>
		</g>
	</g>
	<g>
		<defs>
			<rect id="SVGID_11_" width="1200" height="800"/>
		</defs>
		<clipPath id="SVGID_12_">
			<use xlink:href="#SVGID_11_"  style="overflow:visible;"/>
		</clipPath>
		
			<radialGradient id="SVGID_13_" cx="842.1801" cy="9829.5586" r="74.236" gradientTransform="matrix(9.9207 -7.700000e-03 5.000000e-04 0.7231 -7732.8618 -6416.6655)" gradientUnits="userSpaceOnUse">
			<stop  offset="0" style="stop-color:#C799C7"/>
			<stop  offset="0.604" style="stop-color:#4B3B4B;stop-opacity:0.3926"/>
			<stop  offset="0.9944" style="stop-color:#000100;stop-opacity:0"/>
		</radialGradient>
		<ellipse class="st7" cx="613.1" cy="678.2" rx="773.6" ry="97.1"/>
	</g>
	<g>
		<defs>
			<rect id="SVGID_14_" width="1200" height="800"/>
		</defs>
		<clipPath id="SVGID_15_">
			<use xlink:href="#SVGID_14_"  style="overflow:visible;"/>
		</clipPath>
		
			<radialGradient id="SVGID_16_" cx="847.4751" cy="9002.6152" r="76.7069" gradientTransform="matrix(9.9207 -7.700000e-03 5.000000e-04 0.7231 -7732.8618 -6416.6655)" gradientUnits="userSpaceOnUse">
			<stop  offset="0" style="stop-color:#C799C7"/>
			<stop  offset="0.604" style="stop-color:#4B3B4B;stop-opacity:0.3926"/>
			<stop  offset="0.9944" style="stop-color:#000100;stop-opacity:0"/>
		</radialGradient>
		<ellipse class="st8" cx="664.7" cy="80" rx="799.3" ry="100.3"/>
	</g>
</g>
</svg>
