<?xml version="1.0" encoding="utf-8"?>
<!-- Generator: Adobe Illustrator 25.2.1, SVG Export Plug-In . SVG Version: 6.00 Build 0)  -->
<svg version="1.1" id="Layer_1" xmlns="http://www.w3.org/2000/svg" xmlns:xlink="http://www.w3.org/1999/xlink" x="0px" y="0px"
	 viewBox="0 0 99.7 100.6" style="enable-background:new 0 0 99.7 100.6;" xml:space="preserve">
<style type="text/css">
	.st0{fill:#A6A6A6;}
</style>
<g id="Layer_2_1_">
	<g id="Layer_1-2">
		<path class="st0" d="M5.9,19.2c-0.4,0.5-0.8,0.9-1.2,1.4c-3.3,2.9-5.8,9.2-4.3,17.1c6.6,34,34.9,59.6,69.4,62.8
			c0.7,0.1,1.5,0.1,2.2,0.1c3.7,0.1,7.4-0.9,10.6-2.8c1.4-0.8,2.7-1.9,3.8-3.1l3-3.3c5.8-6.4,5.3-16.2-1.1-22l-5-4.5
			c-6.4-5.8-16.2-5.3-22,1c0,0,0,0,0,0.1l-3,3.3c-1.1,1.3-2.1,2.7-2.8,4.3c-11.7-4.9-21.4-13.8-27.4-25c2.2-0.9,4.1-2.3,5.7-4l3-3.3
			c5.8-6.4,5.3-16.2-1.1-22c0,0,0,0,0,0l-5-4.5c-6.4-5.8-16.2-5.3-22,1.1c0,0,0,0,0,0L5.9,19.2z M11.8,18.7
			c4.3-4.7,11.6-5.1,16.3-0.8c0,0,0,0,0,0l5,4.5c4.7,4.3,5.1,11.6,0.8,16.3l-3,3.3l0,0c-1.4,1.6-3.2,2.7-5.2,3.3l-0.9,0.3
			c-1.1,0.3-1.7,1.4-1.3,2.5c0,0.1,0.1,0.2,0.1,0.3l0.4,0.8c6.5,13.1,17.7,23.3,31.3,28.7l0.8,0.3c0.5,0.2,1.1,0.2,1.6-0.1
			c0.5-0.2,0.9-0.7,1-1.2l0.3-0.8c0.5-1.5,1.3-2.9,2.4-4.1l3-3.3c4.3-4.7,11.5-5.1,16.3-0.8l5,4.5c4.7,4.3,5.1,11.6,0.8,16.3
			l-2.9,3.3c-0.8,0.9-1.8,1.7-2.9,2.3c-3.2,1.8-6.8,2.6-10.5,2.1C37.5,93.5,10.7,69.3,4.4,37c-1.3-6.7,1.2-11.7,3.1-13.4l0.2-0.2
			l0.1-0.1c0.1-0.1,0.1-0.1,0.2-0.2c0.3-0.4,0.6-0.8,0.9-1.2L11.8,18.7z"/>
		<path class="st0" d="M99.7,47.5C99.7,21.3,78.4,0,52.2,0c-2.3,0-4.2,1.9-4.2,4.2s1.9,4.2,4.2,4.2c0,0,0,0,0,0
			c21.6,0,39.2,17.6,39.2,39.2c0,2.3,1.9,4.2,4.2,4.2C97.9,51.7,99.7,49.8,99.7,47.5C99.7,47.5,99.7,47.5,99.7,47.5z M95.6,49.7
			c-1.2,0-2.2-1-2.2-2.2v0C93.4,24.8,75,6.3,52.2,6.3c-1.2,0-2.2-1-2.2-2.2S51,2,52.2,2c25.1,0,45.5,20.4,45.5,45.5
			C97.7,48.7,96.8,49.7,95.6,49.7L95.6,49.7z"/>
		<path class="st0" d="M51.7,15.5c-2.3,0-4.2,1.9-4.2,4.2s1.9,4.2,4.2,4.2l0,0c13.4,0,24.2,10.8,24.2,24.2c0,2.3,1.9,4.2,4.2,4.2
			c2.3,0,4.2-1.9,4.2-4.2c0,0,0,0,0,0C84.2,30,69.7,15.5,51.7,15.5z M80.1,50.2c-1.2,0-2.2-1-2.2-2.2c0,0,0,0,0,0
			c0-14.5-11.8-26.2-26.2-26.2c-1.2,0-2.2-1-2.2-2.2c0-1.2,1-2.2,2.2-2.2c16.9,0,30.5,13.7,30.5,30.5C82.3,49.2,81.3,50.2,80.1,50.2
			C80.1,50.2,80.1,50.2,80.1,50.2z"/>
	</g>
</g>
</svg>
