<svg xmlns="http://www.w3.org/2000/svg" viewBox="0 0 76.67 67.65"><defs><style>.cls-1{opacity:0.65;}.cls-2{opacity:0.35;}.cls-3{fill:#fff;}</style></defs><g id="Layer_2" data-name="Layer 2"><g id="OBJECTS"><path class="cls-1" d="M2.87,22.89c-5.19,9.18-2.92,17.44,3.42,25C12.22,55,13.59,63,23.64,65.28c7.76,1.73,17,3.28,24.64.37,8.4-3.2,14.53-12.32,18.37-20.08,4-8,5.41-17.81.13-25.61C62.28,13.3,54,6,45.77,4.77c-15-2.15-35.18,4.5-42.9,18.12C-.41,28.69,10.07,10.19,2.87,22.89Z"/><path class="cls-2" d="M25.57,4.65C17.82,7.55,12.5,14,12.09,22.28c-.22,4.37,0,8.39-.9,12.71s-1.5,7.85.69,12a49.79,49.79,0,0,0,16.63,17.5c8.38,5.08,18,3.14,26.81.22,8.21-2.73,16.53-7.59,19.84-16,2.86-7.31,1.36-18.78-2-25.79C69.43,15.22,60.37,10.48,53,7,44.32,2.85,34.78,1.22,25.57,4.65Z"/><path d="M9.58,27c-2.25,9.24-1,21.07,5.11,28.74,7,8.79,16.31-.38,24.74-1.41,5.34-.66,10.44,1.7,15.64,1.1,4.51-.53,8.58-3.7,11.61-6.89a30.76,30.76,0,0,0,8.46-23C73.93,10.41,53.49.57,40,0c-16-.65-26.92,12.51-30.45,27Z"/><path class="cls-3" d="M22.72,45.21a19.13,19.13,0,0,0,10.39,3c12.58,0,19.69-10.63,19.26-20.16a13.93,13.93,0,0,0,3.38-3.51,13.67,13.67,0,0,1-3.89,1.07,6.83,6.83,0,0,0,3-3.75,13.64,13.64,0,0,1-4.3,1.64A6.78,6.78,0,0,0,39,29.73a19.22,19.22,0,0,1-14-7.08,6.78,6.78,0,0,0,2.09,9.05A6.68,6.68,0,0,1,24,30.85a6.8,6.8,0,0,0,5.44,6.74,6.83,6.83,0,0,1-3.06.11,6.79,6.79,0,0,0,6.33,4.71A13.61,13.61,0,0,1,22.72,45.21Z"/></g></g></svg>