<?xml version="1.0" encoding="utf-8"?>
<!-- Generator: Adobe Illustrator 25.2.1, SVG Export Plug-In . SVG Version: 6.00 Build 0)  -->
<svg version="1.1" id="Layer_1" xmlns="http://www.w3.org/2000/svg" xmlns:xlink="http://www.w3.org/1999/xlink" x="0px" y="0px"
	 viewBox="0 0 48 32" style="enable-background:new 0 0 48 32;" xml:space="preserve">
<style type="text/css">
	.st0{fill:#FFFFFF;}
</style>
<g id="Layer_2_1_">
	<g id="Payment-Methods">
		<g id="visa-solid-large">
			<path class="st0" d="M44,0H4C1.8,0,0,1.8,0,4v24c0,2.2,1.8,4,4,4h40c2.2,0,4-1.8,4-4V4C48,1.8,46.2,0,44,0z M14,20.6l-1.9-7.4
				c0-0.4-0.3-0.7-0.6-0.8c-0.8-0.4-1.5-0.6-2.4-0.8l0.1-0.3h4.1c0.5,0,1,0.4,1.1,0.9l1,5.3l2.5-6.3h2.5l-3.9,9.3H14V20.6z
				 M19.5,20.6l2-9.2h2.4l-2,9.2H19.5z M26.2,20.8c-0.9,0-1.8-0.2-2.7-0.5l0.4-2c0.8,0.4,1.6,0.6,2.5,0.6c0.7,0,1.4-0.3,1.4-0.9
				c0-0.4-0.3-0.7-1.2-1.1s-2.1-1.2-2.1-2.5c0-1.8,1.7-3.1,4-3.1c0.8,0,1.5,0.1,2.2,0.4l-0.4,2c-0.7-0.4-1.5-0.5-2.3-0.5
				c-0.7,0.1-1,0.4-1,0.8c0,1.1,3.4,1.2,3.4,3.7C30.4,19.5,28.7,20.8,26.2,20.8L26.2,20.8z M36.6,20.6l-0.3-1.4h-3l-0.5,1.4h-2.6
				l3.6-8.6c0.2-0.4,0.6-0.7,1-0.7h2l1.9,9.2h-2.1V20.6z M33.9,17.4h2l-0.7-3.5L33.9,17.4z"/>
		</g>
	</g>
</g>
</svg>
